<svg xmlns="http://www.w3.org/2000/svg" viewBox="0 0 587.83 141.34"><title>underdog-text</title><g id="Layer_2" data-name="Layer 2"><g id="Layer_16" data-name="Layer 16"><path d="M74,70.1,79.1,38h-25L49.71,66c-.09.47-.21,1.15-.35,2Q45.57,92.6,34.73,92.6q-4.63,0-7.06-2.67T25.24,82.2c0-.8.17-2.5.49-5.1s.78-5.85,1.34-9.74L31.71,38H6.82L2.46,65.18Q1,74,.49,78.29A63.21,63.21,0,0,0,0,85.36q0,12.17,9,19.26t24.71,7.11A50.82,50.82,0,0,0,50,109.3a32.26,32.26,0,0,0,12.2-7.21q7.88-7.65,11.6-30.51Z"/><path d="M564.34,39l-1.61,10A32.4,32.4,0,0,0,552,39.71a28.18,28.18,0,0,0-13.08-3,34,34,0,0,0-26.51,11.92,40.58,40.58,0,0,0-8.74,15.91A32,32,0,0,0,494,45.21q-10.2-9.63-27.22-9.63-18.42,0-30.23,11.6a38.68,38.68,0,0,0-7.72,10.67L437.91,0H413.3l-5.91,37.41c-.23,1.59-.42,3.15-.56,4.67s-.21,3-.21,4.4v2a34.59,34.59,0,0,0-10.93-9.39,28,28,0,0,0-13-3,33.5,33.5,0,0,0-24,9.48l2-8.78c-1.41-.23-2.44-.38-3.1-.45a16.74,16.74,0,0,0-1.76-.11,23.59,23.59,0,0,0-12.93,3.52A24.43,24.43,0,0,0,334,50.06L335.76,38H311.71l-4.89,30.87q-1-14.12-9.89-23.07-10-10.05-26.47-10.05-18.15,0-29.57,11.39A37.28,37.28,0,0,0,233.25,58l9.13-58H217.77l-5.9,37.41c-.24,1.59-.43,3.15-.57,4.67s-.21,3-.21,4.4v2a34.48,34.48,0,0,0-10.93-9.39,27.93,27.93,0,0,0-13-3,33.81,33.81,0,0,0-26.55,12.09,41.17,41.17,0,0,0-6.44,10q0-10.6-6.08-16.52T131,35.72a25.71,25.71,0,0,0-12.58,3.16,41.69,41.69,0,0,0-11.6,10.2L108.57,38h-24L73.28,109H98l5.06-33.11q1.62-10.34,5.31-15.05a12.27,12.27,0,0,1,10.23-4.71q4.78,0,7.24,2.39c1.64,1.59,2.46,3.94,2.46,7a25.79,25.79,0,0,1-.17,2.67c-.12,1-.27,2.09-.46,3.17L121.79,109h25.1l3.68-23.16a32.93,32.93,0,0,0,7.33,16.8A25.13,25.13,0,0,0,178,111.87a30.53,30.53,0,0,0,13.53-3.06,37.08,37.08,0,0,0,11.57-9L201.6,109h23.63l4.4-28q1.11,13.6,9.43,21.64,9.6,9.25,27,9.25A51.15,51.15,0,0,0,283.71,109a39.83,39.83,0,0,0,14-8.64L284.17,86.7a37.14,37.14,0,0,1-8.83,6.22,20.29,20.29,0,0,1-8.75,1.93q-6.61,0-10.06-3.51t-3.44-10.27V79.45h52L300.46,109h24.75l5.06-32.41q1.55-9.5,5.73-14T347.43,58c.75,0,1.53.05,2.32.12a49,49,0,0,0-4.16,20.62q0,14.63,7.84,23.87a25.12,25.12,0,0,0,20.07,9.25A30.57,30.57,0,0,0,387,108.81a37,37,0,0,0,11.56-9L397.13,109h23.62L425,82a32,32,0,0,0,9.73,20.29q10,9.57,26.68,9.57,18.84,0,30.8-11.53a37.77,37.77,0,0,0,10-16,32.13,32.13,0,0,0,7.53,17.72q7.88,9,20.39,9a29.91,29.91,0,0,0,13.26-2.92,32.12,32.12,0,0,0,10.79-8.75l-.91,6.11q-1.28,9.36-5.77,14t-12.38,4.61c-3.42,0-6.11-.78-8.08-2.32a9.37,9.37,0,0,1-3.45-6.61H497.41q1.83,12.87,11.21,19.51t25.77,6.64a54.23,54.23,0,0,0,20.36-3.62,37,37,0,0,0,14.8-10.44q5.76-7,9.07-29.39c.28-2,.51-3.51.7-4.64L587.83,39ZM203.43,84.9A15.76,15.76,0,0,1,191,90.7q-6.81,0-11-4.15t-4.14-11q0-8.73,4.95-14.38a16,16,0,0,1,12.62-5.66,14.76,14.76,0,0,1,10.8,4.11,14.37,14.37,0,0,1,4.18,10.72Q208.42,79.11,203.43,84.9ZM254.78,65A20.1,20.1,0,0,1,261,55.83a14.45,14.45,0,0,1,9.32-3.31,12.86,12.86,0,0,1,9.28,3.38A13.26,13.26,0,0,1,283.46,65ZM399,84.9a15.76,15.76,0,0,1-12.45,5.8q-6.83,0-11-4.15t-4.15-11q0-8.73,5-14.38A16,16,0,0,1,389,55.55a14.74,14.74,0,0,1,10.79,4.11A14.37,14.37,0,0,1,404,70.38Q404,79.11,399,84.9Zm76.27.56a16,16,0,0,1-12.83,6,13.14,13.14,0,0,1-9.92-3.87q-3.72-3.87-3.73-10.41a22.75,22.75,0,0,1,5.1-15Q459,56,466.26,56q6.48,0,10.23,3.83t3.76,10.44Q480.25,79.53,475.23,85.46Zm79.24,1a16.27,16.27,0,0,1-12.77,5.84,14,14,0,0,1-10.58-4.22,15.34,15.34,0,0,1-4-11q0-8.66,5-14.35A15.92,15.92,0,0,1,544.59,57q6.75,0,10.86,4.08a14.47,14.47,0,0,1,4.11,10.75Q559.56,80.61,554.47,86.43Z"/></g></g></svg>