<svg xmlns="http://www.w3.org/2000/svg" xmlns:xlink="http://www.w3.org/1999/xlink" viewBox="0 0 652.08 532.3"><defs><style>.cls-1{fill:url(#shadow_3);}.cls-2{fill:url(#linear-gradient);}.cls-3{opacity:0.77;fill:url(#linear-gradient-2);}.cls-4{fill:url(#shadow_3-2);}.cls-5{fill:url(#shadow_3-3);}.cls-6{opacity:0.72;}.cls-7{fill:#fff;}.cls-8{fill:url(#shadow_3-4);}.cls-9{fill:url(#shadow_3-5);}.cls-10{fill:url(#shadow_3-6);}.cls-11{fill:#202020;}.cls-12{fill:url(#tongue_2);}.cls-13{fill:url(#New_Gradient_Swatch_4);}.cls-14{fill:url(#New_Gradient_Swatch_4-2);}.cls-15{fill:url(#New_Gradient_Swatch_4-3);}.cls-16{fill:url(#linear-gradient-3);}.cls-17{fill:url(#linear-gradient-4);}.cls-18{fill:url(#linear-gradient-5);}</style><linearGradient id="shadow_3" x1="341.44" y1="480.57" x2="322.39" y2="166.89" gradientUnits="userSpaceOnUse"><stop offset="0" stop-color="#26241d"/><stop offset="1" stop-color="#4a4737"/></linearGradient><linearGradient id="linear-gradient" x1="347.11" y1="425.67" x2="301.67" y2="170.62" gradientUnits="userSpaceOnUse"><stop offset="0" stop-color="#ffca90"/><stop offset="1" stop-color="#ffdd91"/></linearGradient><linearGradient id="linear-gradient-2" x1="336.13" y1="299.6" x2="336.13" y2="436" gradientUnits="userSpaceOnUse"><stop offset="0" stop-color="#fcfbfa"/><stop offset="1" stop-color="#e2e2e2"/></linearGradient><linearGradient id="shadow_3-2" x1="354.49" y1="441.37" x2="335.43" y2="325.57" xlink:href="#shadow_3"/><linearGradient id="shadow_3-3" x1="328.12" y1="268.67" x2="335.43" y2="329.63" xlink:href="#shadow_3"/><linearGradient id="shadow_3-4" x1="421.44" y1="306.93" x2="396.52" y2="204.32" xlink:href="#shadow_3"/><linearGradient id="shadow_3-5" x1="260.16" y1="346.09" x2="235.24" y2="243.49" xlink:href="#shadow_3"/><linearGradient id="shadow_3-6" x1="348.93" y1="445.81" x2="331.34" y2="356.39" xlink:href="#shadow_3"/><linearGradient id="tongue_2" x1="335.91" y1="422.09" x2="335.91" y2="349.54" gradientUnits="userSpaceOnUse"><stop offset="0" stop-color="#ffa8bb"/><stop offset="1" stop-color="#ffb79a"/></linearGradient><linearGradient id="New_Gradient_Swatch_4" x1="28.9" y1="366.45" x2="73.91" y2="366.45" gradientTransform="translate(248.45 53.24) rotate(40.16)" gradientUnits="userSpaceOnUse"><stop offset="0" stop-color="#00e5ff" stop-opacity="0"/><stop offset="0.05" stop-color="#00e5ff" stop-opacity="0.06"/><stop offset="0.13" stop-color="#00e5ff" stop-opacity="0.2"/><stop offset="0.25" stop-color="#00e5ff" stop-opacity="0.44"/><stop offset="0.39" stop-color="#00e5ff" stop-opacity="0.77"/><stop offset="0.48" stop-color="#00e5ff"/><stop offset="0.82" stop-color="#ffa8bb"/></linearGradient><linearGradient id="New_Gradient_Swatch_4-2" x1="29.97" y1="285.59" x2="72.85" y2="285.59" gradientTransform="translate(-186.89 120) rotate(-45)" xlink:href="#New_Gradient_Swatch_4"/><linearGradient id="New_Gradient_Swatch_4-3" x1="0" y1="322.61" x2="71.18" y2="322.61" gradientTransform="translate(-41.86 7.42) rotate(-7.51)" xlink:href="#New_Gradient_Swatch_4"/><linearGradient id="linear-gradient-3" x1="628.72" y1="339.06" x2="593.8" y2="339.06" gradientTransform="translate(1297.08 203.96) rotate(139.84)" gradientUnits="userSpaceOnUse"><stop offset="0" stop-color="#00e5ff" stop-opacity="0"/><stop offset="0.03" stop-color="#00e5ff" stop-opacity="0.06"/><stop offset="0.1" stop-color="#00e5ff" stop-opacity="0.2"/><stop offset="0.19" stop-color="#00e5ff" stop-opacity="0.44"/><stop offset="0.3" stop-color="#00e5ff" stop-opacity="0.77"/><stop offset="0.37" stop-color="#00e5ff"/><stop offset="0.72" stop-color="#ffa8bb"/></linearGradient><linearGradient id="linear-gradient-4" x1="627.9" y1="276.31" x2="594.62" y2="276.31" gradientTransform="translate(848.11 903.91) rotate(-135)" xlink:href="#linear-gradient-3"/><linearGradient id="linear-gradient-5" x1="652.08" y1="305.5" x2="596.84" y2="305.5" gradientTransform="translate(1203.65 689.98) rotate(-172.49)" xlink:href="#linear-gradient-3"/></defs><title>underdog-emblem</title><g id="Layer_2" data-name="Layer 2"><g id="Layer_16" data-name="Layer 16"><path id="Outline" class="cls-1" d="M528.34,174.85l0-.23A324.59,324.59,0,0,0,477.52,48.46a330.33,330.33,0,0,0-20-26.72L439.42,0,418.53,19.06c-7.95,7.26-15.67,15-22.95,23.13a329.4,329.4,0,0,0-44.11,62.32c-4.34-.18-8.66-.26-12.92-.26a329.53,329.53,0,0,0-66.06,6.68c-3.68-5.15-7.51-10.21-11.44-15.09A330.4,330.4,0,0,0,211.33,46c-6.21-5-12.67-9.86-19.21-14.4l-24.4-16.92L153.18,40.58c-4.14,7.39-8,15-11.59,22.67A325.27,325.27,0,0,0,111.35,201c0,2.53,0,5,.09,7,.11,5.17.34,10.43.71,15.69A324.87,324.87,0,0,0,82,361.23,329.78,329.78,0,0,0,89.43,431l1.8,8.33,6.25,5.78A327,327,0,0,0,320.23,532.3c3.42,0,7-.06,11.27-.21a329.07,329.07,0,0,0,62.62-8.15,326,326,0,0,0,51.49-16.48A329.2,329.2,0,0,0,579.47,405.28l4.85-6.25.71-7.87c.92-10.06,1.38-20.13,1.38-29.93A325.93,325.93,0,0,0,528.34,174.85Z"/><path class="cls-2" d="M502.71,177.37q-.46-3.06-1-6.11A300.28,300.28,0,0,0,436.73,31Q425.68,41.1,415.66,52.24a301.94,301.94,0,0,0-48.23,72.39c-9.51-.9-19.14-1.38-28.88-1.38a301.29,301.29,0,0,0-78.07,10.24A300.13,300.13,0,0,0,240,104.76,302.87,302.87,0,0,0,194.36,59Q185.8,52.1,176.73,45.8,171,56,166.09,66.59A300,300,0,0,0,138.35,193c0,2.16,0,4.31.08,6.46q.23,10.76,1.21,21.33a301.82,301.82,0,0,0-23.82,196.5A300,300,0,0,0,320.23,497.3c3.47,0,6.92-.08,10.35-.19a302.19,302.19,0,0,0,57.49-7.48,298.93,298.93,0,0,0,47.21-15.11,301.88,301.88,0,0,0,122.86-93.8c.82-9.06,1.27-18.22,1.27-27.49A299.68,299.68,0,0,0,502.71,177.37Z"/><path class="cls-3" d="M235.26,493.08s56.42,12.11,86.39,12.11c3.59,0,7.17-.08,10.74-.2A312.77,312.77,0,0,0,392,497.23a310.55,310.55,0,0,0,49-15.67A313,313,0,0,0,561.29,393.1q3.65-4.35,7.13-8.83c.85-9.39,1.31-18.9,1.31-28.52,0-1.15,0-2.3,0-3.44a313.88,313.88,0,0,0-5-52.49A45,45,0,0,1,538,308.59c-.48,0-.94,0-1.41,0-22.43-.69-34.83-28.9-46-38.36-7.44-2.53-12.87-5.13-21.16-5.15h-.12c-1.55,0-3.08.07-4.61.16-1.45-.14-2.92-.22-4.41-.22A45,45,0,0,0,431,275.79a74,74,0,0,0-18.46,16,73.44,73.44,0,0,0-24.37.44,73.7,73.7,0,0,0-119.4,7h-.18a73.51,73.51,0,0,0-21.25,3.14c-7.68-7.51-17.62-12.54-29.18-12.67a45.25,45.25,0,0,0-58.75,27.94,45.42,45.42,0,0,0-17.14,17.54,73.68,73.68,0,0,0-13.71-1.29c-1.39,0-2.78,0-4.16.13a72.78,72.78,0,0,0-21.4,4.47q-.47,8.55-.47,17.24a316.12,316.12,0,0,0,1.84,34c.3,2.68.62,5.34,1,8q1.66,12.35,4.28,24.37,7.47,6.92,15.4,13.34l.66,1.07c8.85,7.76,27.84,21.78,27.84,21.78C181.92,474.24,209.62,487.56,235.26,493.08Z"/><path class="cls-4" d="M448.6,331a28.21,28.21,0,0,0-5.12-4.25,114.19,114.19,0,0,1-41.43,17.11c-1.87.37-3.76.7-5.67,1A115.84,115.84,0,0,1,379.72,346a114.61,114.61,0,0,1-42.43-8.09V309.13h-8v31.4a115.17,115.17,0,0,1-101.75,9.27c-.08,1-.13,2.07-.13,3.11a43.4,43.4,0,0,0,11.69,29.69c3.54,1.81,7.16,3.5,10.83,5.08a186.37,186.37,0,0,0,170.17-12.06c3.94-2.4,7.79-5,11.54-7.64a188.64,188.64,0,0,0,15.62-12.53A27.31,27.31,0,0,0,448.6,331Z"/><path class="cls-5" d="M368.05,285.52a47.94,47.94,0,0,0-75.45,3,48,48,0,0,0,37.61,41.72A48,48,0,0,0,368.05,285.52Z"/><g class="cls-6"><path class="cls-7" d="M399.43,138.93c3.47-.32,7-.49,10.51-.49a114.43,114.43,0,0,1,65,20.14,114.66,114.66,0,0,0-33.68-76.91A115.22,115.22,0,0,0,399.43,138.93Z"/><path class="cls-7" d="M164,198.49a115.08,115.08,0,0,1,69.48-46.61A115.21,115.21,0,0,0,179,114a114.43,114.43,0,0,0-17.4,60.82A115.6,115.6,0,0,0,164,198.49Z"/><path class="cls-7" d="M258.42,214.52A27.31,27.31,0,0,0,301,227.67a27.81,27.81,0,0,0,.39-4.6,27.31,27.31,0,0,0-22.15-26.82A27.34,27.34,0,0,0,258.42,214.52Z"/><path class="cls-7" d="M338.55,215.72a27.3,27.3,0,0,0-.39,4.55,27.58,27.58,0,0,0,.67,6,27.11,27.11,0,0,0,14.3,4.74A27.39,27.39,0,0,1,338.55,215.72Z"/><path class="cls-7" d="M381.57,203.72a27.51,27.51,0,0,0-.67-6,27.31,27.31,0,0,0-42.35,18A27.39,27.39,0,0,0,353.13,231c.37,0,.74,0,1.12,0A27.33,27.33,0,0,0,381.57,203.72Z"/></g><path class="cls-8" d="M393.93,229.23c-2.76,1.16-5.48,2.38-8.18,3.67q-5.91,2.83-11.6,6.07c-2.69,1.52-5.33,3.12-7.94,4.77a16,16,0,0,0,25.66,7.82,18,18,0,0,0,1.85-1.85q3.73-3.68,7.69-7.15a186.64,186.64,0,0,1,38-25.9A184.94,184.94,0,0,0,393.93,229.23Z"/><path class="cls-9" d="M252.62,247.18q-5.76-1.85-11.66-3.34c-1.47-.37-2.94-.72-4.42-1.05q-5.7-1.29-11.52-2.21-8.62-1.38-17.49-2a15.86,15.86,0,0,0-1.73,12.85c5.33.81,10.58,1.87,15.75,3.12q5.76,1.41,11.38,3.14,2.55.79,5.06,1.67,4.89,1.68,9.63,3.62,6.31,2.57,12.39,5.58a16,16,0,0,0,9.07-14.39c0-.3,0-.58-.05-.88Q261,249.89,252.62,247.18Z"/><path class="cls-10" d="M335.11,447.78a80.18,80.18,0,0,1-41.65-11.63l-1.42-.87-1-1.3a80.33,80.33,0,0,1-15.53-66.27l.86-4.13,3.7-2a124.35,124.35,0,0,1,112.11-4l3.92,1.81,1.12,4.17a80.28,80.28,0,0,1-10.56,65l-.82,1.25-1.18.92A79.48,79.48,0,0,1,335.11,447.78Z"/><path class="cls-11" d="M378,420.65a71,71,0,0,0,9.34-57.53,115.13,115.13,0,0,0-103.78,3.72,71,71,0,0,0,13.75,58.66A71,71,0,0,0,378,420.65Z"/><path class="cls-12" d="M378,420.65a71,71,0,0,0,9.34-57.53,115.13,115.13,0,0,0-103.78,3.72,71,71,0,0,0,13.75,58.66A71,71,0,0,0,378,420.65Z"/><rect class="cls-13" x="24.51" y="358.2" width="53.8" height="16.49" rx="8.25" transform="translate(-224.21 119.55) rotate(-40.16)"/><rect class="cls-14" x="24.51" y="277.35" width="53.8" height="16.49" rx="8.25" transform="translate(217 47.3) rotate(45)"/><rect class="cls-15" x="-0.24" y="314.36" width="71.65" height="16.49" rx="8.25" transform="translate(42.47 -1.88) rotate(7.51)"/><rect class="cls-16" x="590.38" y="332.66" width="41.75" height="12.8" rx="6.4" transform="translate(859.75 992.4) rotate(-139.84)"/><rect class="cls-17" x="590.38" y="269.91" width="41.75" height="12.8" rx="6.4" transform="translate(1238.86 39.46) rotate(135)"/><rect class="cls-18" x="596.66" y="299.1" width="55.61" height="12.8" rx="6.4" transform="translate(1283.5 526.76) rotate(172.49)"/></g></g></svg>