<?xml version="1.0" encoding="UTF-8"?>
<svg width="1783px" height="534px" viewBox="0 0 1783 534" version="1.1" xmlns="http://www.w3.org/2000/svg" xmlns:xlink="http://www.w3.org/1999/xlink">
    <!-- Generator: Sketch 55.1 (78136) - https://sketchapp.com -->
    <title>long</title>
    <desc>Created with Sketch.</desc>
    <defs>
        <linearGradient x1="51.3005795%" y1="90.281745%" x2="47.8762078%" y2="31.352603%" id="linearGradient-1">
            <stop stop-color="#26241D" offset="0%"></stop>
            <stop stop-color="#4A4737" offset="100%"></stop>
        </linearGradient>
        <linearGradient x1="52.7091201%" y1="84.6385865%" x2="43.1810255%" y2="29.9420768%" id="linearGradient-2">
            <stop stop-color="#FFCA90" offset="0%"></stop>
            <stop stop-color="#FFDD91" offset="100%"></stop>
        </linearGradient>
        <linearGradient x1="50%" y1="14.3981591%" x2="50%" y2="71.1912478%" id="linearGradient-3">
            <stop stop-color="#FCFBFA" offset="0%"></stop>
            <stop stop-color="#E2E2E2" offset="100%"></stop>
        </linearGradient>
        <linearGradient x1="56.87057%" y1="66.0578036%" x2="48.3408821%" y2="44.2940029%" id="linearGradient-4">
            <stop stop-color="#26241D" offset="0%"></stop>
            <stop stop-color="#4A4737" offset="100%"></stop>
        </linearGradient>
        <linearGradient x1="47.0775348%" y1="17.4423076%" x2="56.7660702%" y2="81.9858504%" id="linearGradient-5">
            <stop stop-color="#26241D" offset="0%"></stop>
            <stop stop-color="#4A4737" offset="100%"></stop>
        </linearGradient>
        <linearGradient x1="75.4508197%" y1="100.570187%" x2="41.4071038%" y2="27.4312824%" id="linearGradient-6">
            <stop stop-color="#26241D" offset="0%"></stop>
            <stop stop-color="#4A4737" offset="100%"></stop>
        </linearGradient>
        <linearGradient x1="86.0472373%" y1="115.696439%" x2="47.0670976%" y2="42.8424113%" id="linearGradient-7">
            <stop stop-color="#26241D" offset="0%"></stop>
            <stop stop-color="#4A4737" offset="100%"></stop>
        </linearGradient>
        <linearGradient x1="59.5590475%" y1="80.8191516%" x2="45.6165595%" y2="24.4040235%" id="linearGradient-8">
            <stop stop-color="#26241D" offset="0%"></stop>
            <stop stop-color="#4A4737" offset="100%"></stop>
        </linearGradient>
        <linearGradient x1="50.0124318%" y1="83.5259105%" x2="50.0124318%" y2="-3.60338158%" id="linearGradient-9">
            <stop stop-color="#FFA8BB" offset="0%"></stop>
            <stop stop-color="#FFB79A" offset="100%"></stop>
        </linearGradient>
        <linearGradient x1="18.0189829%" y1="41.6514709%" x2="81.9571483%" y2="58.3547987%" id="linearGradient-10">
            <stop stop-color="#00E5FF" stop-opacity="0" offset="0%"></stop>
            <stop stop-color="#00E5FF" stop-opacity="0.06" offset="5%"></stop>
            <stop stop-color="#00E5FF" stop-opacity="0.2" offset="13%"></stop>
            <stop stop-color="#00E5FF" stop-opacity="0.44" offset="25%"></stop>
            <stop stop-color="#00E5FF" stop-opacity="0.77" offset="39%"></stop>
            <stop stop-color="#00E5FF" offset="48%"></stop>
            <stop stop-color="#FFA8BB" offset="82%"></stop>
        </linearGradient>
        <linearGradient x1="21.8115537%" y1="58.7336268%" x2="78.1698042%" y2="41.2609171%" id="linearGradient-11">
            <stop stop-color="#00E5FF" stop-opacity="0" offset="0%"></stop>
            <stop stop-color="#00E5FF" stop-opacity="0.06" offset="5%"></stop>
            <stop stop-color="#00E5FF" stop-opacity="0.2" offset="13%"></stop>
            <stop stop-color="#00E5FF" stop-opacity="0.44" offset="25%"></stop>
            <stop stop-color="#00E5FF" stop-opacity="0.77" offset="39%"></stop>
            <stop stop-color="#00E5FF" offset="48%"></stop>
            <stop stop-color="#FFA8BB" offset="82%"></stop>
        </linearGradient>
        <linearGradient x1="0.760472563%" y1="51.4910693%" x2="99.2523394%" y2="48.5128279%" id="linearGradient-12">
            <stop stop-color="#00E5FF" stop-opacity="0" offset="0%"></stop>
            <stop stop-color="#00E5FF" stop-opacity="0.06" offset="5%"></stop>
            <stop stop-color="#00E5FF" stop-opacity="0.2" offset="13%"></stop>
            <stop stop-color="#00E5FF" stop-opacity="0.44" offset="25%"></stop>
            <stop stop-color="#00E5FF" stop-opacity="0.77" offset="39%"></stop>
            <stop stop-color="#00E5FF" offset="48%"></stop>
            <stop stop-color="#FFA8BB" offset="82%"></stop>
        </linearGradient>
        <linearGradient x1="18.0477469%" y1="58.3450943%" x2="81.9698698%" y2="41.6415909%" id="linearGradient-13">
            <stop stop-color="#00E5FF" stop-opacity="0" offset="0%"></stop>
            <stop stop-color="#00E5FF" stop-opacity="0.06" offset="3%"></stop>
            <stop stop-color="#00E5FF" stop-opacity="0.2" offset="10%"></stop>
            <stop stop-color="#00E5FF" stop-opacity="0.44" offset="19%"></stop>
            <stop stop-color="#00E5FF" stop-opacity="0.77" offset="30%"></stop>
            <stop stop-color="#00E5FF" offset="37%"></stop>
            <stop stop-color="#FFA8BB" offset="72%"></stop>
        </linearGradient>
        <linearGradient x1="21.8403037%" y1="41.2552423%" x2="78.2056059%" y2="58.7347068%" id="linearGradient-14">
            <stop stop-color="#00E5FF" stop-opacity="0" offset="0%"></stop>
            <stop stop-color="#00E5FF" stop-opacity="0.06" offset="3%"></stop>
            <stop stop-color="#00E5FF" stop-opacity="0.2" offset="10%"></stop>
            <stop stop-color="#00E5FF" stop-opacity="0.44" offset="19%"></stop>
            <stop stop-color="#00E5FF" stop-opacity="0.77" offset="30%"></stop>
            <stop stop-color="#00E5FF" offset="37%"></stop>
            <stop stop-color="#FFA8BB" offset="72%"></stop>
        </linearGradient>
        <linearGradient x1="0.777044631%" y1="48.5042786%" x2="99.2596105%" y2="51.4826179%" id="linearGradient-15">
            <stop stop-color="#00E5FF" stop-opacity="0" offset="0%"></stop>
            <stop stop-color="#00E5FF" stop-opacity="0.06" offset="3%"></stop>
            <stop stop-color="#00E5FF" stop-opacity="0.2" offset="10%"></stop>
            <stop stop-color="#00E5FF" stop-opacity="0.44" offset="19%"></stop>
            <stop stop-color="#00E5FF" stop-opacity="0.77" offset="30%"></stop>
            <stop stop-color="#00E5FF" offset="37%"></stop>
            <stop stop-color="#FFA8BB" offset="72%"></stop>
        </linearGradient>
        <linearGradient x1="51.5292352%" y1="89.9998823%" x2="48.0972112%" y2="32.7512518%" id="linearGradient-16">
            <stop stop-color="#62C5E3" offset="0%"></stop>
            <stop stop-color="#62C5E3" offset="37%"></stop>
            <stop stop-color="#F4A6BB" offset="72%"></stop>
        </linearGradient>
        <linearGradient x1="55.6078243%" y1="110.620786%" x2="50.2501479%" y2="37.4720871%" id="linearGradient-17">
            <stop stop-color="#62C5E3" offset="0%"></stop>
            <stop stop-color="#62C5E3" offset="37%"></stop>
            <stop stop-color="#F4A6BB" offset="72%"></stop>
        </linearGradient>
        <linearGradient x1="50.898847%" y1="79.8092115%" x2="47.4668858%" y2="22.5611055%" id="linearGradient-18">
            <stop stop-color="#62C5E3" offset="0%"></stop>
            <stop stop-color="#62C5E3" offset="37%"></stop>
            <stop stop-color="#F4A6BB" offset="72%"></stop>
        </linearGradient>
        <linearGradient x1="50.6072055%" y1="74.6048383%" x2="47.1741592%" y2="17.3567322%" id="linearGradient-19">
            <stop stop-color="#62C5E3" offset="0%"></stop>
            <stop stop-color="#62C5E3" offset="37%"></stop>
            <stop stop-color="#F4A6BB" offset="72%"></stop>
        </linearGradient>
        <linearGradient x1="53.1224339%" y1="94.9775112%" x2="47.6790444%" y2="16.2293853%" id="linearGradient-20">
            <stop stop-color="#62C5E3" offset="0%"></stop>
            <stop stop-color="#62C5E3" offset="37%"></stop>
            <stop stop-color="#F4A6BB" offset="72%"></stop>
        </linearGradient>
        <linearGradient x1="52.1637587%" y1="90.8731429%" x2="47.4164076%" y2="9.62091085%" id="linearGradient-21">
            <stop stop-color="#62C5E3" offset="0%"></stop>
            <stop stop-color="#62C5E3" offset="37%"></stop>
            <stop stop-color="#F4A6BB" offset="72%"></stop>
        </linearGradient>
        <linearGradient x1="-67.673282%" y1="110.501705%" x2="-170.548204%" y2="173.157331%" id="linearGradient-22">
            <stop stop-color="#F6F6F6" offset="0%"></stop>
            <stop stop-color="#EDEDED" offset="100%"></stop>
        </linearGradient>
        <linearGradient x1="-222.219533%" y1="182.92913%" x2="-382.472817%" y2="262.832515%" id="linearGradient-23">
            <stop stop-color="#F6F6F6" offset="0%"></stop>
            <stop stop-color="#EDEDED" offset="100%"></stop>
        </linearGradient>
        <linearGradient x1="-166.863939%" y1="170.728988%" x2="-269.86699%" y2="233.356739%" id="linearGradient-24">
            <stop stop-color="#F6F6F6" offset="0%"></stop>
            <stop stop-color="#EDEDED" offset="100%"></stop>
        </linearGradient>
        <linearGradient x1="-216.7838%" y1="201.387453%" x2="-319.466605%" y2="263.947408%" id="linearGradient-25">
            <stop stop-color="#F6F6F6" offset="0%"></stop>
            <stop stop-color="#EDEDED" offset="100%"></stop>
        </linearGradient>
        <linearGradient x1="-462.240284%" y1="321.594311%" x2="-624.57346%" y2="407.55988%" id="linearGradient-26">
            <stop stop-color="#F6F6F6" offset="0%"></stop>
            <stop stop-color="#EDEDED" offset="100%"></stop>
        </linearGradient>
        <linearGradient x1="-460.050181%" y1="360.215875%" x2="-602.276179%" y2="449.016331%" id="linearGradient-27">
            <stop stop-color="#F6F6F6" offset="0%"></stop>
            <stop stop-color="#EDEDED" offset="100%"></stop>
        </linearGradient>
    </defs>
    <g id="Page-1" stroke="none" stroke-width="1" fill="none" fill-rule="evenodd">
        <g id="long-light" transform="translate(-47.000000, -93.000000)">
            <g id="long-white-text" transform="translate(46.000000, 93.000000)">
                <g id="Group-2">
                    <g id="underdog-emblem" fill-rule="nonzero">
                        <path d="M533.889261,175.402186 L533.889261,175.17146 C525.985895,129.858415 508.526512,86.725491 482.660831,48.6130393 C476.398742,39.3458789 469.66991,30.3996683 462.500095,21.8086561 L444.254629,0 L423.19674,19.1201925 C415.182847,26.40312 407.400803,34.1675634 400.062295,42.3232383 C382.855841,61.3765379 367.934129,82.3563708 355.597792,104.840048 C351.222912,104.65948 346.868193,104.579227 342.573956,104.579227 C320.206891,104.576147 297.896701,106.821239 275.983045,111.280323 C272.27347,106.114059 268.412689,101.038079 264.451104,96.142668 C249.5815,77.748126 232.779618,60.9872069 214.331514,46.1452705 C208.071606,41.1294803 201.559688,36.2541321 194.967128,31.6997945 L170.37103,14.7263602 L155.714174,40.7081539 C151.540902,48.1214919 147.64988,55.7555247 144.031028,63.449747 C123.837293,106.738601 113.431729,153.908878 113.547995,201.634769 C113.547995,204.172759 113.547995,206.650559 113.638718,208.656875 C113.749602,213.843203 113.981451,219.119814 114.354424,224.396425 C94.2097165,267.623736 83.8353021,314.721282 83.9609662,362.370784 C83.9505405,385.899568 86.4613188,409.362445 91.4518283,432.361122 L93.2662946,440.717428 L99.5665246,446.515682 C160.626944,502.845551 240.845957,534.093337 324.106722,533.981334 C327.554208,533.981334 331.16298,533.920843 335.467297,533.77037 C356.723098,533.065179 377.86149,530.32733 398.590561,525.594631 C416.321945,521.523574 433.682899,515.993882 450.494376,509.062587 C503.642477,487.115244 550.142533,451.791922 585.430183,406.559897 L590.319161,400.290159 L591.034867,392.395305 C591.962261,382.303535 592.426689,372.201733 592.426689,362.370784 C592.567533,295.559947 572.138726,230.309504 533.889261,175.402186 L533.889261,175.402186 Z" id="Outline" fill="url(#linearGradient-1)"></path>
                        <path d="M507.243428,177.564341 C506.934042,175.518679 506.597752,173.47636 506.23456,171.437383 C497.105737,119.671218 474.504756,71.1813979 440.678296,30.788113 C433.246299,37.5401336 426.16068,44.6397831 419.42144,52.0870614 C399.762229,73.8228503 383.372956,98.2734856 370.76372,124.677969 C361.169383,123.775471 351.453981,123.294139 341.627603,123.294139 C315.034611,123.27764 288.554423,126.72992 262.865253,133.562558 C256.552388,123.5649 249.653263,113.945036 242.203629,104.752823 C228.545902,87.8685814 213.109789,72.4853536 196.158879,58.8658227 C190.401603,54.2530561 184.472821,49.8408446 178.37253,45.6291881 C174.518653,52.4480605 170.940533,59.3972936 167.638171,66.4768876 C149.142065,106.203431 139.591188,149.463518 139.652164,193.237719 C139.652164,195.403714 139.652164,197.559681 139.732873,199.715648 C139.887566,206.90889 140.294476,214.038623 140.953604,221.104846 C110.886417,282.234175 102.420511,351.650782 116.92236,418.150202 C172.997667,469.82858 246.675302,498.493252 323.145135,498.382579 C326.645908,498.382579 330.126504,498.302036 333.586922,498.19173 C353.117373,497.544841 372.540011,495.033032 391.586763,490.690971 C407.857633,486.959654 423.788615,481.891589 439.215436,475.539035 C488.044478,455.409001 530.761335,422.9929 563.164999,381.478708 C563.992271,372.393563 564.446602,363.208141 564.446602,353.912413 C564.541705,290.608376 544.522197,228.891126 507.243428,177.564341 Z" id="Path" fill="url(#linearGradient-2)"></path>
                        <path d="M237.985762,495.827095 C237.985762,495.827095 294.845013,508.003864 325.048341,508.003864 C328.666291,508.003864 332.274162,507.923423 335.871956,507.802761 C356.101295,507.132309 376.218882,504.519315 395.946043,499.999976 C412.814966,496.119544 429.332119,490.849333 445.327526,484.243579 C492.33642,464.785954 533.928646,434.268419 566.55403,395.295849 C569.006307,392.37986 571.401477,389.420298 573.73954,386.417164 C574.596157,376.975392 575.059738,367.412958 575.059738,357.739917 C575.059738,356.583577 575.059738,355.427236 575.059738,354.280951 C574.866734,336.577945 573.181146,318.92253 570.020811,301.501544 C562.216738,307.237839 552.775873,310.328365 543.082708,310.319898 C542.598971,310.319898 542.13539,310.319898 541.661731,310.319898 C519.057105,309.626093 506.560566,281.260556 495.303603,271.748397 C487.80568,269.204448 482.333406,266.590113 473.978865,266.570003 L473.85793,266.570003 C472.295863,266.570003 470.753951,266.640389 469.21204,266.730885 C467.750751,266.590113 466.269307,266.509603 464.767706,266.509603 C453.948679,266.490841 443.479342,270.331763 435.249673,277.339053 C428.197955,281.636436 421.911069,287.073241 416.645954,293.42727 C408.491828,292.208796 400.190953,292.35833 392.086225,293.869696 C377.017399,275.381951 353.957424,265.252051 330.115053,266.646694 C306.272682,268.041337 284.557048,280.790355 271.75665,300.908291 L271.575249,300.908291 C264.32033,300.908802 257.104832,301.972595 250.15981,304.065603 C242.420018,296.514197 232.402631,291.456463 220.752632,291.325747 C209.17794,287.002255 196.340111,287.551423 185.17878,292.847501 C174.017449,298.14358 165.488619,307.732942 161.545241,319.419795 C154.275541,323.607215 148.299888,329.708538 144.2718,337.056503 C139.716904,336.194725 135.091127,335.760458 130.455062,335.759391 C129.05424,335.759391 127.653419,335.759391 126.262675,335.890108 C118.887996,336.29636 111.617119,337.811667 104.696068,340.384753 C104.380295,346.116181 104.222409,351.894532 104.222409,357.719807 C104.222409,369.14059 104.843511,380.552961 106.076734,391.907268 C106.379069,394.602045 106.701561,397.276711 107.084519,399.951377 C108.199802,408.230105 109.637575,416.398227 111.397841,424.455742 C116.416612,429.094511 121.58991,433.565695 126.917735,437.869293 L127.582874,438.945193 C136.501774,446.747978 155.639619,460.845278 155.639619,460.845278 C184.23049,476.883219 212.146145,490.27666 237.985762,495.827095 Z" id="Path" fill="url(#linearGradient-3)" opacity="0.77"></path>
                        <path d="M453.142258,331.836161 C451.599965,330.210606 449.870958,328.773531 447.991309,327.554918 C435.371492,336.000981 421.205134,341.859085 406.310882,344.7907 C404.429579,345.16342 402.528154,345.495846 400.606609,345.798052 C395.054575,346.584086 389.453123,346.967876 383.845907,346.946432 C369.229838,346.963533 354.743795,344.197935 341.159435,338.79696 L341.159435,309.805387 L333.111078,309.805387 L333.111078,341.43622 C302.310842,360.362804 264.454999,363.816165 230.746042,350.774367 C230.665558,351.781719 230.615216,352.859585 230.615216,353.90723 C230.600363,365.010294 234.805035,375.703096 242.375917,383.815493 C245.937315,385.638799 249.579196,387.341223 253.27138,388.932838 C308.947646,412.808188 372.713031,408.283245 424.469987,376.78418 C428.433803,374.366537 432.307074,371.747423 436.079741,369.088016 C441.537365,365.16219 446.782892,360.948885 451.794158,356.465903 C456.100127,348.929045 456.599854,339.79906 453.142258,331.836161 Z" id="Path" fill="url(#linearGradient-4)"></path>
                        <path d="M372.445314,286.298416 C362.807256,275.068418 348.479477,268.848688 333.596137,269.433875 C318.712797,270.019062 304.929646,277.344065 296.223697,289.295316 C298.488375,309.830029 313.797371,326.622702 334.218329,330.972214 C355.738142,326.387553 371.434825,308.043693 372.445314,286.298416 Z" id="Path" fill="url(#linearGradient-5)"></path>
                        <g id="Group" opacity="0.72" transform="translate(163.077075, 80.818797)" fill="#FFFFFF">
                            <path d="M240.301322,57.9218354 C243.798557,57.6018805 247.356262,57.4319045 250.89381,57.4319045 C274.283631,57.3985483 297.130821,64.4215444 316.403964,77.569066 C315.296453,48.6002848 303.167753,21.1233364 282.459626,0.669905571 C262.689596,14.8826061 247.937978,34.9156376 240.301322,57.9218354 L240.301322,57.9218354 Z" id="Path"></path>
                            <path d="M3.02354555,117.473441 C19.6449568,93.7732776 44.6400984,77.1384455 73.0488606,70.8700102 C58.886366,53.1763062 39.7917351,40.0050358 18.1412733,32.995349 C6.65187132,51.2282773 0.574076232,72.3042072 0.604467282,93.8067771 C0.588380907,101.7572 1.3989514,109.688079 3.02354555,117.473441 L3.02354555,117.473441 Z" id="Path"></path>
                            <path d="M98.1846026,133.501182 C100.966585,141.914594 107.688004,148.467441 116.21587,151.080228 C124.743735,153.693015 134.01921,152.041332 141.098793,146.649328 C141.358075,145.129668 141.489548,143.591252 141.491853,142.049977 C141.492771,128.957837 132.127067,117.707409 119.168009,115.233757 C109.351791,117.097032 101.322126,124.08738 98.1846026,133.501182 Z" id="Path"></path>
                            <path d="M178.943504,134.701013 C178.684642,136.203914 178.553162,137.725689 178.550443,139.250371 C178.553568,141.268579 178.78001,143.280347 179.225702,145.249526 C183.481961,148.14841 188.479003,149.791642 193.637936,149.988858 C186.87609,147.047492 181.583753,141.541431 178.943504,134.701013 Z" id="Path"></path>
                            <path d="M222.301148,122.702704 C222.298593,120.684465 222.072144,118.672635 221.625889,116.70355 C213.876565,111.444155 203.959388,110.466502 195.318308,114.110101 C186.677229,117.753701 180.504414,125.515863 178.943504,134.701013 C181.586012,141.537661 186.878056,147.039816 193.637936,149.978859 C194.01084,149.978859 194.383744,149.978859 194.766726,149.978859 C209.955541,149.973371 222.273361,137.771089 222.301148,122.702704 Z" id="Path"></path>
                        </g>
                        <path d="M398.283793,229.958913 C395.519,231.114102 392.794276,232.329042 390.089587,233.613692 C386.142745,235.492533 382.269363,237.507475 378.469442,239.658516 C375.77477,241.172212 373.130185,242.765576 370.515652,244.408732 C372.018872,249.589001 376.055276,253.662181 381.243082,255.233901 C386.430888,256.805622 392.066325,255.662665 396.220216,252.196298 C396.882089,251.627692 397.501462,251.011957 398.073429,250.353971 C400.564414,247.910813 403.132199,245.537365 405.776784,243.233626 C417.34741,233.109005 430.133104,224.445734 443.842778,217.441048 C428.181105,219.662733 412.870191,223.869586 398.283793,229.958913 L398.283793,229.958913 Z" id="Path" fill="url(#linearGradient-6)"></path>
                        <path d="M255.459187,248.125823 C251.576321,246.898826 247.646267,245.791212 243.669025,244.802982 C242.182615,244.434883 240.696205,244.086681 239.199684,243.758376 C235.357264,242.902794 231.474398,242.169912 227.551085,241.55973 C221.740267,240.644456 215.845186,239.981214 209.865842,239.570004 C207.458099,243.391479 206.821729,248.042076 208.11653,252.35399 C213.506029,253.159829 218.814635,254.214383 224.042349,255.457962 C227.925215,256.393133 231.760894,257.434422 235.549385,258.581831 C237.268362,259.105792 238.973858,259.659599 240.66587,260.243251 C243.962262,261.357498 247.208096,262.557965 250.403371,263.844655 C254.656998,265.549186 258.833101,267.399631 262.931682,269.395989 C268.527278,266.750454 272.090765,261.187945 272.102932,255.079914 C272.102932,254.781455 272.102932,254.502894 272.052374,254.204435 C266.639281,251.949413 261.108218,249.923209 255.459187,248.125823 Z" id="Path" fill="url(#linearGradient-7)"></path>
                        <path d="M337.864182,449.314024 C323.038447,449.324222 308.494455,445.287574 295.819173,437.643721 L294.385706,436.770768 L293.376222,435.466354 C278.494412,416.706019 272.752172,392.350386 277.698936,368.971365 L278.567092,364.827343 L282.302183,362.820553 C317.24186,343.684081 359.252511,342.194214 395.475433,358.806973 L399.432611,360.623118 L400.563233,364.807275 C406.55678,387.06242 402.676393,410.80331 389.903082,430.027953 L389.075305,431.282197 L387.884114,432.20532 C373.635864,443.364292 356.003764,449.394847 337.864182,449.314024 L337.864182,449.314024 Z" id="Path" fill="url(#linearGradient-8)"></path>
                        <path d="M381.767218,421.569109 C393.105219,404.523785 396.546324,383.469292 391.219282,363.736407 C357.600896,348.337895 318.616317,349.725997 286.194104,367.47598 C281.790255,388.209483 286.888518,409.814816 300.10908,426.444628 C325.694049,441.872248 358.22676,439.929835 381.767218,421.569109 L381.767218,421.569109 Z" id="Path" fill="#202020"></path>
                        <path d="M381.767218,421.569109 C393.105219,404.523785 396.546324,383.469292 391.219282,363.736407 C357.600896,348.337895 318.616317,349.725997 286.194104,367.47598 C281.790255,388.209483 286.888518,409.814816 300.10908,426.444628 C325.694049,441.872248 358.22676,439.929835 381.767218,421.569109 L381.767218,421.569109 Z" id="Path" fill="url(#linearGradient-9)"></path>
                        <path d="M31.7521085,359.45612 L73.9980261,359.53689 C77.2677392,359.543141 79.91681,362.192209 79.9230655,365.461922 L79.932065,370.165946 C79.9383374,373.444524 77.2856102,376.10742 74.007033,376.113693 C73.999464,376.113707 73.991895,376.113707 73.984326,376.113693 L31.7384084,376.032923 C28.4686953,376.026671 25.8196245,373.377604 25.8133691,370.107891 L25.8043696,365.403866 C25.7980972,362.125289 28.4508243,359.462392 31.7294015,359.45612 C31.7369705,359.456106 31.7445395,359.456106 31.7521085,359.45612 Z" id="Rectangle" fill="url(#linearGradient-10)" transform="translate(52.868217, 367.784906) rotate(-40.160000) translate(-52.868217, -367.784906) "></path>
                        <path d="M31.7441153,278.38975 L73.9723818,278.307821 C77.2509588,278.30146 79.9139272,280.954116 79.9202881,284.232693 C79.920303,284.240371 79.920303,284.248049 79.9202881,284.255728 L79.9111511,288.96516 C79.9048076,292.234745 77.2558647,294.883688 73.9862798,294.890031 L31.7580132,294.97196 C28.4794362,294.978321 25.8164679,292.325666 25.810107,289.047089 C25.8100921,289.03941 25.8100921,289.031732 25.810107,289.024054 L25.8192439,284.314622 C25.8255874,281.045037 28.4745304,278.396094 31.7441153,278.38975 Z" id="Rectangle" fill="url(#linearGradient-11)" transform="translate(52.865198, 286.639891) rotate(45.000000) translate(-52.865198, -286.639891) "></path>
                        <path d="M6.76611124,315.524453 L67.079933,315.494184 C70.3585158,315.492539 73.0176661,318.149022 73.0193115,321.427604 C73.0193125,321.429594 73.0193125,321.431584 73.0193115,321.433574 L73.0169547,326.11207 C73.0153043,329.388322 70.3597865,332.043835 67.0835347,332.045479 L6.76971295,332.075748 C3.49113017,332.077394 0.831979843,329.420911 0.830334455,326.142328 C0.830333456,326.140338 0.830333458,326.138348 0.83033446,326.136359 L0.832691234,321.457862 C0.834341633,318.18161 3.48985953,315.526098 6.76611124,315.524453 Z" id="Rectangle" fill="url(#linearGradient-12)" transform="translate(36.924823, 323.784966) rotate(7.510000) translate(-36.924823, -323.784966) "></path>
                        <path d="M600.557581,333.895351 L633.338913,333.832677 C635.883837,333.827811 637.950849,335.886935 637.955715,338.431858 C637.955726,338.437733 637.955726,338.443609 637.955715,338.449484 L637.948729,342.100879 C637.943874,344.638922 635.887591,346.695203 633.349548,346.700055 L600.568216,346.76273 C598.023292,346.767595 595.95628,344.708472 595.951414,342.163548 C595.951403,342.157673 595.951403,342.151798 595.951414,342.145922 L595.9584,338.494527 C595.963255,335.956484 598.019538,333.900204 600.557581,333.895351 Z" id="Rectangle" fill="url(#linearGradient-13)" transform="translate(616.953564, 340.297703) rotate(-139.840000) translate(-616.953564, -340.297703) "></path>
                        <path d="M600.563257,270.841778 L633.330891,270.905352 C635.868835,270.910276 637.925018,272.966459 637.929942,275.504403 L637.937035,279.159996 C637.941972,281.704919 635.882907,283.77199 633.337984,283.776927 C633.332023,283.776939 633.326063,283.776939 633.320103,283.776927 L600.552469,283.713353 C598.014525,283.708429 595.958342,281.652246 595.953418,279.114302 L595.946325,275.458709 C595.941388,272.913786 598.000453,270.846715 600.545376,270.841778 C600.551337,270.841766 600.557297,270.841766 600.563257,270.841778 Z" id="Rectangle" fill="url(#linearGradient-14)" transform="translate(616.941680, 277.309353) rotate(135.000000) translate(-616.941680, -277.309353) "></path>
                        <path d="M606.843973,300.176075 L653.654023,300.199567 C656.197141,300.200843 658.258429,302.262127 658.25971,304.805245 L658.261539,308.436767 C658.262821,310.981695 656.200789,313.045806 653.655861,313.047088 C653.654316,313.047088 653.652772,313.047088 653.651227,313.047088 L606.841177,313.023596 C604.298059,313.022319 602.236771,310.961036 602.23549,308.417917 L602.233661,304.786395 C602.232379,302.241468 604.294411,300.177357 606.839339,300.176075 C606.840884,300.176074 606.842428,300.176074 606.843973,300.176075 Z" id="Rectangle" fill="url(#linearGradient-15)" transform="translate(630.247600, 306.611581) rotate(172.490000) translate(-630.247600, -306.611581) "></path>
                    </g>
                    <g id="text-light" transform="translate(678.000000, 151.000000)">
                        <g id="pupper-text-light" transform="translate(20.791837, 25.486792)">
                            <path d="M50.6878377,3.71166335 L101.640019,3.71166335 L98.9304994,16.9676039 C111.525275,5.97517713 127.849944,0.25664635 144.529728,0.99419554 C183.3882,0.99419554 209.029506,34.5317251 209.029506,75.8902596 C209.029506,134.812915 171.228406,176.834247 122.2588,176.834247 C93.9079758,176.834247 75.3378553,160.860838 70.2492458,151.382841 L51.0182669,244.174425 L0,244.174425 L50.6878377,3.71166335 Z M158.077324,80.927517 C158.077324,59.2540542 146.908818,45.0701978 125.034405,45.0701978 C100.053959,45.0701978 81.8142674,66.7436606 81.8142674,94.514856 C81.8142674,116.188319 92.9166882,130.438455 114.857186,130.438455 C139.837633,130.438455 158.077324,108.698712 158.077324,80.927517 Z" id="Shape" fill="url(#linearGradient-16)" fill-rule="nonzero"></path>
                            <path d="M215.043317,97.5637224 L234.869068,3.71166335 L285.887335,3.71166335 L266.061584,96.9009253 C261.633833,117.513913 270.423249,130.040777 287.341224,130.040777 C307.166975,130.040777 319.723284,116.784836 325.472752,88.7485219 L343.646357,3.71166335 L394.664624,3.71166335 L358.912186,173.056304 L307.893919,173.056304 L311.264297,156.486378 C300.583231,169.685037 284.318649,177.05505 267.3833,176.370289 C226.542253,176.502848 207.245188,134.812915 215.043317,97.5637224 Z" id="Path" fill="url(#linearGradient-17)" fill-rule="nonzero"></path>
                            <path d="M406.16356,3.71166335 L457.181827,3.71166335 L454.472308,16.9676039 C467.06014,5.96318865 483.389744,0.242928818 500.071536,0.99419554 C538.930009,0.99419554 564.571314,34.5317251 564.571314,75.8902596 C564.571314,134.812915 526.770214,176.834247 477.800609,176.834247 C449.383698,176.834247 430.813578,160.860838 425.791054,151.382841 L406.493989,244.174425 L355.541808,244.174425 L406.16356,3.71166335 Z M513.553047,80.927517 C513.553047,59.2540542 502.450626,45.0701978 480.840557,45.0701978 C455.794024,45.0701978 437.554333,66.7436606 437.554333,94.514856 C437.554333,116.188319 448.72284,130.438455 470.597252,130.438455 C495.643785,130.438455 513.553047,108.698712 513.553047,80.927517 Z" id="Shape" fill="url(#linearGradient-18)" fill-rule="nonzero"></path>
                            <path d="M588.494387,3.71166335 L639.512654,3.71166335 L636.803135,16.9676039 C649.390967,5.96318865 665.720571,0.242928818 682.402363,0.99419554 C721.19475,0.99419554 746.902141,34.5317251 746.902141,75.8902596 C746.902141,134.812915 709.034956,176.834247 660.06535,176.834247 C631.714525,176.834247 613.144405,160.860838 608.055795,151.382841 L588.824816,244.174425 L537.806549,244.174425 L588.494387,3.71166335 Z M695.883874,80.927517 C695.883874,59.2540542 684.715367,45.0701978 662.840955,45.0701978 C637.860508,45.0701978 619.620817,66.7436606 619.620817,94.514856 C619.620817,116.188319 630.789323,130.438455 652.663736,130.438455 C677.644183,130.438455 695.883874,108.698712 695.883874,80.927517 Z" id="Shape" fill="url(#linearGradient-19)" fill-rule="nonzero"></path>
                            <path d="M757.541961,96.1718486 C757.541961,39.7678216 793.030056,0 853.762941,0 C905.111637,0 941.921449,40.6294577 930.752942,100.612589 L805.18985,100.612589 C807.56894,120.496499 825.015601,130.438455 843.057035,130.438455 C858.015369,130.794489 872.129526,123.504499 880.527705,111.084782 L917.998375,140.247851 C902.137774,162.252712 878.346872,176.834247 839.686657,176.834247 C784.901498,176.834247 757.541961,137.861782 757.541961,96.1718486 Z M807.502854,67.0750591 L883.171139,67.0750591 C881.122478,50.1074552 866.583593,41.689933 850.12822,41.689933 C833.672846,41.689933 814.24361,50.1074552 807.502854,67.0750591 L807.502854,67.0750591 Z" id="Shape" fill="url(#linearGradient-20)" fill-rule="nonzero"></path>
                            <path d="M960.095054,3.71166335 L1011.11332,3.71166335 L1006.0908,27.1083984 C1015.58491,10.6574549 1033.41758,0.871812303 1052.35088,1.72327227 C1057.70595,1.6105384 1063.04886,2.28036072 1068.21148,3.71166335 L1057.37341,55.5423909 C1050.71725,52.925943 1043.6392,51.5556017 1036.49028,51.499329 C1013.49241,51.499329 997.962239,68.4006532 992.5432,92.7915838 L975.691312,173.056304 L924.673045,173.056304 L960.095054,3.71166335 Z" id="Path" fill="url(#linearGradient-21)" fill-rule="nonzero"></path>
                            <path d="M67.4075547,15.7082895 L118.425822,15.7082895 L115.716302,28.9642301 C128.367986,18.0971864 144.676174,12.4792461 161.31553,13.2559405 C200.174003,13.2559405 225.815308,46.3957919 225.815308,87.8206061 C225.815308,146.743262 188.014209,188.764593 139.044603,188.764593 C110.627693,188.764593 92.0575723,172.857465 87.0350486,163.379467 L67.7379839,256.171051 L16.7858028,256.171051 L67.4075547,15.7082895 Z M174.797041,92.7915838 C174.797041,71.118121 163.694621,56.8679849 142.084552,56.8679849 C117.104105,57.0005443 99.128757,78.6740071 99.128757,106.445203 C99.128757,128.118665 110.231178,142.368801 131.841247,142.368801 C156.55735,142.368801 174.797041,120.695339 174.797041,92.7915838 Z" id="Shape" fill="url(#linearGradient-22)" fill-rule="nonzero"></path>
                            <path d="M231.82912,109.494069 L251.654871,15.7082895 L302.673138,15.7082895 L282.847387,108.831272 C278.485721,129.510539 287.275138,141.971123 304.127026,141.971123 C323.952778,141.971123 336.575173,128.383784 342.324641,100.612589 L360.498246,15.7082895 L411.450427,15.7082895 L375.697989,185.05293 L324.679722,185.05293 L328.0501,168.416725 C317.362489,181.606865 301.102404,188.974841 284.169103,188.300635 C243.26197,188.433195 224.030991,146.743262 231.82912,109.494069 Z" id="Path" fill="url(#linearGradient-23)" fill-rule="nonzero"></path>
                            <path d="M422.949363,15.7082895 L473.96763,15.7082895 L471.258111,28.9642301 C483.903035,18.0853388 500.216057,12.4657334 516.857339,13.2559405 C555.649726,13.2559405 581.555374,46.3957919 581.555374,87.8206061 C581.555374,146.743262 543.688189,188.764593 494.718583,188.764593 C466.367759,188.764593 447.797638,172.857465 442.709029,163.379467 L423.47805,256.171051 L372.261525,256.171051 L422.949363,15.7082895 Z M530.33885,92.7915838 C530.33885,71.118121 519.170343,56.8679849 497.295931,56.8679849 C472.315484,56.8679849 454.075793,78.5414477 454.075793,106.312643 C454.075793,127.986106 465.244299,142.236847 487.118712,142.236847 C512.099158,142.368801 530.33885,120.695339 530.33885,92.7915838 Z" id="Shape" fill="url(#linearGradient-24)" fill-rule="nonzero"></path>
                            <path d="M605.28019,15.7082895 L656.232371,15.7082895 L653.588938,28.9642301 C666.213591,18.0954601 682.502291,12.4760893 699.12208,13.2559405 C737.980553,13.2559405 763.687944,46.7934701 763.687944,88.0857249 C763.687944,147.008381 725.820758,189.029712 676.851153,189.029712 C648.500328,189.029712 629.930208,173.122583 624.841598,163.644586 L605.610619,256.43617 L554.592352,256.43617 L605.28019,15.7082895 Z M712.669677,92.7915838 C712.669677,71.118121 701.50117,56.8679849 679.626758,56.8679849 C654.646311,56.8679849 636.40662,78.5414477 636.40662,106.312643 C636.40662,127.986106 647.575126,142.236847 669.449539,142.236847 C694.429985,142.368801 712.669677,120.695339 712.669677,92.7915838 Z" id="Shape" fill="url(#linearGradient-25)" fill-rule="nonzero"></path>
                            <path d="M774.327764,108.168475 C774.327764,51.8970072 810.080202,11.9303465 870.548744,11.9303465 C921.89744,11.9303465 958.707251,52.6260839 947.538745,112.542935 L821.975653,112.542935 C824.354743,132.426846 841.801404,142.368801 859.776752,142.368801 C874.740111,142.73767 888.870587,135.477052 897.313508,123.081408 L934.718092,152.443316 C918.857491,174.448177 895.066589,189.029712 856.340288,189.029712 C801.621215,188.764593 774.327764,149.792128 774.327764,108.168475 Z M824.288657,79.0054056 L899.956941,79.0054056 C897.908281,62.1040814 883.369396,53.6202795 866.914023,53.6202795 C850.458649,53.6202795 831.029412,62.1040814 824.288657,79.0054056 Z" id="Shape" fill="url(#linearGradient-26)" fill-rule="nonzero"></path>
                            <path d="M976.814771,15.7082895 L1027.83304,15.7082895 L1022.74443,39.0387449 C1032.2709,22.6210873 1050.08171,12.8474411 1069.00452,13.6536188 C1074.38643,13.5273759 1079.75634,14.2201366 1084.9312,15.7082895 L1074.09312,67.4727373 C1067.40689,64.8809088 1060.31171,63.5115853 1053.14391,63.4296755 C1030.21213,63.4296755 1014.68196,80.3972794 1009.26292,104.78821 L992.344943,185.05293 L941.062333,185.05293 L976.814771,15.7082895 Z" id="Path" fill="url(#linearGradient-27)" fill-rule="nonzero"></path>
                        </g>
                    </g>
                </g>
            </g>
        </g>
    </g>
</svg>