<?xml version="1.0" encoding="UTF-8"?>
<svg width="2198px" height="785px" viewBox="0 0 2198 785" version="1.1" xmlns="http://www.w3.org/2000/svg" xmlns:xlink="http://www.w3.org/1999/xlink">
    <!-- Generator: Sketch 55.1 (78136) - https://sketchapp.com -->
    <title>long-transparent</title>
    <desc>Created with Sketch.</desc>
    <defs>
        <linearGradient x1="51.3005795%" y1="90.281745%" x2="47.8762078%" y2="31.352603%" id="linearGradient-1">
            <stop stop-color="#26241D" offset="0%"></stop>
            <stop stop-color="#4A4737" offset="100%"></stop>
        </linearGradient>
        <linearGradient x1="52.7091201%" y1="84.6385865%" x2="43.1810255%" y2="29.9420768%" id="linearGradient-2">
            <stop stop-color="#FFCA90" offset="0%"></stop>
            <stop stop-color="#FFDD91" offset="100%"></stop>
        </linearGradient>
        <linearGradient x1="50%" y1="14.3981591%" x2="50%" y2="71.1912478%" id="linearGradient-3">
            <stop stop-color="#FCFBFA" offset="0%"></stop>
            <stop stop-color="#E2E2E2" offset="100%"></stop>
        </linearGradient>
        <linearGradient x1="56.87057%" y1="66.0578036%" x2="48.3408821%" y2="44.2940029%" id="linearGradient-4">
            <stop stop-color="#26241D" offset="0%"></stop>
            <stop stop-color="#4A4737" offset="100%"></stop>
        </linearGradient>
        <linearGradient x1="47.0775348%" y1="17.4423076%" x2="56.7660702%" y2="81.9858504%" id="linearGradient-5">
            <stop stop-color="#26241D" offset="0%"></stop>
            <stop stop-color="#4A4737" offset="100%"></stop>
        </linearGradient>
        <linearGradient x1="75.4508197%" y1="100.570187%" x2="41.4071038%" y2="27.4312824%" id="linearGradient-6">
            <stop stop-color="#26241D" offset="0%"></stop>
            <stop stop-color="#4A4737" offset="100%"></stop>
        </linearGradient>
        <linearGradient x1="86.0472373%" y1="115.696439%" x2="47.0670976%" y2="42.8424113%" id="linearGradient-7">
            <stop stop-color="#26241D" offset="0%"></stop>
            <stop stop-color="#4A4737" offset="100%"></stop>
        </linearGradient>
        <linearGradient x1="59.5590475%" y1="80.8191516%" x2="45.6165595%" y2="24.4040235%" id="linearGradient-8">
            <stop stop-color="#26241D" offset="0%"></stop>
            <stop stop-color="#4A4737" offset="100%"></stop>
        </linearGradient>
        <linearGradient x1="50.0124318%" y1="83.5259105%" x2="50.0124318%" y2="-3.60338158%" id="linearGradient-9">
            <stop stop-color="#FFA8BB" offset="0%"></stop>
            <stop stop-color="#FFB79A" offset="100%"></stop>
        </linearGradient>
        <linearGradient x1="18.0189829%" y1="41.6514709%" x2="81.9571483%" y2="58.3547987%" id="linearGradient-10">
            <stop stop-color="#00E5FF" stop-opacity="0" offset="0%"></stop>
            <stop stop-color="#00E5FF" stop-opacity="0.06" offset="5%"></stop>
            <stop stop-color="#00E5FF" stop-opacity="0.2" offset="13%"></stop>
            <stop stop-color="#00E5FF" stop-opacity="0.44" offset="25%"></stop>
            <stop stop-color="#00E5FF" stop-opacity="0.77" offset="39%"></stop>
            <stop stop-color="#00E5FF" offset="48%"></stop>
            <stop stop-color="#FFA8BB" offset="82%"></stop>
        </linearGradient>
        <linearGradient x1="21.8115537%" y1="58.7336268%" x2="78.1698042%" y2="41.2609171%" id="linearGradient-11">
            <stop stop-color="#00E5FF" stop-opacity="0" offset="0%"></stop>
            <stop stop-color="#00E5FF" stop-opacity="0.06" offset="5%"></stop>
            <stop stop-color="#00E5FF" stop-opacity="0.2" offset="13%"></stop>
            <stop stop-color="#00E5FF" stop-opacity="0.44" offset="25%"></stop>
            <stop stop-color="#00E5FF" stop-opacity="0.77" offset="39%"></stop>
            <stop stop-color="#00E5FF" offset="48%"></stop>
            <stop stop-color="#FFA8BB" offset="82%"></stop>
        </linearGradient>
        <linearGradient x1="0.760472563%" y1="51.4910693%" x2="99.2523394%" y2="48.5128279%" id="linearGradient-12">
            <stop stop-color="#00E5FF" stop-opacity="0" offset="0%"></stop>
            <stop stop-color="#00E5FF" stop-opacity="0.06" offset="5%"></stop>
            <stop stop-color="#00E5FF" stop-opacity="0.2" offset="13%"></stop>
            <stop stop-color="#00E5FF" stop-opacity="0.44" offset="25%"></stop>
            <stop stop-color="#00E5FF" stop-opacity="0.77" offset="39%"></stop>
            <stop stop-color="#00E5FF" offset="48%"></stop>
            <stop stop-color="#FFA8BB" offset="82%"></stop>
        </linearGradient>
        <linearGradient x1="18.0477469%" y1="58.3450943%" x2="81.9698698%" y2="41.6415909%" id="linearGradient-13">
            <stop stop-color="#00E5FF" stop-opacity="0" offset="0%"></stop>
            <stop stop-color="#00E5FF" stop-opacity="0.06" offset="3%"></stop>
            <stop stop-color="#00E5FF" stop-opacity="0.2" offset="10%"></stop>
            <stop stop-color="#00E5FF" stop-opacity="0.44" offset="19%"></stop>
            <stop stop-color="#00E5FF" stop-opacity="0.77" offset="30%"></stop>
            <stop stop-color="#00E5FF" offset="37%"></stop>
            <stop stop-color="#FFA8BB" offset="72%"></stop>
        </linearGradient>
        <linearGradient x1="21.8403037%" y1="41.2552423%" x2="78.2056059%" y2="58.7347068%" id="linearGradient-14">
            <stop stop-color="#00E5FF" stop-opacity="0" offset="0%"></stop>
            <stop stop-color="#00E5FF" stop-opacity="0.06" offset="3%"></stop>
            <stop stop-color="#00E5FF" stop-opacity="0.2" offset="10%"></stop>
            <stop stop-color="#00E5FF" stop-opacity="0.44" offset="19%"></stop>
            <stop stop-color="#00E5FF" stop-opacity="0.77" offset="30%"></stop>
            <stop stop-color="#00E5FF" offset="37%"></stop>
            <stop stop-color="#FFA8BB" offset="72%"></stop>
        </linearGradient>
        <linearGradient x1="0.777044631%" y1="48.5042786%" x2="99.2596105%" y2="51.4826179%" id="linearGradient-15">
            <stop stop-color="#00E5FF" stop-opacity="0" offset="0%"></stop>
            <stop stop-color="#00E5FF" stop-opacity="0.06" offset="3%"></stop>
            <stop stop-color="#00E5FF" stop-opacity="0.2" offset="10%"></stop>
            <stop stop-color="#00E5FF" stop-opacity="0.44" offset="19%"></stop>
            <stop stop-color="#00E5FF" stop-opacity="0.77" offset="30%"></stop>
            <stop stop-color="#00E5FF" offset="37%"></stop>
            <stop stop-color="#FFA8BB" offset="72%"></stop>
        </linearGradient>
    </defs>
    <g id="long-transparent" stroke="none" stroke-width="1" fill="none" fill-rule="evenodd">
        <g id="long" transform="translate(46.000000, 125.000000)">
            <g id="Group-2">
                <g id="underdog-emblem" fill-rule="nonzero">
                    <path d="M533.889261,175.402186 L533.889261,175.17146 C525.985895,129.858415 508.526512,86.725491 482.660831,48.6130393 C476.398742,39.3458789 469.66991,30.3996683 462.500095,21.8086561 L444.254629,0 L423.19674,19.1201925 C415.182847,26.40312 407.400803,34.1675634 400.062295,42.3232383 C382.855841,61.3765379 367.934129,82.3563708 355.597792,104.840048 C351.222912,104.65948 346.868193,104.579227 342.573956,104.579227 C320.206891,104.576147 297.896701,106.821239 275.983045,111.280323 C272.27347,106.114059 268.412689,101.038079 264.451104,96.142668 C249.5815,77.748126 232.779618,60.9872069 214.331514,46.1452705 C208.071606,41.1294803 201.559688,36.2541321 194.967128,31.6997945 L170.37103,14.7263602 L155.714174,40.7081539 C151.540902,48.1214919 147.64988,55.7555247 144.031028,63.449747 C123.837293,106.738601 113.431729,153.908878 113.547995,201.634769 C113.547995,204.172759 113.547995,206.650559 113.638718,208.656875 C113.749602,213.843203 113.981451,219.119814 114.354424,224.396425 C94.2097165,267.623736 83.8353021,314.721282 83.9609662,362.370784 C83.9505405,385.899568 86.4613188,409.362445 91.4518283,432.361122 L93.2662946,440.717428 L99.5665246,446.515682 C160.626944,502.845551 240.845957,534.093337 324.106722,533.981334 C327.554208,533.981334 331.16298,533.920843 335.467297,533.77037 C356.723098,533.065179 377.86149,530.32733 398.590561,525.594631 C416.321945,521.523574 433.682899,515.993882 450.494376,509.062587 C503.642477,487.115244 550.142533,451.791922 585.430183,406.559897 L590.319161,400.290159 L591.034867,392.395305 C591.962261,382.303535 592.426689,372.201733 592.426689,362.370784 C592.567533,295.559947 572.138726,230.309504 533.889261,175.402186 L533.889261,175.402186 Z" id="Outline" fill="url(#linearGradient-1)"></path>
                    <path d="M507.243428,177.564341 C506.934042,175.518679 506.597752,173.47636 506.23456,171.437383 C497.105737,119.671218 474.504756,71.1813979 440.678296,30.788113 C433.246299,37.5401336 426.16068,44.6397831 419.42144,52.0870614 C399.762229,73.8228503 383.372956,98.2734856 370.76372,124.677969 C361.169383,123.775471 351.453981,123.294139 341.627603,123.294139 C315.034611,123.27764 288.554423,126.72992 262.865253,133.562558 C256.552388,123.5649 249.653263,113.945036 242.203629,104.752823 C228.545902,87.8685814 213.109789,72.4853536 196.158879,58.8658227 C190.401603,54.2530561 184.472821,49.8408446 178.37253,45.6291881 C174.518653,52.4480605 170.940533,59.3972936 167.638171,66.4768876 C149.142065,106.203431 139.591188,149.463518 139.652164,193.237719 C139.652164,195.403714 139.652164,197.559681 139.732873,199.715648 C139.887566,206.90889 140.294476,214.038623 140.953604,221.104846 C110.886417,282.234175 102.420511,351.650782 116.92236,418.150202 C172.997667,469.82858 246.675302,498.493252 323.145135,498.382579 C326.645908,498.382579 330.126504,498.302036 333.586922,498.19173 C353.117373,497.544841 372.540011,495.033032 391.586763,490.690971 C407.857633,486.959654 423.788615,481.891589 439.215436,475.539035 C488.044478,455.409001 530.761335,422.9929 563.164999,381.478708 C563.992271,372.393563 564.446602,363.208141 564.446602,353.912413 C564.541705,290.608376 544.522197,228.891126 507.243428,177.564341 Z" id="Path" fill="url(#linearGradient-2)"></path>
                    <path d="M237.985762,495.827095 C237.985762,495.827095 294.845013,508.003864 325.048341,508.003864 C328.666291,508.003864 332.274162,507.923423 335.871956,507.802761 C356.101295,507.132309 376.218882,504.519315 395.946043,499.999976 C412.814966,496.119544 429.332119,490.849333 445.327526,484.243579 C492.33642,464.785954 533.928646,434.268419 566.55403,395.295849 C569.006307,392.37986 571.401477,389.420298 573.73954,386.417164 C574.596157,376.975392 575.059738,367.412958 575.059738,357.739917 C575.059738,356.583577 575.059738,355.427236 575.059738,354.280951 C574.866734,336.577945 573.181146,318.92253 570.020811,301.501544 C562.216738,307.237839 552.775873,310.328365 543.082708,310.319898 C542.598971,310.319898 542.13539,310.319898 541.661731,310.319898 C519.057105,309.626093 506.560566,281.260556 495.303603,271.748397 C487.80568,269.204448 482.333406,266.590113 473.978865,266.570003 L473.85793,266.570003 C472.295863,266.570003 470.753951,266.640389 469.21204,266.730885 C467.750751,266.590113 466.269307,266.509603 464.767706,266.509603 C453.948679,266.490841 443.479342,270.331763 435.249673,277.339053 C428.197955,281.636436 421.911069,287.073241 416.645954,293.42727 C408.491828,292.208796 400.190953,292.35833 392.086225,293.869696 C377.017399,275.381951 353.957424,265.252051 330.115053,266.646694 C306.272682,268.041337 284.557048,280.790355 271.75665,300.908291 L271.575249,300.908291 C264.32033,300.908802 257.104832,301.972595 250.15981,304.065603 C242.420018,296.514197 232.402631,291.456463 220.752632,291.325747 C209.17794,287.002255 196.340111,287.551423 185.17878,292.847501 C174.017449,298.14358 165.488619,307.732942 161.545241,319.419795 C154.275541,323.607215 148.299888,329.708538 144.2718,337.056503 C139.716904,336.194725 135.091127,335.760458 130.455062,335.759391 C129.05424,335.759391 127.653419,335.759391 126.262675,335.890108 C118.887996,336.29636 111.617119,337.811667 104.696068,340.384753 C104.380295,346.116181 104.222409,351.894532 104.222409,357.719807 C104.222409,369.14059 104.843511,380.552961 106.076734,391.907268 C106.379069,394.602045 106.701561,397.276711 107.084519,399.951377 C108.199802,408.230105 109.637575,416.398227 111.397841,424.455742 C116.416612,429.094511 121.58991,433.565695 126.917735,437.869293 L127.582874,438.945193 C136.501774,446.747978 155.639619,460.845278 155.639619,460.845278 C184.23049,476.883219 212.146145,490.27666 237.985762,495.827095 Z" id="Path" fill="url(#linearGradient-3)" opacity="0.77"></path>
                    <path d="M453.142258,331.836161 C451.599965,330.210606 449.870958,328.773531 447.991309,327.554918 C435.371492,336.000981 421.205134,341.859085 406.310882,344.7907 C404.429579,345.16342 402.528154,345.495846 400.606609,345.798052 C395.054575,346.584086 389.453123,346.967876 383.845907,346.946432 C369.229838,346.963533 354.743795,344.197935 341.159435,338.79696 L341.159435,309.805387 L333.111078,309.805387 L333.111078,341.43622 C302.310842,360.362804 264.454999,363.816165 230.746042,350.774367 C230.665558,351.781719 230.615216,352.859585 230.615216,353.90723 C230.600363,365.010294 234.805035,375.703096 242.375917,383.815493 C245.937315,385.638799 249.579196,387.341223 253.27138,388.932838 C308.947646,412.808188 372.713031,408.283245 424.469987,376.78418 C428.433803,374.366537 432.307074,371.747423 436.079741,369.088016 C441.537365,365.16219 446.782892,360.948885 451.794158,356.465903 C456.100127,348.929045 456.599854,339.79906 453.142258,331.836161 Z" id="Path" fill="url(#linearGradient-4)"></path>
                    <path d="M372.445314,286.298416 C362.807256,275.068418 348.479477,268.848688 333.596137,269.433875 C318.712797,270.019062 304.929646,277.344065 296.223697,289.295316 C298.488375,309.830029 313.797371,326.622702 334.218329,330.972214 C355.738142,326.387553 371.434825,308.043693 372.445314,286.298416 Z" id="Path" fill="url(#linearGradient-5)"></path>
                    <g id="Group" opacity="0.72" transform="translate(163.077075, 80.818797)" fill="#FFFFFF">
                        <path d="M240.301322,57.9218354 C243.798557,57.6018805 247.356262,57.4319045 250.89381,57.4319045 C274.283631,57.3985483 297.130821,64.4215444 316.403964,77.569066 C315.296453,48.6002848 303.167753,21.1233364 282.459626,0.669905571 C262.689596,14.8826061 247.937978,34.9156376 240.301322,57.9218354 L240.301322,57.9218354 Z" id="Path"></path>
                        <path d="M3.02354555,117.473441 C19.6449568,93.7732776 44.6400984,77.1384455 73.0488606,70.8700102 C58.886366,53.1763062 39.7917351,40.0050358 18.1412733,32.995349 C6.65187132,51.2282773 0.574076232,72.3042072 0.604467282,93.8067771 C0.588380907,101.7572 1.3989514,109.688079 3.02354555,117.473441 L3.02354555,117.473441 Z" id="Path"></path>
                        <path d="M98.1846026,133.501182 C100.966585,141.914594 107.688004,148.467441 116.21587,151.080228 C124.743735,153.693015 134.01921,152.041332 141.098793,146.649328 C141.358075,145.129668 141.489548,143.591252 141.491853,142.049977 C141.492771,128.957837 132.127067,117.707409 119.168009,115.233757 C109.351791,117.097032 101.322126,124.08738 98.1846026,133.501182 Z" id="Path"></path>
                        <path d="M178.943504,134.701013 C178.684642,136.203914 178.553162,137.725689 178.550443,139.250371 C178.553568,141.268579 178.78001,143.280347 179.225702,145.249526 C183.481961,148.14841 188.479003,149.791642 193.637936,149.988858 C186.87609,147.047492 181.583753,141.541431 178.943504,134.701013 Z" id="Path"></path>
                        <path d="M222.301148,122.702704 C222.298593,120.684465 222.072144,118.672635 221.625889,116.70355 C213.876565,111.444155 203.959388,110.466502 195.318308,114.110101 C186.677229,117.753701 180.504414,125.515863 178.943504,134.701013 C181.586012,141.537661 186.878056,147.039816 193.637936,149.978859 C194.01084,149.978859 194.383744,149.978859 194.766726,149.978859 C209.955541,149.973371 222.273361,137.771089 222.301148,122.702704 Z" id="Path"></path>
                    </g>
                    <path d="M398.283793,229.958913 C395.519,231.114102 392.794276,232.329042 390.089587,233.613692 C386.142745,235.492533 382.269363,237.507475 378.469442,239.658516 C375.77477,241.172212 373.130185,242.765576 370.515652,244.408732 C372.018872,249.589001 376.055276,253.662181 381.243082,255.233901 C386.430888,256.805622 392.066325,255.662665 396.220216,252.196298 C396.882089,251.627692 397.501462,251.011957 398.073429,250.353971 C400.564414,247.910813 403.132199,245.537365 405.776784,243.233626 C417.34741,233.109005 430.133104,224.445734 443.842778,217.441048 C428.181105,219.662733 412.870191,223.869586 398.283793,229.958913 L398.283793,229.958913 Z" id="Path" fill="url(#linearGradient-6)"></path>
                    <path d="M255.459187,248.125823 C251.576321,246.898826 247.646267,245.791212 243.669025,244.802982 C242.182615,244.434883 240.696205,244.086681 239.199684,243.758376 C235.357264,242.902794 231.474398,242.169912 227.551085,241.55973 C221.740267,240.644456 215.845186,239.981214 209.865842,239.570004 C207.458099,243.391479 206.821729,248.042076 208.11653,252.35399 C213.506029,253.159829 218.814635,254.214383 224.042349,255.457962 C227.925215,256.393133 231.760894,257.434422 235.549385,258.581831 C237.268362,259.105792 238.973858,259.659599 240.66587,260.243251 C243.962262,261.357498 247.208096,262.557965 250.403371,263.844655 C254.656998,265.549186 258.833101,267.399631 262.931682,269.395989 C268.527278,266.750454 272.090765,261.187945 272.102932,255.079914 C272.102932,254.781455 272.102932,254.502894 272.052374,254.204435 C266.639281,251.949413 261.108218,249.923209 255.459187,248.125823 Z" id="Path" fill="url(#linearGradient-7)"></path>
                    <path d="M337.864182,449.314024 C323.038447,449.324222 308.494455,445.287574 295.819173,437.643721 L294.385706,436.770768 L293.376222,435.466354 C278.494412,416.706019 272.752172,392.350386 277.698936,368.971365 L278.567092,364.827343 L282.302183,362.820553 C317.24186,343.684081 359.252511,342.194214 395.475433,358.806973 L399.432611,360.623118 L400.563233,364.807275 C406.55678,387.06242 402.676393,410.80331 389.903082,430.027953 L389.075305,431.282197 L387.884114,432.20532 C373.635864,443.364292 356.003764,449.394847 337.864182,449.314024 L337.864182,449.314024 Z" id="Path" fill="url(#linearGradient-8)"></path>
                    <path d="M381.767218,421.569109 C393.105219,404.523785 396.546324,383.469292 391.219282,363.736407 C357.600896,348.337895 318.616317,349.725997 286.194104,367.47598 C281.790255,388.209483 286.888518,409.814816 300.10908,426.444628 C325.694049,441.872248 358.22676,439.929835 381.767218,421.569109 L381.767218,421.569109 Z" id="Path" fill="#202020"></path>
                    <path d="M381.767218,421.569109 C393.105219,404.523785 396.546324,383.469292 391.219282,363.736407 C357.600896,348.337895 318.616317,349.725997 286.194104,367.47598 C281.790255,388.209483 286.888518,409.814816 300.10908,426.444628 C325.694049,441.872248 358.22676,439.929835 381.767218,421.569109 L381.767218,421.569109 Z" id="Path" fill="url(#linearGradient-9)"></path>
                    <path d="M31.7521085,359.45612 L73.9980261,359.53689 C77.2677392,359.543141 79.91681,362.192209 79.9230655,365.461922 L79.932065,370.165946 C79.9383374,373.444524 77.2856102,376.10742 74.007033,376.113693 C73.999464,376.113707 73.991895,376.113707 73.984326,376.113693 L31.7384084,376.032923 C28.4686953,376.026671 25.8196245,373.377604 25.8133691,370.107891 L25.8043696,365.403866 C25.7980972,362.125289 28.4508243,359.462392 31.7294015,359.45612 C31.7369705,359.456106 31.7445395,359.456106 31.7521085,359.45612 Z" id="Rectangle" fill="url(#linearGradient-10)" transform="translate(52.868217, 367.784906) rotate(-40.160000) translate(-52.868217, -367.784906) "></path>
                    <path d="M31.7441153,278.38975 L73.9723818,278.307821 C77.2509588,278.30146 79.9139272,280.954116 79.9202881,284.232693 C79.920303,284.240371 79.920303,284.248049 79.9202881,284.255728 L79.9111511,288.96516 C79.9048076,292.234745 77.2558647,294.883688 73.9862798,294.890031 L31.7580132,294.97196 C28.4794362,294.978321 25.8164679,292.325666 25.810107,289.047089 C25.8100921,289.03941 25.8100921,289.031732 25.810107,289.024054 L25.8192439,284.314622 C25.8255874,281.045037 28.4745304,278.396094 31.7441153,278.38975 Z" id="Rectangle" fill="url(#linearGradient-11)" transform="translate(52.865198, 286.639891) rotate(45.000000) translate(-52.865198, -286.639891) "></path>
                    <path d="M6.76611124,315.524453 L67.079933,315.494184 C70.3585158,315.492539 73.0176661,318.149022 73.0193115,321.427604 C73.0193125,321.429594 73.0193125,321.431584 73.0193115,321.433574 L73.0169547,326.11207 C73.0153043,329.388322 70.3597865,332.043835 67.0835347,332.045479 L6.76971295,332.075748 C3.49113017,332.077394 0.831979843,329.420911 0.830334455,326.142328 C0.830333456,326.140338 0.830333458,326.138348 0.83033446,326.136359 L0.832691234,321.457862 C0.834341633,318.18161 3.48985953,315.526098 6.76611124,315.524453 Z" id="Rectangle" fill="url(#linearGradient-12)" transform="translate(36.924823, 323.784966) rotate(7.510000) translate(-36.924823, -323.784966) "></path>
                    <path d="M600.557581,333.895351 L633.338913,333.832677 C635.883837,333.827811 637.950849,335.886935 637.955715,338.431858 C637.955726,338.437733 637.955726,338.443609 637.955715,338.449484 L637.948729,342.100879 C637.943874,344.638922 635.887591,346.695203 633.349548,346.700055 L600.568216,346.76273 C598.023292,346.767595 595.95628,344.708472 595.951414,342.163548 C595.951403,342.157673 595.951403,342.151798 595.951414,342.145922 L595.9584,338.494527 C595.963255,335.956484 598.019538,333.900204 600.557581,333.895351 Z" id="Rectangle" fill="url(#linearGradient-13)" transform="translate(616.953564, 340.297703) rotate(-139.840000) translate(-616.953564, -340.297703) "></path>
                    <path d="M600.563257,270.841778 L633.330891,270.905352 C635.868835,270.910276 637.925018,272.966459 637.929942,275.504403 L637.937035,279.159996 C637.941972,281.704919 635.882907,283.77199 633.337984,283.776927 C633.332023,283.776939 633.326063,283.776939 633.320103,283.776927 L600.552469,283.713353 C598.014525,283.708429 595.958342,281.652246 595.953418,279.114302 L595.946325,275.458709 C595.941388,272.913786 598.000453,270.846715 600.545376,270.841778 C600.551337,270.841766 600.557297,270.841766 600.563257,270.841778 Z" id="Rectangle" fill="url(#linearGradient-14)" transform="translate(616.941680, 277.309353) rotate(135.000000) translate(-616.941680, -277.309353) "></path>
                    <path d="M606.843973,300.176075 L653.654023,300.199567 C656.197141,300.200843 658.258429,302.262127 658.25971,304.805245 L658.261539,308.436767 C658.262821,310.981695 656.200789,313.045806 653.655861,313.047088 C653.654316,313.047088 653.652772,313.047088 653.651227,313.047088 L606.841177,313.023596 C604.298059,313.022319 602.236771,310.961036 602.23549,308.417917 L602.233661,304.786395 C602.232379,302.241468 604.294411,300.177357 606.839339,300.176075 C606.840884,300.176074 606.842428,300.176074 606.843973,300.176075 Z" id="Rectangle" fill="url(#linearGradient-15)" transform="translate(630.247600, 306.611581) rotate(172.490000) translate(-630.247600, -306.611581) "></path>
                </g>
                <g id="text" transform="translate(659.000000, 111.000000)">
                    <g id="Group-4">
                        <g id="Group-3" transform="translate(57.755102, 57.744361)" fill="#00E5FF" fill-rule="nonzero">
                            <path d="M170.128034,159.867857 L181.853075,85.9727698 L124.377387,85.9727698 L114.284657,150.429544 C114.077744,151.511497 113.801861,153.076876 113.479997,155.033599 C107.671121,192.786852 96.4595301,211.663479 79.8452248,211.663479 C72.7488933,211.663479 67.3385152,209.614674 63.6140907,205.517065 C59.8896661,201.419456 58.0274539,195.487898 58.0274539,187.722392 C58.0274539,185.880769 58.4182886,181.967322 59.1539774,175.982051 C59.8896661,169.996779 60.9472188,162.515189 62.2346742,153.560301 L72.9021617,85.9727698 L15.6793675,85.9727698 L5.65560763,148.541881 C3.41788754,162.077804 1.90819282,172.137664 1.12652347,178.721463 C0.447342954,184.121212 0.0712441669,189.554861 4.26325641e-14,194.996799 C4.26325641e-14,213.673916 6.89708247,228.452934 20.6912474,239.333851 C34.4854124,250.214769 53.4217355,255.670574 77.5002167,255.701268 C90.2046604,255.888067 102.85447,253.998617 114.951375,250.107341 C125.41378,246.724789 134.994285,241.055479 142.99951,233.509721 C155.077068,221.76938 163.966641,198.357759 169.668229,163.274858 L170.128034,159.867857 Z" id="Path"></path>
                            <path d="M1303.08024,89.4239027 L1299.3678,112.353108 C1292.80503,103.521654 1284.35503,96.2467199 1274.62592,91.0518763 C1265.2761,86.377307 1254.92919,84.0174782 1244.46527,84.1731145 C1221.00243,83.7271051 1198.57245,93.7559597 1183.33691,111.504728 C1173.93514,121.995591 1167.04503,134.467726 1163.18369,147.985094 C1161.14553,131.08663 1153.26308,115.418303 1140.88602,103.662939 C1125.20617,88.9423893 1104.28434,81.5821143 1078.12051,81.5821143 C1049.80454,81.5821143 1026.56916,90.4480739 1008.41435,108.179993 C1001.11778,115.263295 995.096775,123.538371 990.613108,132.645456 L1011.55032,-1.42108547e-14 L954.803097,-1.42108547e-14 L941.175463,85.7781589 C940.645115,89.4239027 940.207001,93.0008588 939.884181,96.486098 C939.56136,99.9713373 939.39995,103.36486 939.39995,106.574949 L939.39995,111.16079 C932.612066,102.304191 924.024743,94.9681926 914.196897,89.6302655 C904.908178,84.9690702 894.624196,82.6091613 884.220713,82.7515038 C863.594968,82.3582322 843.667959,90.1852303 828.880065,104.488391 L833.491786,84.3565482 C830.240523,83.8291764 827.865487,83.4852384 826.343619,83.3247339 C824.996243,83.169817 823.641593,83.0856265 822.285305,83.0725127 C811.771388,82.8403598 801.415219,85.6438516 792.470531,91.1435931 C783.514463,96.9297263 776.397107,105.128396 771.948374,114.783604 L776.006688,87.1309821 L720.550748,87.1309821 L709.275091,157.91344 C707.73785,136.329415 700.136198,118.696855 686.470132,105.015763 C671.09773,89.6531947 650.752356,81.9719108 625.43401,81.9719108 C597.5331,81.9719108 574.805003,90.6773659 557.24972,108.088276 C549.92627,115.273491 543.959387,123.707616 539.632947,132.989394 L560.685452,-1.42108547e-14 L503.938229,-1.42108547e-14 L490.333654,85.7781589 C489.780247,89.4239027 489.342134,93.0008588 489.019313,96.486098 C488.696493,99.9713373 488.535083,103.36486 488.535083,106.574949 L488.535083,111.16079 C481.752765,102.298972 473.164226,94.9619333 463.332029,89.6302655 C454.045504,84.9630447 443.760012,82.6027895 433.355845,82.7515038 C409.783444,82.3115759 387.276998,92.5027619 372.135254,110.472914 C366.095287,117.360923 361.093183,125.084578 357.285513,133.402119 C357.285513,117.198814 352.612303,104.572465 343.265883,95.5230714 C333.919462,86.4736782 320.783745,81.9336954 303.85873,81.9031232 C293.725653,81.8133765 283.738584,84.3079741 274.851007,89.1487522 C264.547778,95.2198044 255.476103,103.151858 248.103027,112.536542 L252.138283,87.1309821 L196.797635,87.1309821 L170.764472,249.928343 L227.765339,249.928343 L239.432993,174.009743 C241.923322,158.203877 246.004695,146.701059 251.677111,139.501288 C257.316179,132.31376 266.107901,128.288673 275.266062,128.701632 C282.61407,128.701632 288.17888,130.528326 291.960491,134.181712 C295.742102,137.827456 297.632907,143.215819 297.632907,150.232156 C297.608848,152.278225 297.478006,154.321674 297.240911,156.354254 C296.964208,158.647175 296.618328,161.146458 296.180215,163.622813 L282.621756,249.928343 L340.49885,249.928343 L348.984416,196.824303 C350.838683,210.996508 356.699744,224.35439 365.886372,235.345368 C377.215205,249.144727 394.325609,256.957801 412.234165,256.509025 C423.037238,256.581652 433.712191,254.180909 443.432455,249.492688 C453.617725,244.447761 462.687855,237.431938 470.111259,228.856403 L466.652468,249.928343 L521.139947,249.928343 L531.285733,185.726567 C532.992069,206.515714 540.240157,223.055314 553.029996,235.345368 C567.787502,249.485045 588.540244,256.554884 615.288224,256.554884 C629.140455,256.739931 642.917157,254.496801 655.986659,249.928343 C668.01651,245.630598 679.011696,238.883076 688.268703,230.11751 L657.047354,198.796214 C650.995573,204.511372 644.136141,209.316156 636.686608,213.05818 C630.376864,216.009996 623.483365,217.521972 616.51033,217.483517 C606.349172,217.483517 598.616854,214.8008 593.313375,209.435366 C588.009897,204.069932 585.365843,196.2205 585.381216,185.887072 L585.381216,182.17254 L705.285952,182.17254 L694.609819,249.928343 L751.679862,249.928343 L763.347515,175.614787 C765.730237,161.092957 770.134431,150.392661 776.560095,143.513899 C782.985759,136.635137 791.771087,133.126969 802.916078,132.989394 C804.645473,132.989394 806.444044,133.10404 808.265674,133.264544 C801.663868,148.148193 798.391002,164.279873 798.673295,180.544567 C798.673295,202.908185 804.699277,221.15219 816.75124,235.276581 C828.053644,249.076541 845.136824,256.905772 863.029856,256.486096 C873.807434,256.552045 884.456703,254.1596 894.158971,249.492688 C904.338624,244.449382 913.401501,237.433105 920.814716,228.856403 L917.517336,249.928343 L971.981756,249.928343 L981.781663,188.019488 C983.349579,205.716836 991.32151,222.24744 1004.21768,234.542846 C1019.59009,249.17168 1040.09687,256.486096 1065.73804,256.486096 C1094.69964,256.486096 1118.37314,247.673638 1136.75853,230.048722 C1147.44213,219.956521 1155.37588,207.333763 1159.81714,193.361993 C1161.29203,208.352014 1167.35188,222.532366 1177.18027,233.992545 C1189.29372,247.750069 1204.96588,254.628831 1224.19676,254.628831 C1234.77005,254.757315 1245.23148,252.46652 1254.77247,247.933502 C1264.43837,243.130633 1272.93038,236.282808 1279.6527,227.870447 L1277.55437,241.880192 C1275.5867,256.188017 1271.15176,266.888313 1264.24955,273.98108 C1257.34734,281.073848 1247.83183,284.597303 1235.703,284.551444 C1227.81696,284.551444 1221.61419,282.762966 1217.07165,279.231868 C1212.42561,275.491644 1209.54552,270.004515 1209.11643,264.075663 L1148.74901,264.075663 C1151.56216,283.748922 1160.17839,298.660549 1174.5977,308.810544 C1189.01702,318.960539 1208.82436,324.035537 1234.01972,324.035537 C1250.05937,324.288786 1265.99821,321.47077 1280.96704,315.735164 C1294.16127,310.69035 1305.88818,302.464551 1315.09377,291.797073 C1323.94827,281.096777 1330.91966,258.633798 1336.00792,224.408137 C1336.65357,219.822296 1337.18391,216.359986 1337.62203,213.768986 L1357.2449,89.4239027 L1303.08024,89.4239027 Z M470.872193,194.668957 C463.860966,203.220544 453.30502,208.118445 442.210349,207.967897 C431.741743,207.967897 423.286922,204.796023 416.845885,198.452276 C410.404849,192.108529 407.222762,183.701154 407.299624,173.23015 C407.299624,159.885352 411.104293,148.894619 418.713632,140.257952 C425.935116,131.771056 436.63718,126.998175 447.813589,127.280021 C457.057699,126.925259 466.048759,130.327656 472.716881,136.703925 C479.232207,143.20483 482.725484,152.11339 482.355377,161.284034 C482.370749,174.689976 478.543021,185.818284 470.872193,194.668957 Z M589.27812,149.039838 C591.983401,140.833332 596.953072,133.547777 603.620571,128.013756 C609.66333,123.048976 617.272885,120.361607 625.111189,120.424189 C632.997028,120.072414 640.698457,122.861719 646.509573,128.17426 C652.07004,133.728749 655.258699,141.203869 655.410194,149.039838 L589.27812,149.039838 Z M921.829295,194.668957 C914.807973,203.23326 904.232094,208.132527 893.121334,207.967897 C882.621983,207.967897 874.167162,204.796023 867.75687,198.452276 C861.346578,192.108529 858.156805,183.701154 858.18733,173.23015 C858.18733,159.885352 862.03065,148.894619 869.716851,140.257952 C876.945944,131.817903 887.625508,127.081209 898.770691,127.371738 C908.00779,127.017937 916.991345,130.420645 923.650924,136.795642 C930.191579,143.28483 933.710514,152.194874 933.358596,161.37575 C933.358596,174.720548 929.515496,185.818284 921.829295,194.668957 Z M1097.69726,195.952993 C1090.52525,204.865761 1079.58982,209.951057 1068.11307,209.710516 C1059.57074,210.09486 1051.26281,206.871949 1045.23894,200.836914 C1039.52041,194.921179 1036.65345,186.964744 1036.63808,176.96761 C1036.28719,164.4722 1040.4604,152.266952 1048.39797,142.573802 C1056.25326,133.126969 1065.7611,128.403553 1076.92146,128.403553 C1086.88278,128.403553 1094.74576,131.330848 1100.51041,137.185438 C1106.27506,143.040029 1109.16507,151.019393 1109.18045,161.123529 C1109.18045,175.278492 1105.32197,186.888313 1097.60503,195.952993 L1097.69726,195.952993 Z M1280.41363,198.245913 C1273.14028,206.90834 1262.31461,211.831375 1250.9678,211.63657 C1241.82419,211.995231 1232.95711,208.478301 1226.57179,201.960445 C1220.26578,195.095714 1216.94962,186.027454 1217.34835,176.738318 C1217.34835,163.500524 1221.19145,152.53272 1228.87765,143.834908 C1235.95417,135.38658 1246.48326,130.560105 1257.5395,130.696473 C1267.91587,130.696473 1276.26308,133.814845 1282.58114,140.051589 C1289.03153,146.611521 1292.46231,155.534617 1292.05823,164.700485 C1292.05823,178.121714 1288.14595,189.280594 1280.3214,198.177126 L1280.41363,198.245913 Z" id="Shape"></path>
                        </g>
                        <g id="Group-3"></g>
                        <path d="M170.128034,159.867857 L181.853075,85.9727698 L124.377387,85.9727698 L114.284657,150.429544 C114.077744,151.511497 113.801861,153.076876 113.479997,155.033599 C107.671121,192.786852 96.4595301,211.663479 79.8452248,211.663479 C72.7488933,211.663479 67.3385152,209.614674 63.6140907,205.517065 C59.8896661,201.419456 58.0274539,195.487898 58.0274539,187.722392 C58.0274539,185.880769 58.4182886,181.967322 59.1539774,175.982051 C59.8896661,169.996779 60.9472188,162.515189 62.2346742,153.560301 L72.9021617,85.9727698 L15.6793675,85.9727698 L5.65560763,148.541881 C3.41788754,162.077804 1.90819282,172.137664 1.12652347,178.721463 C0.447342954,184.121212 0.0712441669,189.554861 0,194.996799 C0,213.673916 6.89708247,228.452934 20.6912474,239.333851 C34.4854124,250.214769 53.4217355,255.670574 77.5002167,255.701268 C90.2046604,255.888067 102.85447,253.998617 114.951375,250.107341 C125.41378,246.724789 134.994285,241.055479 142.99951,233.509721 C155.077068,221.76938 163.966641,198.357759 169.668229,163.274858 L170.128034,159.867857 Z" id="Path" fill="#FFA8BB" fill-rule="nonzero"></path>
                        <path d="M1303.08024,89.4239027 L1299.3678,112.353108 C1292.80503,103.521654 1284.35503,96.2467199 1274.62592,91.0518763 C1265.2761,86.377307 1254.92919,84.0174782 1244.46527,84.1731145 C1221.00243,83.7271051 1198.57245,93.7559597 1183.33691,111.504728 C1173.93514,121.995591 1167.04503,134.467726 1163.18369,147.985094 C1161.14553,131.08663 1153.26308,115.418303 1140.88602,103.662939 C1125.20617,88.9423893 1104.28434,81.5821143 1078.12051,81.5821143 C1049.80454,81.5821143 1026.56916,90.4480739 1008.41435,108.179993 C1001.11778,115.263295 995.096775,123.538371 990.613108,132.645456 L1011.55032,0 L954.803097,0 L941.175463,85.7781589 C940.645115,89.4239027 940.207001,93.0008588 939.884181,96.486098 C939.56136,99.9713373 939.39995,103.36486 939.39995,106.574949 L939.39995,111.16079 C932.612066,102.304191 924.024743,94.9681926 914.196897,89.6302655 C904.908178,84.9690702 894.624196,82.6091613 884.220713,82.7515038 C863.594968,82.3582322 843.667959,90.1852303 828.880065,104.488391 L833.491786,84.3565482 C830.240523,83.8291764 827.865487,83.4852384 826.343619,83.3247339 C824.996243,83.169817 823.641593,83.0856265 822.285305,83.0725127 C811.771388,82.8403598 801.415219,85.6438516 792.470531,91.1435931 C783.514463,96.9297263 776.397107,105.128396 771.948374,114.783604 L776.006688,87.1309821 L720.550748,87.1309821 L709.275091,157.91344 C707.73785,136.329415 700.136198,118.696855 686.470132,105.015763 C671.09773,89.6531947 650.752356,81.9719108 625.43401,81.9719108 C597.5331,81.9719108 574.805003,90.6773659 557.24972,108.088276 C549.92627,115.273491 543.959387,123.707616 539.632947,132.989394 L560.685452,0 L503.938229,0 L490.333654,85.7781589 C489.780247,89.4239027 489.342134,93.0008588 489.019313,96.486098 C488.696493,99.9713373 488.535083,103.36486 488.535083,106.574949 L488.535083,111.16079 C481.752765,102.298972 473.164226,94.9619333 463.332029,89.6302655 C454.045504,84.9630447 443.760012,82.6027895 433.355845,82.7515038 C409.783444,82.3115759 387.276998,92.5027619 372.135254,110.472914 C366.095287,117.360923 361.093183,125.084578 357.285513,133.402119 C357.285513,117.198814 352.612303,104.572465 343.265883,95.5230714 C333.919462,86.4736782 320.783745,81.9336954 303.85873,81.9031232 C293.725653,81.8133765 283.738584,84.3079741 274.851007,89.1487522 C264.547778,95.2198044 255.476103,103.151858 248.103027,112.536542 L252.138283,87.1309821 L196.797635,87.1309821 L170.764472,249.928343 L227.765339,249.928343 L239.432993,174.009743 C241.923322,158.203877 246.004695,146.701059 251.677111,139.501288 C257.316179,132.31376 266.107901,128.288673 275.266062,128.701632 C282.61407,128.701632 288.17888,130.528326 291.960491,134.181712 C295.742102,137.827456 297.632907,143.215819 297.632907,150.232156 C297.608848,152.278225 297.478006,154.321674 297.240911,156.354254 C296.964208,158.647175 296.618328,161.146458 296.180215,163.622813 L282.621756,249.928343 L340.49885,249.928343 L348.984416,196.824303 C350.838683,210.996508 356.699744,224.35439 365.886372,235.345368 C377.215205,249.144727 394.325609,256.957801 412.234165,256.509025 C423.037238,256.581652 433.712191,254.180909 443.432455,249.492688 C453.617725,244.447761 462.687855,237.431938 470.111259,228.856403 L466.652468,249.928343 L521.139947,249.928343 L531.285733,185.726567 C532.992069,206.515714 540.240157,223.055314 553.029996,235.345368 C567.787502,249.485045 588.540244,256.554884 615.288224,256.554884 C629.140455,256.739931 642.917157,254.496801 655.986659,249.928343 C668.01651,245.630598 679.011696,238.883076 688.268703,230.11751 L657.047354,198.796214 C650.995573,204.511372 644.136141,209.316156 636.686608,213.05818 C630.376864,216.009996 623.483365,217.521972 616.51033,217.483517 C606.349172,217.483517 598.616854,214.8008 593.313375,209.435366 C588.009897,204.069932 585.365843,196.2205 585.381216,185.887072 L585.381216,182.17254 L705.285952,182.17254 L694.609819,249.928343 L751.679862,249.928343 L763.347515,175.614787 C765.730237,161.092957 770.134431,150.392661 776.560095,143.513899 C782.985759,136.635137 791.771087,133.126969 802.916078,132.989394 C804.645473,132.989394 806.444044,133.10404 808.265674,133.264544 C801.663868,148.148193 798.391002,164.279873 798.673295,180.544567 C798.673295,202.908185 804.699277,221.15219 816.75124,235.276581 C828.053644,249.076541 845.136824,256.905772 863.029856,256.486096 C873.807434,256.552045 884.456703,254.1596 894.158971,249.492688 C904.338624,244.449382 913.401501,237.433105 920.814716,228.856403 L917.517336,249.928343 L971.981756,249.928343 L981.781663,188.019488 C983.349579,205.716836 991.32151,222.24744 1004.21768,234.542846 C1019.59009,249.17168 1040.09687,256.486096 1065.73804,256.486096 C1094.69964,256.486096 1118.37314,247.673638 1136.75853,230.048722 C1147.44213,219.956521 1155.37588,207.333763 1159.81714,193.361993 C1161.29203,208.352014 1167.35188,222.532366 1177.18027,233.992545 C1189.29372,247.750069 1204.96588,254.628831 1224.19676,254.628831 C1234.77005,254.757315 1245.23148,252.46652 1254.77247,247.933502 C1264.43837,243.130633 1272.93038,236.282808 1279.6527,227.870447 L1277.55437,241.880192 C1275.5867,256.188017 1271.15176,266.888313 1264.24955,273.98108 C1257.34734,281.073848 1247.83183,284.597303 1235.703,284.551444 C1227.81696,284.551444 1221.61419,282.762966 1217.07165,279.231868 C1212.42561,275.491644 1209.54552,270.004515 1209.11643,264.075663 L1148.74901,264.075663 C1151.56216,283.748922 1160.17839,298.660549 1174.5977,308.810544 C1189.01702,318.960539 1208.82436,324.035537 1234.01972,324.035537 C1250.05937,324.288786 1265.99821,321.47077 1280.96704,315.735164 C1294.16127,310.69035 1305.88818,302.464551 1315.09377,291.797073 C1323.94827,281.096777 1330.91966,258.633798 1336.00792,224.408137 C1336.65357,219.822296 1337.18391,216.359986 1337.62203,213.768986 L1357.2449,89.4239027 L1303.08024,89.4239027 Z M470.872193,194.668957 C463.860966,203.220544 453.30502,208.118445 442.210349,207.967897 C431.741743,207.967897 423.286922,204.796023 416.845885,198.452276 C410.404849,192.108529 407.222762,183.701154 407.299624,173.23015 C407.299624,159.885352 411.104293,148.894619 418.713632,140.257952 C425.935116,131.771056 436.63718,126.998175 447.813589,127.280021 C457.057699,126.925259 466.048759,130.327656 472.716881,136.703925 C479.232207,143.20483 482.725484,152.11339 482.355377,161.284034 C482.370749,174.689976 478.543021,185.818284 470.872193,194.668957 Z M589.27812,149.039838 C591.983401,140.833332 596.953072,133.547777 603.620571,128.013756 C609.66333,123.048976 617.272885,120.361607 625.111189,120.424189 C632.997028,120.072414 640.698457,122.861719 646.509573,128.17426 C652.07004,133.728749 655.258699,141.203869 655.410194,149.039838 L589.27812,149.039838 Z M921.829295,194.668957 C914.807973,203.23326 904.232094,208.132527 893.121334,207.967897 C882.621983,207.967897 874.167162,204.796023 867.75687,198.452276 C861.346578,192.108529 858.156805,183.701154 858.18733,173.23015 C858.18733,159.885352 862.03065,148.894619 869.716851,140.257952 C876.945944,131.817903 887.625508,127.081209 898.770691,127.371738 C908.00779,127.017937 916.991345,130.420645 923.650924,136.795642 C930.191579,143.28483 933.710514,152.194874 933.358596,161.37575 C933.358596,174.720548 929.515496,185.818284 921.829295,194.668957 Z M1097.69726,195.952993 C1090.52525,204.865761 1079.58982,209.951057 1068.11307,209.710516 C1059.57074,210.09486 1051.26281,206.871949 1045.23894,200.836914 C1039.52041,194.921179 1036.65345,186.964744 1036.63808,176.96761 C1036.28719,164.4722 1040.4604,152.266952 1048.39797,142.573802 C1056.25326,133.126969 1065.7611,128.403553 1076.92146,128.403553 C1086.88278,128.403553 1094.74576,131.330848 1100.51041,137.185438 C1106.27506,143.040029 1109.16507,151.019393 1109.18045,161.123529 C1109.18045,175.278492 1105.32197,186.888313 1097.60503,195.952993 L1097.69726,195.952993 Z M1280.41363,198.245913 C1273.14028,206.90834 1262.31461,211.831375 1250.9678,211.63657 C1241.82419,211.995231 1232.95711,208.478301 1226.57179,201.960445 C1220.26578,195.095714 1216.94962,186.027454 1217.34835,176.738318 C1217.34835,163.500524 1221.19145,152.53272 1228.87765,143.834908 C1235.95417,135.38658 1246.48326,130.560105 1257.5395,130.696473 C1267.91587,130.696473 1276.26308,133.814845 1282.58114,140.051589 C1289.03153,146.611521 1292.46231,155.534617 1292.05823,164.700485 C1292.05823,178.121714 1288.14595,189.280594 1280.3214,198.177126 L1280.41363,198.245913 Z" id="Shape" fill="#FFA8BB" fill-rule="nonzero"></path>
                        <g id="Group-3" transform="translate(34.653061, 28.872180)" fill="#26241D" fill-rule="nonzero">
                            <path d="M170.128034,159.867857 L181.853075,85.9727698 L124.377387,85.9727698 L114.284657,150.429544 C114.077744,151.511497 113.801861,153.076876 113.479997,155.033599 C107.671121,192.786852 96.4595301,211.663479 79.8452248,211.663479 C72.7488933,211.663479 67.3385152,209.614674 63.6140907,205.517065 C59.8896661,201.419456 58.0274539,195.487898 58.0274539,187.722392 C58.0274539,185.880769 58.4182886,181.967322 59.1539774,175.982051 C59.8896661,169.996779 60.9472188,162.515189 62.2346742,153.560301 L72.9021617,85.9727698 L15.6793675,85.9727698 L5.65560763,148.541881 C3.41788754,162.077804 1.90819282,172.137664 1.12652347,178.721463 C0.447342954,184.121212 0.0712441669,189.554861 4.26325641e-14,194.996799 C4.26325641e-14,213.673916 6.89708247,228.452934 20.6912474,239.333851 C34.4854124,250.214769 53.4217355,255.670574 77.5002167,255.701268 C90.2046604,255.888067 102.85447,253.998617 114.951375,250.107341 C125.41378,246.724789 134.994285,241.055479 142.99951,233.509721 C155.077068,221.76938 163.966641,198.357759 169.668229,163.274858 L170.128034,159.867857 Z" id="Path"></path>
                            <path d="M1303.08024,89.4239027 L1299.3678,112.353108 C1292.80503,103.521654 1284.35503,96.2467199 1274.62592,91.0518763 C1265.2761,86.377307 1254.92919,84.0174782 1244.46527,84.1731145 C1221.00243,83.7271051 1198.57245,93.7559597 1183.33691,111.504728 C1173.93514,121.995591 1167.04503,134.467726 1163.18369,147.985094 C1161.14553,131.08663 1153.26308,115.418303 1140.88602,103.662939 C1125.20617,88.9423893 1104.28434,81.5821143 1078.12051,81.5821143 C1049.80454,81.5821143 1026.56916,90.4480739 1008.41435,108.179993 C1001.11778,115.263295 995.096775,123.538371 990.613108,132.645456 L1011.55032,-1.42108547e-14 L954.803097,-1.42108547e-14 L941.175463,85.7781589 C940.645115,89.4239027 940.207001,93.0008588 939.884181,96.486098 C939.56136,99.9713373 939.39995,103.36486 939.39995,106.574949 L939.39995,111.16079 C932.612066,102.304191 924.024743,94.9681926 914.196897,89.6302655 C904.908178,84.9690702 894.624196,82.6091613 884.220713,82.7515038 C863.594968,82.3582322 843.667959,90.1852303 828.880065,104.488391 L833.491786,84.3565482 C830.240523,83.8291764 827.865487,83.4852384 826.343619,83.3247339 C824.996243,83.169817 823.641593,83.0856265 822.285305,83.0725127 C811.771388,82.8403598 801.415219,85.6438516 792.470531,91.1435931 C783.514463,96.9297263 776.397107,105.128396 771.948374,114.783604 L776.006688,87.1309821 L720.550748,87.1309821 L709.275091,157.91344 C707.73785,136.329415 700.136198,118.696855 686.470132,105.015763 C671.09773,89.6531947 650.752356,81.9719108 625.43401,81.9719108 C597.5331,81.9719108 574.805003,90.6773659 557.24972,108.088276 C549.92627,115.273491 543.959387,123.707616 539.632947,132.989394 L560.685452,-1.42108547e-14 L503.938229,-1.42108547e-14 L490.333654,85.7781589 C489.780247,89.4239027 489.342134,93.0008588 489.019313,96.486098 C488.696493,99.9713373 488.535083,103.36486 488.535083,106.574949 L488.535083,111.16079 C481.752765,102.298972 473.164226,94.9619333 463.332029,89.6302655 C454.045504,84.9630447 443.760012,82.6027895 433.355845,82.7515038 C409.783444,82.3115759 387.276998,92.5027619 372.135254,110.472914 C366.095287,117.360923 361.093183,125.084578 357.285513,133.402119 C357.285513,117.198814 352.612303,104.572465 343.265883,95.5230714 C333.919462,86.4736782 320.783745,81.9336954 303.85873,81.9031232 C293.725653,81.8133765 283.738584,84.3079741 274.851007,89.1487522 C264.547778,95.2198044 255.476103,103.151858 248.103027,112.536542 L252.138283,87.1309821 L196.797635,87.1309821 L170.764472,249.928343 L227.765339,249.928343 L239.432993,174.009743 C241.923322,158.203877 246.004695,146.701059 251.677111,139.501288 C257.316179,132.31376 266.107901,128.288673 275.266062,128.701632 C282.61407,128.701632 288.17888,130.528326 291.960491,134.181712 C295.742102,137.827456 297.632907,143.215819 297.632907,150.232156 C297.608848,152.278225 297.478006,154.321674 297.240911,156.354254 C296.964208,158.647175 296.618328,161.146458 296.180215,163.622813 L282.621756,249.928343 L340.49885,249.928343 L348.984416,196.824303 C350.838683,210.996508 356.699744,224.35439 365.886372,235.345368 C377.215205,249.144727 394.325609,256.957801 412.234165,256.509025 C423.037238,256.581652 433.712191,254.180909 443.432455,249.492688 C453.617725,244.447761 462.687855,237.431938 470.111259,228.856403 L466.652468,249.928343 L521.139947,249.928343 L531.285733,185.726567 C532.992069,206.515714 540.240157,223.055314 553.029996,235.345368 C567.787502,249.485045 588.540244,256.554884 615.288224,256.554884 C629.140455,256.739931 642.917157,254.496801 655.986659,249.928343 C668.01651,245.630598 679.011696,238.883076 688.268703,230.11751 L657.047354,198.796214 C650.995573,204.511372 644.136141,209.316156 636.686608,213.05818 C630.376864,216.009996 623.483365,217.521972 616.51033,217.483517 C606.349172,217.483517 598.616854,214.8008 593.313375,209.435366 C588.009897,204.069932 585.365843,196.2205 585.381216,185.887072 L585.381216,182.17254 L705.285952,182.17254 L694.609819,249.928343 L751.679862,249.928343 L763.347515,175.614787 C765.730237,161.092957 770.134431,150.392661 776.560095,143.513899 C782.985759,136.635137 791.771087,133.126969 802.916078,132.989394 C804.645473,132.989394 806.444044,133.10404 808.265674,133.264544 C801.663868,148.148193 798.391002,164.279873 798.673295,180.544567 C798.673295,202.908185 804.699277,221.15219 816.75124,235.276581 C828.053644,249.076541 845.136824,256.905772 863.029856,256.486096 C873.807434,256.552045 884.456703,254.1596 894.158971,249.492688 C904.338624,244.449382 913.401501,237.433105 920.814716,228.856403 L917.517336,249.928343 L971.981756,249.928343 L981.781663,188.019488 C983.349579,205.716836 991.32151,222.24744 1004.21768,234.542846 C1019.59009,249.17168 1040.09687,256.486096 1065.73804,256.486096 C1094.69964,256.486096 1118.37314,247.673638 1136.75853,230.048722 C1147.44213,219.956521 1155.37588,207.333763 1159.81714,193.361993 C1161.29203,208.352014 1167.35188,222.532366 1177.18027,233.992545 C1189.29372,247.750069 1204.96588,254.628831 1224.19676,254.628831 C1234.77005,254.757315 1245.23148,252.46652 1254.77247,247.933502 C1264.43837,243.130633 1272.93038,236.282808 1279.6527,227.870447 L1277.55437,241.880192 C1275.5867,256.188017 1271.15176,266.888313 1264.24955,273.98108 C1257.34734,281.073848 1247.83183,284.597303 1235.703,284.551444 C1227.81696,284.551444 1221.61419,282.762966 1217.07165,279.231868 C1212.42561,275.491644 1209.54552,270.004515 1209.11643,264.075663 L1148.74901,264.075663 C1151.56216,283.748922 1160.17839,298.660549 1174.5977,308.810544 C1189.01702,318.960539 1208.82436,324.035537 1234.01972,324.035537 C1250.05937,324.288786 1265.99821,321.47077 1280.96704,315.735164 C1294.16127,310.69035 1305.88818,302.464551 1315.09377,291.797073 C1323.94827,281.096777 1330.91966,258.633798 1336.00792,224.408137 C1336.65357,219.822296 1337.18391,216.359986 1337.62203,213.768986 L1357.2449,89.4239027 L1303.08024,89.4239027 Z M470.872193,194.668957 C463.860966,203.220544 453.30502,208.118445 442.210349,207.967897 C431.741743,207.967897 423.286922,204.796023 416.845885,198.452276 C410.404849,192.108529 407.222762,183.701154 407.299624,173.23015 C407.299624,159.885352 411.104293,148.894619 418.713632,140.257952 C425.935116,131.771056 436.63718,126.998175 447.813589,127.280021 C457.057699,126.925259 466.048759,130.327656 472.716881,136.703925 C479.232207,143.20483 482.725484,152.11339 482.355377,161.284034 C482.370749,174.689976 478.543021,185.818284 470.872193,194.668957 Z M589.27812,149.039838 C591.983401,140.833332 596.953072,133.547777 603.620571,128.013756 C609.66333,123.048976 617.272885,120.361607 625.111189,120.424189 C632.997028,120.072414 640.698457,122.861719 646.509573,128.17426 C652.07004,133.728749 655.258699,141.203869 655.410194,149.039838 L589.27812,149.039838 Z M921.829295,194.668957 C914.807973,203.23326 904.232094,208.132527 893.121334,207.967897 C882.621983,207.967897 874.167162,204.796023 867.75687,198.452276 C861.346578,192.108529 858.156805,183.701154 858.18733,173.23015 C858.18733,159.885352 862.03065,148.894619 869.716851,140.257952 C876.945944,131.817903 887.625508,127.081209 898.770691,127.371738 C908.00779,127.017937 916.991345,130.420645 923.650924,136.795642 C930.191579,143.28483 933.710514,152.194874 933.358596,161.37575 C933.358596,174.720548 929.515496,185.818284 921.829295,194.668957 Z M1097.69726,195.952993 C1090.52525,204.865761 1079.58982,209.951057 1068.11307,209.710516 C1059.57074,210.09486 1051.26281,206.871949 1045.23894,200.836914 C1039.52041,194.921179 1036.65345,186.964744 1036.63808,176.96761 C1036.28719,164.4722 1040.4604,152.266952 1048.39797,142.573802 C1056.25326,133.126969 1065.7611,128.403553 1076.92146,128.403553 C1086.88278,128.403553 1094.74576,131.330848 1100.51041,137.185438 C1106.27506,143.040029 1109.16507,151.019393 1109.18045,161.123529 C1109.18045,175.278492 1105.32197,186.888313 1097.60503,195.952993 L1097.69726,195.952993 Z M1280.41363,198.245913 C1273.14028,206.90834 1262.31461,211.831375 1250.9678,211.63657 C1241.82419,211.995231 1232.95711,208.478301 1226.57179,201.960445 C1220.26578,195.095714 1216.94962,186.027454 1217.34835,176.738318 C1217.34835,163.500524 1221.19145,152.53272 1228.87765,143.834908 C1235.95417,135.38658 1246.48326,130.560105 1257.5395,130.696473 C1267.91587,130.696473 1276.26308,133.814845 1282.58114,140.051589 C1289.03153,146.611521 1292.46231,155.534617 1292.05823,164.700485 C1292.05823,178.121714 1288.14595,189.280594 1280.3214,198.177126 L1280.41363,198.245913 Z" id="Shape"></path>
                        </g>
                    </g>
                </g>
            </g>
        </g>
    </g>
</svg>