<svg xmlns="http://www.w3.org/2000/svg" xmlns:xlink="http://www.w3.org/1999/xlink" viewBox="0 0 164.12 38.6"><defs><style>.cls-1{fill:url(#New_Gradient_Swatch_1);}.cls-2{fill:url(#New_Gradient_Swatch_1-2);}.cls-3{fill:url(#New_Gradient_Swatch_1-3);}.cls-4{fill:url(#New_Gradient_Swatch_1-4);}.cls-5{fill:url(#New_Gradient_Swatch_1-5);}.cls-6{fill:url(#New_Gradient_Swatch_1-6);}.cls-7{fill:url(#linear-gradient);}.cls-8{fill:url(#linear-gradient-2);}.cls-9{fill:url(#linear-gradient-3);}.cls-10{fill:url(#linear-gradient-4);}.cls-11{fill:url(#linear-gradient-5);}.cls-12{fill:url(#linear-gradient-6);}</style><linearGradient id="New_Gradient_Swatch_1" x1="16.47" y1="33.17" x2="15" y2="12.16" gradientUnits="userSpaceOnUse"><stop offset="0" stop-color="#62c5e3"/><stop offset="0.37" stop-color="#62c5e3"/><stop offset="0.72" stop-color="#f4a6bb"/></linearGradient><linearGradient id="New_Gradient_Swatch_1-2" x1="47.54" y1="31" x2="46.07" y2="9.99" xlink:href="#New_Gradient_Swatch_1"/><linearGradient id="New_Gradient_Swatch_1-3" x1="70" y1="29.43" x2="68.53" y2="8.42" xlink:href="#New_Gradient_Swatch_1"/><linearGradient id="New_Gradient_Swatch_1-4" x1="97.46" y1="27.52" x2="95.99" y2="6.51" xlink:href="#New_Gradient_Swatch_1"/><linearGradient id="New_Gradient_Swatch_1-5" x1="128.73" y1="25.34" x2="127.26" y2="4.33" xlink:href="#New_Gradient_Swatch_1"/><linearGradient id="New_Gradient_Swatch_1-6" x1="151.45" y1="23.75" x2="149.98" y2="2.74" xlink:href="#New_Gradient_Swatch_1"/><linearGradient id="linear-gradient" x1="-31.94" y1="42.5" x2="-75.91" y2="65.47" gradientUnits="userSpaceOnUse"><stop offset="0" stop-color="#f6f6f6"/><stop offset="1" stop-color="#ededed"/></linearGradient><linearGradient id="linear-gradient-2" x1="-26.15" y1="53.59" x2="-70.12" y2="76.55" xlink:href="#linear-gradient"/><linearGradient id="linear-gradient-3" x1="-20.41" y1="64.58" x2="-64.38" y2="87.54" xlink:href="#linear-gradient"/><linearGradient id="linear-gradient-4" x1="-14.5" y1="75.9" x2="-58.47" y2="98.86" xlink:href="#linear-gradient"/><linearGradient id="linear-gradient-5" x1="-8.32" y1="87.73" x2="-52.29" y2="110.7" xlink:href="#linear-gradient"/><linearGradient id="linear-gradient-6" x1="-4.4" y1="95.23" x2="-48.37" y2="118.2" xlink:href="#linear-gradient"/></defs><title>pupper-text-light</title><g id="Layer_2" data-name="Layer 2"><g id="Layer_1-2" data-name="Layer 1"><path class="cls-1" d="M7.67.56h7.71l-.41,2A9.85,9.85,0,0,1,21.87.15c5.88,0,9.76,5.06,9.76,11.3,0,8.89-5.72,15.23-13.13,15.23-4.29,0-7.1-2.41-7.87-3.84l-2.91,14H0ZM23.92,12.21c0-3.27-1.69-5.41-5-5.41-3.78,0-6.54,3.27-6.54,7.46,0,3.27,1.68,5.42,5,5.42C21.16,19.68,23.92,16.4,23.92,12.21Z"/><path class="cls-2" d="M32.54,14.72l3-14.16h7.72l-3,14.06c-.67,3.11.66,5,3.22,5,3,0,4.9-2,5.77-6.23L52,.56h7.72L54.31,26.11H46.59l.51-2.5a8.13,8.13,0,0,1-6.64,3C34.28,26.63,31.36,20.34,32.54,14.72Z"/><path class="cls-3" d="M61.46.56h7.72l-.41,2A9.83,9.83,0,0,1,75.67.15c5.88,0,9.76,5.06,9.76,11.3,0,8.89-5.72,15.23-13.13,15.23-4.3,0-7.11-2.41-7.87-3.84l-2.92,14H53.8ZM77.71,12.21c0-3.27-1.68-5.41-4.95-5.41-3.79,0-6.55,3.27-6.55,7.46,0,3.27,1.69,5.42,5,5.42C75,19.68,77.71,16.4,77.71,12.21Z"/><path class="cls-4" d="M89.05.56h7.72l-.41,2a9.83,9.83,0,0,1,6.9-2.41c5.87,0,9.76,5.06,9.76,11.3,0,8.89-5.73,15.23-13.14,15.23-4.29,0-7.1-2.41-7.87-3.84l-2.91,14H81.38ZM105.3,12.21c0-3.27-1.69-5.41-5-5.41-3.78,0-6.54,3.27-6.54,7.46,0,3.27,1.69,5.42,5,5.42C102.54,19.68,105.3,16.4,105.3,12.21Z"/><path class="cls-5" d="M114.63,14.51C114.63,6,120,0,129.19,0c7.77,0,13.34,6.13,11.65,15.18h-19c.36,3,3,4.5,5.73,4.5a6.66,6.66,0,0,0,5.67-2.92l5.67,4.4c-2.4,3.32-6,5.52-11.85,5.52C118.77,26.68,114.63,20.8,114.63,14.51Zm7.56-4.39h11.45c-.31-2.56-2.51-3.83-5-3.83S123.21,7.56,122.19,10.12Z"/><path class="cls-6" d="M145.28.56H153l-.76,3.53a7.69,7.69,0,0,1,7-3.83,8.35,8.35,0,0,1,2.4.3l-1.64,7.82a8.85,8.85,0,0,0-3.16-.61c-3.48,0-5.83,2.55-6.65,6.23l-2.55,12.11h-7.72Z"/><path class="cls-7" d="M10.2,2.37h7.72l-.41,2A9.9,9.9,0,0,1,24.41,2C30.29,2,34.17,7,34.17,13.25c0,8.89-5.72,15.23-13.13,15.23-4.3,0-7.11-2.4-7.87-3.83l-2.92,14H2.54ZM26.45,14c0-3.27-1.68-5.42-4.95-5.42C17.72,8.6,15,11.87,15,16.06c0,3.27,1.68,5.42,4.95,5.42C23.69,21.48,26.45,18.21,26.45,14Z"/><path class="cls-8" d="M35.08,16.52l3-14.15h7.72l-3,14.05c-.66,3.12.67,5,3.22,5,3,0,4.91-2.05,5.78-6.24L54.55,2.37h7.71L56.85,27.92H49.13l.51-2.51a8.14,8.14,0,0,1-6.64,3C36.81,28.43,33.9,22.14,35.08,16.52Z"/><path class="cls-9" d="M64,2.37h7.72l-.41,2A9.88,9.88,0,0,1,78.21,2C84.08,2,88,7,88,13.25c0,8.89-5.73,15.23-13.14,15.23-4.29,0-7.1-2.4-7.87-3.83l-2.91,14H56.33ZM80.25,14c0-3.27-1.69-5.42-5-5.42-3.78,0-6.54,3.27-6.54,7.46,0,3.27,1.69,5.42,5,5.42C77.49,21.48,80.25,18.21,80.25,14Z"/><path class="cls-10" d="M91.59,2.37H99.3l-.4,2A9.87,9.87,0,0,1,105.79,2c5.88,0,9.77,5.06,9.77,11.29,0,8.89-5.73,15.23-13.14,15.23-4.29,0-7.1-2.4-7.87-3.83l-2.91,14H83.92ZM107.84,14c0-3.27-1.69-5.42-5-5.42-3.78,0-6.54,3.27-6.54,7.46,0,3.27,1.69,5.42,5,5.42C105.08,21.48,107.84,18.21,107.84,14Z"/><path class="cls-11" d="M117.17,16.32c0-8.49,5.41-14.52,14.56-14.52,7.77,0,13.34,6.14,11.65,15.18h-19c.36,3,3,4.5,5.72,4.5a6.68,6.68,0,0,0,5.68-2.91L141.44,23c-2.4,3.32-6,5.52-11.86,5.52C121.3,28.48,117.17,22.6,117.17,16.32Zm7.56-4.4h11.45c-.31-2.55-2.51-3.83-5-3.83S125.75,9.37,124.73,11.92Z"/><path class="cls-12" d="M147.81,2.37h7.72l-.77,3.52a7.72,7.72,0,0,1,7-3.83,8.06,8.06,0,0,1,2.41.31l-1.64,7.81a9.08,9.08,0,0,0-3.17-.61c-3.47,0-5.82,2.56-6.64,6.24l-2.56,12.11H142.4Z"/></g></g></svg>