<?xml version="1.0" encoding="UTF-8"?>
<svg width="785px" height="785px" viewBox="0 0 785 785" version="1.1" xmlns="http://www.w3.org/2000/svg" xmlns:xlink="http://www.w3.org/1999/xlink">
    <!-- Generator: Sketch 55.1 (78136) - https://sketchapp.com -->
    <title>stacked-full</title>
    <desc>Created with Sketch.</desc>
    <defs>
        <linearGradient x1="51.297059%" y1="90.281745%" x2="47.8819565%" y2="31.352603%" id="linearGradient-1">
            <stop stop-color="#26241D" offset="0%"></stop>
            <stop stop-color="#4A4737" offset="100%"></stop>
        </linearGradient>
        <linearGradient x1="52.701787%" y1="84.6385865%" x2="43.1994832%" y2="29.9420768%" id="linearGradient-2">
            <stop stop-color="#FFCA90" offset="0%"></stop>
            <stop stop-color="#FFDD91" offset="100%"></stop>
        </linearGradient>
        <linearGradient x1="50%" y1="14.3981591%" x2="50%" y2="71.1912478%" id="linearGradient-3">
            <stop stop-color="#FCFBFA" offset="0%"></stop>
            <stop stop-color="#E2E2E2" offset="100%"></stop>
        </linearGradient>
        <linearGradient x1="56.87057%" y1="66.1013872%" x2="48.3408821%" y2="44.2785159%" id="linearGradient-4">
            <stop stop-color="#26241D" offset="0%"></stop>
            <stop stop-color="#4A4737" offset="100%"></stop>
        </linearGradient>
        <linearGradient x1="47.0775348%" y1="17.3539406%" x2="56.7660702%" y2="82.0726653%" id="linearGradient-5">
            <stop stop-color="#26241D" offset="0%"></stop>
            <stop stop-color="#4A4737" offset="100%"></stop>
        </linearGradient>
        <linearGradient x1="75.4508197%" y1="100.707443%" x2="41.4071038%" y2="27.3700272%" id="linearGradient-6">
            <stop stop-color="#26241D" offset="0%"></stop>
            <stop stop-color="#4A4737" offset="100%"></stop>
        </linearGradient>
        <linearGradient x1="86.0472373%" y1="115.87475%" x2="47.0670976%" y2="42.8229844%" id="linearGradient-7">
            <stop stop-color="#26241D" offset="0%"></stop>
            <stop stop-color="#4A4737" offset="100%"></stop>
        </linearGradient>
        <linearGradient x1="59.5590475%" y1="80.9027999%" x2="45.6165595%" y2="24.3345518%" id="linearGradient-8">
            <stop stop-color="#26241D" offset="0%"></stop>
            <stop stop-color="#4A4737" offset="100%"></stop>
        </linearGradient>
        <linearGradient x1="50.0124318%" y1="83.5259105%" x2="50.0124318%" y2="-3.60338158%" id="linearGradient-9">
            <stop stop-color="#FFA8BB" offset="0%"></stop>
            <stop stop-color="#FFB79A" offset="100%"></stop>
        </linearGradient>
        <linearGradient x1="18.0189829%" y1="41.6804218%" x2="81.9571483%" y2="58.325826%" id="linearGradient-10">
            <stop stop-color="#00E5FF" stop-opacity="0" offset="0%"></stop>
            <stop stop-color="#00E5FF" stop-opacity="0.06" offset="5%"></stop>
            <stop stop-color="#00E5FF" stop-opacity="0.2" offset="13%"></stop>
            <stop stop-color="#00E5FF" stop-opacity="0.44" offset="25%"></stop>
            <stop stop-color="#00E5FF" stop-opacity="0.77" offset="39%"></stop>
            <stop stop-color="#00E5FF" offset="48%"></stop>
            <stop stop-color="#FFA8BB" offset="82%"></stop>
        </linearGradient>
        <linearGradient x1="21.8115537%" y1="58.6989063%" x2="78.1698042%" y2="41.2956594%" id="linearGradient-11">
            <stop stop-color="#00E5FF" stop-opacity="0" offset="0%"></stop>
            <stop stop-color="#00E5FF" stop-opacity="0.06" offset="5%"></stop>
            <stop stop-color="#00E5FF" stop-opacity="0.2" offset="13%"></stop>
            <stop stop-color="#00E5FF" stop-opacity="0.44" offset="25%"></stop>
            <stop stop-color="#00E5FF" stop-opacity="0.77" offset="39%"></stop>
            <stop stop-color="#00E5FF" offset="48%"></stop>
            <stop stop-color="#FFA8BB" offset="82%"></stop>
        </linearGradient>
        <linearGradient x1="0.760472563%" y1="51.4928255%" x2="99.2523394%" y2="48.5110762%" id="linearGradient-12">
            <stop stop-color="#00E5FF" stop-opacity="0" offset="0%"></stop>
            <stop stop-color="#00E5FF" stop-opacity="0.06" offset="5%"></stop>
            <stop stop-color="#00E5FF" stop-opacity="0.2" offset="13%"></stop>
            <stop stop-color="#00E5FF" stop-opacity="0.44" offset="25%"></stop>
            <stop stop-color="#00E5FF" stop-opacity="0.77" offset="39%"></stop>
            <stop stop-color="#00E5FF" offset="48%"></stop>
            <stop stop-color="#FFA8BB" offset="82%"></stop>
        </linearGradient>
        <linearGradient x1="18.0477469%" y1="58.3161657%" x2="81.9698698%" y2="41.6705657%" id="linearGradient-13">
            <stop stop-color="#00E5FF" stop-opacity="0" offset="0%"></stop>
            <stop stop-color="#00E5FF" stop-opacity="0.06" offset="3%"></stop>
            <stop stop-color="#00E5FF" stop-opacity="0.2" offset="10%"></stop>
            <stop stop-color="#00E5FF" stop-opacity="0.44" offset="19%"></stop>
            <stop stop-color="#00E5FF" stop-opacity="0.77" offset="30%"></stop>
            <stop stop-color="#00E5FF" offset="37%"></stop>
            <stop stop-color="#FFA8BB" offset="72%"></stop>
        </linearGradient>
        <linearGradient x1="21.8403037%" y1="41.289996%" x2="78.2056059%" y2="58.699993%" id="linearGradient-14">
            <stop stop-color="#00E5FF" stop-opacity="0" offset="0%"></stop>
            <stop stop-color="#00E5FF" stop-opacity="0.06" offset="3%"></stop>
            <stop stop-color="#00E5FF" stop-opacity="0.2" offset="10%"></stop>
            <stop stop-color="#00E5FF" stop-opacity="0.44" offset="19%"></stop>
            <stop stop-color="#00E5FF" stop-opacity="0.77" offset="30%"></stop>
            <stop stop-color="#00E5FF" offset="37%"></stop>
            <stop stop-color="#FFA8BB" offset="72%"></stop>
        </linearGradient>
        <linearGradient x1="0.777044631%" y1="48.5025267%" x2="99.2596105%" y2="51.4843545%" id="linearGradient-15">
            <stop stop-color="#00E5FF" stop-opacity="0" offset="0%"></stop>
            <stop stop-color="#00E5FF" stop-opacity="0.06" offset="3%"></stop>
            <stop stop-color="#00E5FF" stop-opacity="0.2" offset="10%"></stop>
            <stop stop-color="#00E5FF" stop-opacity="0.44" offset="19%"></stop>
            <stop stop-color="#00E5FF" stop-opacity="0.77" offset="30%"></stop>
            <stop stop-color="#00E5FF" offset="37%"></stop>
            <stop stop-color="#FFA8BB" offset="72%"></stop>
        </linearGradient>
    </defs>
    <g id="stacked-full" stroke="none" stroke-width="1" fill="none" fill-rule="evenodd">
        <rect fill="#FCEE9D" x="0" y="0" width="785" height="785"></rect>
        <g id="Group-2" transform="translate(81.000000, 61.000000)">
            <g id="underdog-emblem" fill-rule="nonzero">
                <path d="M499.220091,163.944602 L499.220091,163.728947 C491.842991,121.375831 475.546187,81.060427 451.402841,45.4375487 C445.55773,36.7757358 439.276955,28.4139076 432.584561,20.3840757 L415.554017,0 L395.898324,17.8712274 C388.418058,24.678421 381.154201,31.9356771 374.304348,39.5586088 C358.243631,57.3673128 344.31552,76.9767055 332.800631,97.991709 C328.717064,97.8229356 324.652316,97.7479252 320.644022,97.7479252 C299.766327,97.745046 278.94172,99.8434846 258.487243,104.011293 C255.024679,99.1824991 251.420979,94.4380914 247.723187,89.8624571 C233.843714,72.6694795 218.16063,57.0034136 200.940942,43.130979 C195.097866,38.4428291 189.019562,33.8859474 182.865984,29.6291073 L159.907683,13.7644081 L146.226793,38.0490245 C142.331409,44.9781101 138.699481,52.1134742 135.3216,59.3050961 C116.472518,99.7662445 106.759836,143.855275 106.86836,188.463626 C106.86836,190.835829 106.86836,193.151776 106.953042,195.027035 C107.056543,199.874582 107.272953,204.806516 107.621091,209.73845 C88.8177722,250.142075 79.1341655,294.163125 79.251462,338.700077 C79.2417305,360.691919 81.585322,382.622159 86.2435253,404.118521 L87.9371705,411.928978 L93.817883,417.34848 C150.812433,469.998781 225.689851,499.205406 303.406477,499.100719 C306.624403,499.100719 309.992875,499.04418 314.010578,498.903535 C333.851006,498.244409 353.581842,495.685401 372.930613,491.261851 C389.481305,487.456722 405.686235,482.28824 421.378275,475.809709 C470.987369,455.296005 514.391096,422.280067 547.329024,380.002678 L551.892457,374.14249 L552.560506,366.763342 C553.426146,357.330785 553.859649,347.888851 553.859649,338.700077 C553.991115,276.253443 534.922614,215.265276 499.220091,163.944602 L499.220091,163.944602 Z" id="Outline" fill="url(#linearGradient-1)"></path>
                <path d="M474.348541,165.965521 C474.059756,164.053485 473.745859,162.144574 473.406851,160.238787 C464.885895,111.85408 443.78986,66.5317018 412.215824,28.7769784 C405.278706,35.087945 398.664903,41.7238327 392.374412,48.6846414 C374.024262,69.0006098 358.726312,91.8540859 346.956696,116.533781 C338.001222,115.690236 328.932746,115.240345 319.760684,115.240345 C294.938457,115.224924 270.221522,118.451695 246.242933,124.838013 C240.350428,115.49342 233.910699,106.501943 226.957119,97.9101811 C214.208827,82.1288487 199.800569,67.7504808 183.97838,55.020602 C178.604468,50.7091495 173.070469,46.5851515 167.376382,42.648608 C163.779126,49.0220595 160.439265,55.5173563 157.356799,62.1344985 C140.092305,99.2660327 131.177398,139.700294 131.234314,180.615086 C131.234314,182.639594 131.234314,184.65473 131.309649,186.669865 C131.454041,193.393231 131.833856,200.057237 132.449094,206.661883 C104.38401,263.798135 96.4818291,328.680325 110.018034,390.835884 C162.359418,439.138538 231.131033,465.930782 302.50892,465.827338 C305.776585,465.827338 309.025416,465.752056 312.255413,465.648956 C330.485377,465.044323 348.614707,462.696589 366.393181,458.63816 C381.580612,455.150579 396.450787,450.413569 410.850373,444.475976 C456.428003,425.660871 496.300446,395.362248 526.546426,356.559837 C527.318612,348.06815 527.74269,339.482736 527.74269,330.794222 C527.831461,271.625318 509.145004,213.939548 474.348541,165.965521 Z" id="Path" fill="url(#linearGradient-2)"></path>
                <path d="M223.020109,463.438783 C223.020109,463.438783 276.093237,474.820144 304.285396,474.820144 C307.662435,474.820144 311.030067,474.744957 314.388292,474.632178 C333.270607,474.00552 352.048611,471.563212 370.462187,467.339084 C386.207848,463.712129 401.625163,458.786178 416.555473,452.611923 C460.434155,434.425305 499.256853,405.90123 529.709789,369.474418 C531.998776,366.748906 534.234457,363.982668 536.416833,361.175704 C537.21641,352.350686 537.649123,343.412887 537.649123,334.371707 C537.649123,333.2909 537.649123,332.210094 537.649123,331.138686 C537.46897,314.592072 535.895621,298.089941 532.945726,281.806924 C525.661307,287.168515 516.849088,290.057161 507.801368,290.049247 C507.349842,290.049247 506.917129,290.049247 506.47501,290.049247 C485.375573,289.400764 473.711149,262.888114 463.203761,253.997307 C456.205107,251.619533 451.097218,249.17597 443.298987,249.157174 L443.186105,249.157174 C441.728052,249.157174 440.288813,249.222962 438.849573,249.307547 C437.485588,249.17597 436.10279,249.100719 434.701178,249.100719 C424.602564,249.083183 414.830355,252.673209 407.14868,259.22277 C400.56652,263.239441 394.698263,268.321104 389.78374,274.260076 C382.172578,273.121195 374.424438,273.260962 366.859385,274.673602 C352.793956,257.393509 331.269491,247.925313 309.014728,249.228855 C286.759964,250.532398 266.490323,262.448627 254.542273,281.252424 L254.372951,281.252424 C247.601121,281.252901 240.866086,282.247205 234.383516,284.203495 C227.159098,277.145359 217.808746,272.418006 206.934493,272.295828 C196.130532,268.254755 184.147544,268.76805 173.72942,273.718179 C163.311295,278.668308 155.35038,287.631276 151.669583,298.554724 C144.883955,302.468613 139.306206,308.171387 135.546339,315.03937 C131.294743,314.233885 126.976986,313.827985 122.649625,313.826987 C121.342081,313.826987 120.034537,313.826987 118.7364,313.949166 C111.852784,314.328881 105.066056,315.745205 98.605862,318.150213 C98.3111158,323.507253 98.1637427,328.908152 98.1637427,334.35291 C98.1637427,345.027667 98.7434869,355.694561 99.8945926,366.307185 C100.176796,368.825934 100.477814,371.325886 100.835272,373.825838 C101.87629,381.563785 103.218326,389.198351 104.861379,396.729535 C109.545963,401.065291 114.374783,405.244409 119.347841,409.266888 L119.968689,410.272508 C128.293701,417.565602 146.157202,430.742041 146.157202,430.742041 C172.844274,445.732355 198.901091,458.250912 223.020109,463.438783 Z" id="Path" fill="url(#linearGradient-3)" opacity="0.77"></path>
                <path d="M423.84984,310.16003 C422.410245,308.640659 420.796368,307.297456 419.041881,306.158446 C407.262388,314.052797 394.039334,319.528239 380.136856,322.268356 C378.380824,322.616729 376.606011,322.92744 374.812417,323.209905 C369.630079,323.944594 364.401615,324.303315 359.16777,324.283271 C345.524951,324.299255 332.003499,321.714311 319.32369,316.666137 L319.32369,289.568345 L311.811254,289.568345 L311.811254,319.132996 C283.061934,336.823261 247.726822,340.051043 216.262465,327.861159 C216.18734,328.802708 216.140351,329.810166 216.140351,330.789378 C216.126487,341.167169 220.051179,351.161498 227.117934,358.743979 C230.442187,360.448183 233.841564,362.039402 237.287894,363.52705 C289.256809,385.842819 348.776207,381.613454 397.086788,352.171964 C400.786663,349.912246 404.402023,347.464217 407.923477,344.978527 C413.01769,341.309144 417.91393,337.371059 422.591507,333.180913 C426.610752,326.136376 427.077203,317.602778 423.84984,310.16003 Z" id="Path" fill="url(#linearGradient-4)"></path>
                <path d="M348.526316,267.596892 C339.530033,257.100458 326.156307,251.287011 312.264014,251.833972 C298.371721,252.380934 285.506357,259.227455 277.380117,270.398029 C279.493996,289.591378 293.783601,305.287123 312.844776,309.352518 C332.931636,305.067335 347.583113,287.921729 348.526316,267.596892 Z" id="Path" fill="url(#linearGradient-5)"></path>
                <g id="Group" opacity="0.72" transform="translate(153.099415, 75.539568)" fill="#FFFFFF">
                    <path d="M224.300223,54.1382776 C227.564584,53.8392227 230.885391,53.6803498 234.187382,53.6803498 C256.01973,53.6491726 277.345579,60.213414 295.335369,72.502116 C294.301604,45.4256273 282.980526,19.7435223 263.651304,0.626146142 C245.197714,13.9104476 231.428371,32.6348858 224.300223,54.1382776 L224.300223,54.1382776 Z" id="Path"></path>
                    <path d="M2.82221477,109.799866 C18.3368453,87.6478395 41.6676193,72.0996244 68.1847089,66.2406545 C54.9652615,49.7027348 37.1420971,37.3918354 16.9332886,30.8400339 C6.20893887,47.8819547 0.535849847,67.5811672 0.564217229,87.6791508 C0.549202008,95.1102379 1.30579852,102.523058 2.82221477,109.799866 L2.82221477,109.799866 Z" id="Path"></path>
                    <path d="M91.646721,124.780646 C94.2434574,132.644479 100.517313,138.769283 108.477328,141.211398 C116.437344,143.653513 125.095186,142.109721 131.703356,137.069932 C131.945373,135.649539 132.068092,134.211615 132.070244,132.771018 C132.071101,120.53408 123.329036,110.018551 111.232892,107.706482 C102.070313,109.448045 94.5753244,115.98177 91.646721,124.780646 Z" id="Path"></path>
                    <path d="M167.028078,125.902102 C166.786452,127.306831 166.663727,128.729201 166.66119,130.154288 C166.664106,132.040663 166.87547,133.921019 167.291484,135.761567 C171.264329,138.471091 175.92863,140.006984 180.744041,140.191318 C174.432451,137.442087 169.492518,132.295692 167.028078,125.902102 Z" id="Path"></path>
                    <path d="M207.498637,114.687544 C207.496253,112.80114 207.284883,110.920726 206.868343,109.080265 C199.635028,104.164424 190.378213,103.250633 182.312522,106.656226 C174.246832,110.061819 168.48505,117.316942 167.028078,125.902102 C169.494626,132.292168 174.434286,137.434913 180.744041,140.181972 C181.092115,140.181972 181.440188,140.181972 181.797668,140.181972 C195.975096,140.176842 207.472701,128.771636 207.498637,114.687544 Z" id="Path"></path>
                </g>
                <path d="M372.644272,214.937586 C370.06358,216.017316 367.520289,217.152894 364.995699,218.353628 C361.311667,220.10974 357.696205,221.993062 354.149311,224.003594 C351.634072,225.418412 349.165583,226.907694 346.725146,228.443517 C348.12827,233.285402 351.895899,237.092514 356.738261,238.561567 C361.580624,240.03062 366.84081,238.962322 370.718103,235.722385 C371.335904,235.190921 371.914034,234.615407 372.447915,234.000403 C374.773031,231.716836 377.169834,229.498426 379.638322,227.345171 C390.438487,217.881908 402.372812,209.784538 415.169591,203.23741 C400.550792,205.313971 386.259396,209.246025 372.644272,214.937586 L372.644272,214.937586 Z" id="Path" fill="url(#linearGradient-6)"></path>
                <path d="M239.33002,231.917801 C235.705704,230.770954 232.037344,229.735691 228.324937,228.812014 C226.937504,228.467959 225.550071,228.142503 224.153199,227.835643 C220.566637,227.03595 216.942321,226.350941 213.280253,225.780616 C207.856364,224.92513 202.353822,224.305212 196.772628,223.920863 C194.525211,227.492713 193.931216,231.839524 195.139799,235.869776 C200.170424,236.622976 205.125543,237.608646 210.005155,238.770991 C213.62947,239.645075 217.20974,240.618346 220.745965,241.690803 C222.35048,242.180538 223.94241,242.69817 225.521756,243.243697 C228.598648,244.285159 231.62835,245.40721 234.610859,246.60985 C238.581246,248.203039 242.479273,249.932609 246.304939,251.798561 C251.527937,249.325838 254.854141,244.126682 254.865497,238.417638 C254.865497,238.138675 254.865497,237.87831 254.818305,237.599347 C249.765657,235.491627 244.602896,233.597778 239.33002,231.917801 Z" id="Path" fill="url(#linearGradient-7)"></path>
                <path d="M316.24786,419.964029 C302.409336,419.973561 288.833794,416.200594 277.00253,409.056051 L275.664514,408.240121 L274.722249,407.020914 C260.831384,389.486037 255.471505,366.721358 260.088876,344.869496 L260.899224,340.996169 L264.385604,339.120466 C296.99873,321.234023 336.21199,319.841477 370.022914,335.36906 L373.716592,337.066572 L374.771929,340.977412 C380.36638,361.778812 376.744379,383.968904 364.821612,401.937759 L364.048955,403.110073 L362.937083,403.972896 C349.63759,414.402945 333.17957,420.039573 316.24786,419.964029 L316.24786,419.964029 Z" id="Path" fill="url(#linearGradient-8)"></path>
                <path d="M357.227497,394.031462 C367.810526,378.099569 371.022496,358.420392 366.050169,339.976495 C334.670353,325.583841 298.281665,326.88127 268.018371,343.471792 C263.907764,362.850946 268.666546,383.04498 281.006782,398.588503 C304.888108,413.008363 335.254543,411.192832 357.227497,394.031462 L357.227497,394.031462 Z" id="Path" fill="#202020"></path>
                <path d="M357.227497,394.031462 C367.810526,378.099569 371.022496,358.420392 366.050169,339.976495 C334.670353,325.583841 298.281665,326.88127 268.018371,343.471792 C263.907764,362.850946 268.666546,383.04498 281.006782,398.588503 C304.888108,413.008363 335.254543,411.192832 357.227497,394.031462 L357.227497,394.031462 Z" id="Path" fill="url(#linearGradient-9)"></path>
                <path d="M30.8988731,335.993844 L69.5696152,336.041961 C72.8424269,336.046034 75.49455,338.698155 75.4986241,341.970967 L75.5031209,345.583449 C75.5072022,348.86203 72.8526959,351.523153 69.5741153,351.527234 C69.5691898,351.52724 69.5642644,351.52724 69.559339,351.527234 L30.8885969,351.479117 C27.6157852,351.475045 24.9636621,348.822923 24.959588,345.550111 L24.9550912,341.937629 C24.9510099,338.659048 27.6055162,335.997925 30.8840968,335.993844 C30.8890223,335.993838 30.8939477,335.993838 30.8988731,335.993844 Z" id="Rectangle" fill="url(#linearGradient-10)" transform="translate(50.229106, 343.760539) rotate(-40.160000) translate(-50.229106, -343.760539) "></path>
                <path d="M30.8910681,260.196185 L69.5510819,260.147376 C72.8296625,260.143237 75.4908328,262.797696 75.4949721,266.076277 C75.4949784,266.081273 75.4949784,266.08627 75.4949721,266.091266 L75.4904071,269.707036 C75.4862752,272.979764 72.8342349,275.631804 69.5615066,275.635936 L30.9014928,275.684745 C27.6229123,275.688885 24.961742,273.034426 24.9576027,269.755845 C24.9575964,269.750848 24.9575964,269.745852 24.9576027,269.740855 L24.9621677,266.125086 C24.9662996,262.852358 27.6183399,260.200317 30.8910681,260.196185 Z" id="Rectangle" fill="url(#linearGradient-11)" transform="translate(50.226287, 267.916061) rotate(45.000000) translate(-50.226287, -267.916061) "></path>
                <path d="M7.59608867,294.908968 L63.1042033,294.890828 C66.382785,294.885873 69.0414702,297.542822 69.0425416,300.821405 C69.0425421,300.822699 69.0425421,300.823994 69.0386582,300.825288 L69.0374799,304.4222 C69.0325204,307.699265 66.3762003,310.355583 63.0991355,310.360539 L7.59102093,310.378679 C4.31243919,310.383634 1.65375396,307.726686 1.65268255,304.448103 C1.65268212,304.446808 1.65268212,304.445513 1.65656596,304.444219 L1.65774428,300.847308 C1.66270377,297.570243 4.31902389,294.913925 7.59608867,294.908968 Z" id="Rectangle" fill="url(#linearGradient-12)" transform="translate(35.347612, 302.634754) rotate(7.510000) translate(-35.347612, -302.634754) "></path>
                <path d="M561.745891,312.077466 L591.752807,312.040129 C594.297733,312.036962 596.363371,314.097466 596.366537,316.642392 C596.366542,316.646215 596.366542,316.650038 596.366537,316.653862 L596.363047,319.457972 C596.359884,321.99842 594.301232,324.057071 591.760784,324.060232 L561.753868,324.097569 C559.208942,324.100736 557.143305,322.040233 557.140138,319.495306 C557.140133,319.491483 557.140133,319.48766 557.140138,319.483837 L557.143629,316.679727 C557.146791,314.139279 559.205443,312.080627 561.745891,312.077466 Z" id="Rectangle" fill="url(#linearGradient-13)" transform="translate(576.753338, 318.068849) rotate(-139.840000) translate(-576.753338, -318.068849) "></path>
                <path d="M561.746995,253.164746 L591.745586,253.20262 C594.285969,253.205827 596.344557,255.264415 596.347764,257.804799 L596.351308,260.61146 C596.354521,263.156386 594.294055,265.222061 591.749129,265.225274 C591.745251,265.225279 591.741372,265.225279 591.737494,265.225274 L561.738903,265.1874 C559.19852,265.184193 557.139932,263.125605 557.136725,260.585222 L557.133181,257.77856 C557.129968,255.233634 559.190434,253.167959 561.73536,253.164746 C561.739238,253.164741 561.743117,253.164741 561.746995,253.164746 Z" id="Rectangle" fill="url(#linearGradient-14)" transform="translate(576.742245, 259.195010) rotate(135.000000) translate(-576.742245, -259.195010) "></path>
                <path d="M567.619879,280.572114 L610.700497,280.586192 C613.244246,280.59004 615.306156,282.651949 615.310006,285.195698 L615.310921,287.987722 C615.314769,290.532649 613.252373,292.596396 610.707445,292.59723 C610.70644,292.59723 610.705434,292.59723 610.70443,292.594216 L567.623813,292.580137 C565.080063,292.57629 563.018153,290.514381 563.014303,287.970632 L563.013389,285.178608 C563.009541,282.633681 565.071936,280.569933 567.616864,280.5691 C567.61787,280.569099 567.618875,280.569099 567.619879,280.572114 Z" id="Rectangle" fill="url(#linearGradient-15)" transform="translate(589.162155, 286.583165) rotate(172.490000) translate(-589.162155, -286.583165) "></path>
            </g>
            <g id="text" transform="translate(71.000000, 540.000000)">
                <g id="Group-4">
                    <g id="Group-3" transform="translate(20.000000, 20.000000)" fill="#00E5FF" fill-rule="nonzero">
                        <path d="M58.9135949,55.3708984 L62.9738562,29.777027 L43.0706147,29.777027 L39.5756055,52.1018993 C39.5039538,52.4766382 39.4084182,53.0188137 39.2969601,53.696533 C37.2854058,66.7725296 33.4029468,73.3105279 27.6495831,73.3105279 C25.1921962,73.3105279 23.3186378,72.6009159 22.0289077,71.1816919 C20.7391777,69.7624678 20.0943127,67.708048 20.0943127,65.0184325 C20.0943127,64.380579 20.2296547,63.0251403 20.4844162,60.9521165 C20.7391777,58.8790926 21.1053973,56.2878128 21.5512299,53.1862502 L25.2452716,29.777027 L5.42960429,29.777027 L1.95847897,51.4480994 C1.18357943,56.1363226 0.660787619,59.6205973 0.390103534,61.9009235 C0.154910281,63.7711489 0.0246711249,65.6531161 4.26325641e-14,67.5379538 C4.26325641e-14,74.0068513 2.38838898,79.1256256 7.16516695,82.8942766 C11.9419449,86.6629277 18.4993996,88.5525686 26.8375309,88.5631995 C31.2369495,88.6278983 35.6174489,87.9734792 39.8064831,86.6257195 C43.4295067,85.4541587 46.7471375,83.4905695 49.5192649,80.8770649 C53.7015994,76.8107489 56.7799674,68.7020364 58.754369,56.5509274 L58.9135949,55.3708984 Z" id="Path"></path>
                        <path d="M451.243334,30.9723413 L449.957755,38.9139673 C447.685135,35.855156 444.758985,33.3354525 441.389896,31.5361967 C438.152149,29.9171402 434.569118,29.0998036 430.94557,29.1537089 C422.820629,28.9992317 415.053359,32.4727673 409.777447,38.6201271 C406.521708,42.2536812 404.135735,46.5734571 402.798594,51.255254 C402.0928,45.4024005 399.363188,39.9756102 395.077139,35.904091 C389.647368,30.8055671 382.402349,28.2563052 373.342084,28.2563052 C363.536555,28.2563052 355.490379,31.3270672 349.203556,37.4685913 C346.676828,39.9219224 344.591816,42.7880296 343.039168,45.9423062 L350.28951,-1.42108547e-14 L330.638528,-1.42108547e-14 L325.919418,29.7096228 C325.735764,30.9723413 325.58405,32.2112349 325.47226,33.4183621 C325.360471,34.6254892 325.304576,35.8008499 325.304576,36.9126775 L325.304576,38.5010027 C322.954002,35.4334827 319.9803,32.8926292 316.577017,31.0438159 C313.360429,29.4293915 309.799191,28.6120272 306.196572,28.6613281 C299.054088,28.5251169 292.153569,31.2360303 287.032673,36.1899895 L288.629664,29.2172419 C287.503785,29.0345845 286.681335,28.9154602 286.154327,28.8598688 C285.687745,28.8062127 285.218643,28.7770529 284.748975,28.7725109 C281.108113,28.6921038 277.521878,29.6631049 274.424424,31.5679632 C271.32303,33.5720146 268.858362,36.4116579 267.317811,39.7557796 L268.723164,30.1781787 L249.51934,30.1781787 L245.614696,54.6939781 C245.082365,47.2182608 242.449991,41.1111504 237.717572,36.3726469 C232.394267,31.0517575 225.348872,28.3913128 216.581388,28.3913128 C206.919589,28.3913128 199.049082,31.4064835 192.969868,37.4368248 C190.433832,39.9254541 188.367562,42.8466483 186.86936,46.0614306 L194.159626,-1.42108547e-14 L174.508645,-1.42108547e-14 L169.79752,29.7096228 C169.605881,30.9723413 169.454166,32.2112349 169.342377,33.4183621 C169.230588,34.6254892 169.174693,35.8008499 169.174693,36.9126775 L169.174693,38.5010027 C166.826046,35.431675 163.851923,32.8904613 160.447134,31.0438159 C157.231305,29.4273045 153.669545,28.6098203 150.066688,28.6613281 C141.903808,28.5089573 134.110056,32.038717 128.866625,38.2627539 C126.775046,40.6484447 125.042869,43.3235646 123.724312,46.2043799 C123.724312,40.5922975 122.106027,36.2191088 118.869458,33.0848138 C115.632888,29.9505187 111.084124,28.3780768 105.223164,28.367488 C101.714184,28.3364038 98.2557642,29.2004181 95.1780873,30.8770418 C91.6101846,32.979776 88.4687566,35.727076 85.915536,38.9775003 L87.3129037,30.1781787 L68.1490045,30.1781787 L59.1339869,86.5637231 L78.8728031,86.5637231 L82.9131918,60.2689995 C83.7755673,54.794572 85.1889048,50.810523 87.1532045,48.3168524 C89.1059561,45.8274221 92.1504393,44.4333166 95.3218165,44.5763466 C97.8663565,44.5763466 99.793393,45.2090294 101.102926,46.4743952 C102.412459,47.7371137 103.067226,49.6033958 103.067226,52.0335334 C103.058894,52.7421978 103.013585,53.4499546 102.931481,54.1539475 C102.835662,54.9481101 102.715888,55.8137473 102.564173,56.6714429 L97.8690181,86.5637231 L117.911263,86.5637231 L120.849727,68.1709173 C121.491841,73.0795196 123.521466,77.7060777 126.702701,81.512849 C130.62576,86.2923144 136.550918,88.9984051 142.752467,88.8429697 C146.493461,88.8681242 150.190087,88.036617 153.556115,86.4128322 C157.08317,84.6655007 160.224063,82.235541 162.794711,79.2653688 L161.596968,86.5637231 L180.465423,86.5637231 L183.978805,64.3271704 C184.569692,71.5275779 187.07963,77.2561374 191.50862,81.512849 C196.618993,86.410185 203.805456,88.858853 213.068007,88.858853 C217.864892,88.9229449 222.635623,88.1460275 227.161458,86.5637231 C231.327272,85.075181 235.134792,82.7381488 238.340399,79.7021582 L227.528766,68.8538972 C225.433096,70.8333659 223.057745,72.4975229 220.478048,73.7935885 C218.293048,74.8159621 215.9059,75.3396415 213.49121,75.3263223 C209.972505,75.3263223 207.294882,74.3971521 205.458342,72.5388116 C203.621802,70.6804711 202.706193,67.9617878 202.711516,64.3827617 L202.711516,63.0962183 L244.233298,63.0962183 L240.536262,86.5637231 L260.299033,86.5637231 L264.339422,60.8249133 C265.164534,55.7952169 266.689661,52.0891247 268.914803,49.706637 C271.139945,47.3241492 274.182214,46.1090804 278.04161,46.0614306 C278.640482,46.0614306 279.263309,46.1011388 279.89412,46.1567301 C277.607983,51.311744 276.474623,56.8990184 276.572378,62.5323629 C276.572378,70.2780954 278.659113,76.5969825 282.832585,81.4890241 C286.746492,86.2686978 292.662222,88.9803845 298.858396,88.8350281 C302.59056,88.8578698 306.278293,88.0292366 309.638089,86.4128322 C313.163198,84.6660622 316.30158,82.2359451 318.8687,79.2653688 L317.726851,86.5637231 L336.587322,86.5637231 L339.980929,65.121333 C340.523883,71.2508832 343.28448,76.9763269 347.750293,81.2348921 C353.073599,86.3016494 360.174888,88.8350281 369.054161,88.8350281 C379.083268,88.8350281 387.281159,85.7827965 393.647832,79.6783334 C397.347453,76.1828577 400.094828,71.8109127 401.63279,66.9717318 C402.143529,72.1635882 404.241995,77.0750122 407.645463,81.044293 C411.840228,85.8092686 417.267337,88.1917564 423.926792,88.1917564 C427.588216,88.2362576 431.2109,87.4428313 434.514847,85.8728016 C437.862052,84.2093079 440.802745,81.8375352 443.130616,78.9238789 L442.403985,83.7762124 C441.722602,88.731787 440.186829,92.4378791 437.796664,94.8944887 C435.4065,97.3510984 432.111374,98.5714615 427.911286,98.5555783 C425.180431,98.5555783 423.032477,97.9361315 421.45944,96.7131211 C419.850566,95.4176787 418.853219,93.5171889 418.70463,91.4637063 L397.80001,91.4637063 C398.774175,98.2776214 401.757887,103.442325 406.751148,106.957819 C411.744408,110.473312 418.603487,112.231058 427.328385,112.231058 C432.882752,112.318772 438.402208,111.342741 443.585759,109.35619 C448.154787,107.608897 452.215693,104.759857 455.403497,101.065132 C458.469721,97.35904 460.88384,89.5788937 462.645854,77.7246934 C462.869433,76.1363682 463.053087,74.9371827 463.204801,74.0397789 L470,30.9723413 L451.243334,30.9723413 Z M163.058215,67.4244045 C160.630299,70.3862821 156.974883,72.0826906 153.132912,72.0305476 C149.507741,72.0305476 146.579923,70.931956 144.349459,68.7347728 C142.118994,66.5375896 141.017069,63.6256601 141.043686,59.9989842 C141.043686,55.3769579 142.361204,51.5702718 144.99624,48.5789261 C147.496966,45.6394543 151.202981,43.986347 155.073257,44.0839658 C158.274397,43.9610921 161.387909,45.1395265 163.697012,47.347974 C165.953202,49.5995895 167.162888,52.6851065 167.034724,55.8613971 C167.040047,60.5046011 165.714544,64.3589369 163.058215,67.4244045 Z M204.060974,51.6205688 C204.997786,48.7782112 206.718732,46.2548289 209.027618,44.3380978 C211.120164,42.6185256 213.755275,41.687744 216.469599,41.7094196 C219.200384,41.5875809 221.86731,42.5536684 223.87964,44.3936892 C225.805173,46.3175095 226.909373,48.9065483 226.961834,51.6205688 L204.060974,51.6205688 Z M319.220038,67.4244045 C316.788627,70.3906863 313.126308,72.087568 309.278766,72.0305476 C305.642948,72.0305476 302.71513,70.931956 300.495312,68.7347728 C298.275494,66.5375896 297.170908,63.6256601 297.181478,59.9989842 C297.181478,55.3769579 298.512381,51.5702718 301.174033,48.5789261 C303.677394,45.6556801 307.375618,44.0151064 311.23508,44.1157323 C314.433793,43.9931919 317.544706,45.1717338 319.85085,47.3797405 C322.115812,49.6272979 323.334383,52.7133289 323.212517,55.8931636 C323.212517,60.5151899 321.881691,64.3589369 319.220038,67.4244045 Z M380.121313,67.8691355 C377.637718,70.9561098 373.850893,72.7174233 369.876612,72.6341111 C366.918489,72.7672301 364.041537,71.6509617 361.955534,69.5607019 C359.975264,67.5117624 358.982467,64.7560182 358.977144,61.2934692 C358.855636,56.9656317 360.300774,52.7382931 363.049473,49.3810303 C365.769682,46.1090804 369.062146,44.4731054 372.926866,44.4731054 C376.376368,44.4731054 379.099238,45.4869864 381.095478,47.5147482 C383.091717,49.54251 384.092499,52.3061959 384.097822,55.8058057 C384.097822,60.7084361 382.761672,64.7295461 380.089373,67.8691355 L380.121313,67.8691355 Z M443.39412,68.6632981 C440.875434,71.6635656 437.126614,73.3686792 433.197329,73.3012077 C430.030993,73.4254315 426.960412,72.2073282 424.749243,69.9498416 C422.565536,67.5722134 421.417185,64.4313839 421.55526,61.214053 C421.55526,56.6290876 422.886086,52.8303432 425.547739,49.8178197 C427.998265,46.8917061 431.644379,45.2200363 435.473042,45.267268 C439.066273,45.267268 441.956828,46.3473292 444.144706,48.5074514 C446.378411,50.7795112 447.566455,53.8700626 447.426524,57.0446993 C447.426524,61.6931977 446.071743,65.5581224 443.36218,68.6394733 L443.39412,68.6632981 Z" id="Shape"></path>
                    </g>
                    <g id="Group-3"></g>
                    <path d="M58.9135949,55.3708984 L62.9738562,29.777027 L43.0706147,29.777027 L39.5756055,52.1018993 C39.5039538,52.4766382 39.4084182,53.0188137 39.2969601,53.696533 C37.2854058,66.7725296 33.4029468,73.3105279 27.6495831,73.3105279 C25.1921962,73.3105279 23.3186378,72.6009159 22.0289077,71.1816919 C20.7391777,69.7624678 20.0943127,67.708048 20.0943127,65.0184325 C20.0943127,64.380579 20.2296547,63.0251403 20.4844162,60.9521165 C20.7391777,58.8790926 21.1053973,56.2878128 21.5512299,53.1862502 L25.2452716,29.777027 L5.42960429,29.777027 L1.95847897,51.4480994 C1.18357943,56.1363226 0.660787619,59.6205973 0.390103534,61.9009235 C0.154910281,63.7711489 0.0246711249,65.6531161 0,67.5379538 C0,74.0068513 2.38838898,79.1256256 7.16516695,82.8942766 C11.9419449,86.6629277 18.4993996,88.5525686 26.8375309,88.5631995 C31.2369495,88.6278983 35.6174489,87.9734792 39.8064831,86.6257195 C43.4295067,85.4541587 46.7471375,83.4905695 49.5192649,80.8770649 C53.7015994,76.8107489 56.7799674,68.7020364 58.754369,56.5509274 L58.9135949,55.3708984 Z" id="Path" fill="#FFA8BB" fill-rule="nonzero"></path>
                    <path d="M451.243334,30.9723413 L449.957755,38.9139673 C447.685135,35.855156 444.758985,33.3354525 441.389896,31.5361967 C438.152149,29.9171402 434.569118,29.0998036 430.94557,29.1537089 C422.820629,28.9992317 415.053359,32.4727673 409.777447,38.6201271 C406.521708,42.2536812 404.135735,46.5734571 402.798594,51.255254 C402.0928,45.4024005 399.363188,39.9756102 395.077139,35.904091 C389.647368,30.8055671 382.402349,28.2563052 373.342084,28.2563052 C363.536555,28.2563052 355.490379,31.3270672 349.203556,37.4685913 C346.676828,39.9219224 344.591816,42.7880296 343.039168,45.9423062 L350.28951,0 L330.638528,0 L325.919418,29.7096228 C325.735764,30.9723413 325.58405,32.2112349 325.47226,33.4183621 C325.360471,34.6254892 325.304576,35.8008499 325.304576,36.9126775 L325.304576,38.5010027 C322.954002,35.4334827 319.9803,32.8926292 316.577017,31.0438159 C313.360429,29.4293915 309.799191,28.6120272 306.196572,28.6613281 C299.054088,28.5251169 292.153569,31.2360303 287.032673,36.1899895 L288.629664,29.2172419 C287.503785,29.0345845 286.681335,28.9154602 286.154327,28.8598688 C285.687745,28.8062127 285.218643,28.7770529 284.748975,28.7725109 C281.108113,28.6921038 277.521878,29.6631049 274.424424,31.5679632 C271.32303,33.5720146 268.858362,36.4116579 267.317811,39.7557796 L268.723164,30.1781787 L249.51934,30.1781787 L245.614696,54.6939781 C245.082365,47.2182608 242.449991,41.1111504 237.717572,36.3726469 C232.394267,31.0517575 225.348872,28.3913128 216.581388,28.3913128 C206.919589,28.3913128 199.049082,31.4064835 192.969868,37.4368248 C190.433832,39.9254541 188.367562,42.8466483 186.86936,46.0614306 L194.159626,0 L174.508645,0 L169.79752,29.7096228 C169.605881,30.9723413 169.454166,32.2112349 169.342377,33.4183621 C169.230588,34.6254892 169.174693,35.8008499 169.174693,36.9126775 L169.174693,38.5010027 C166.826046,35.431675 163.851923,32.8904613 160.447134,31.0438159 C157.231305,29.4273045 153.669545,28.6098203 150.066688,28.6613281 C141.903808,28.5089573 134.110056,32.038717 128.866625,38.2627539 C126.775046,40.6484447 125.042869,43.3235646 123.724312,46.2043799 C123.724312,40.5922975 122.106027,36.2191088 118.869458,33.0848138 C115.632888,29.9505187 111.084124,28.3780768 105.223164,28.367488 C101.714184,28.3364038 98.2557642,29.2004181 95.1780873,30.8770418 C91.6101846,32.979776 88.4687566,35.727076 85.915536,38.9775003 L87.3129037,30.1781787 L68.1490045,30.1781787 L59.1339869,86.5637231 L78.8728031,86.5637231 L82.9131918,60.2689995 C83.7755673,54.794572 85.1889048,50.810523 87.1532045,48.3168524 C89.1059561,45.8274221 92.1504393,44.4333166 95.3218165,44.5763466 C97.8663565,44.5763466 99.793393,45.2090294 101.102926,46.4743952 C102.412459,47.7371137 103.067226,49.6033958 103.067226,52.0335334 C103.058894,52.7421978 103.013585,53.4499546 102.931481,54.1539475 C102.835662,54.9481101 102.715888,55.8137473 102.564173,56.6714429 L97.8690181,86.5637231 L117.911263,86.5637231 L120.849727,68.1709173 C121.491841,73.0795196 123.521466,77.7060777 126.702701,81.512849 C130.62576,86.2923144 136.550918,88.9984051 142.752467,88.8429697 C146.493461,88.8681242 150.190087,88.036617 153.556115,86.4128322 C157.08317,84.6655007 160.224063,82.235541 162.794711,79.2653688 L161.596968,86.5637231 L180.465423,86.5637231 L183.978805,64.3271704 C184.569692,71.5275779 187.07963,77.2561374 191.50862,81.512849 C196.618993,86.410185 203.805456,88.858853 213.068007,88.858853 C217.864892,88.9229449 222.635623,88.1460275 227.161458,86.5637231 C231.327272,85.075181 235.134792,82.7381488 238.340399,79.7021582 L227.528766,68.8538972 C225.433096,70.8333659 223.057745,72.4975229 220.478048,73.7935885 C218.293048,74.8159621 215.9059,75.3396415 213.49121,75.3263223 C209.972505,75.3263223 207.294882,74.3971521 205.458342,72.5388116 C203.621802,70.6804711 202.706193,67.9617878 202.711516,64.3827617 L202.711516,63.0962183 L244.233298,63.0962183 L240.536262,86.5637231 L260.299033,86.5637231 L264.339422,60.8249133 C265.164534,55.7952169 266.689661,52.0891247 268.914803,49.706637 C271.139945,47.3241492 274.182214,46.1090804 278.04161,46.0614306 C278.640482,46.0614306 279.263309,46.1011388 279.89412,46.1567301 C277.607983,51.311744 276.474623,56.8990184 276.572378,62.5323629 C276.572378,70.2780954 278.659113,76.5969825 282.832585,81.4890241 C286.746492,86.2686978 292.662222,88.9803845 298.858396,88.8350281 C302.59056,88.8578698 306.278293,88.0292366 309.638089,86.4128322 C313.163198,84.6660622 316.30158,82.2359451 318.8687,79.2653688 L317.726851,86.5637231 L336.587322,86.5637231 L339.980929,65.121333 C340.523883,71.2508832 343.28448,76.9763269 347.750293,81.2348921 C353.073599,86.3016494 360.174888,88.8350281 369.054161,88.8350281 C379.083268,88.8350281 387.281159,85.7827965 393.647832,79.6783334 C397.347453,76.1828577 400.094828,71.8109127 401.63279,66.9717318 C402.143529,72.1635882 404.241995,77.0750122 407.645463,81.044293 C411.840228,85.8092686 417.267337,88.1917564 423.926792,88.1917564 C427.588216,88.2362576 431.2109,87.4428313 434.514847,85.8728016 C437.862052,84.2093079 440.802745,81.8375352 443.130616,78.9238789 L442.403985,83.7762124 C441.722602,88.731787 440.186829,92.4378791 437.796664,94.8944887 C435.4065,97.3510984 432.111374,98.5714615 427.911286,98.5555783 C425.180431,98.5555783 423.032477,97.9361315 421.45944,96.7131211 C419.850566,95.4176787 418.853219,93.5171889 418.70463,91.4637063 L397.80001,91.4637063 C398.774175,98.2776214 401.757887,103.442325 406.751148,106.957819 C411.744408,110.473312 418.603487,112.231058 427.328385,112.231058 C432.882752,112.318772 438.402208,111.342741 443.585759,109.35619 C448.154787,107.608897 452.215693,104.759857 455.403497,101.065132 C458.469721,97.35904 460.88384,89.5788937 462.645854,77.7246934 C462.869433,76.1363682 463.053087,74.9371827 463.204801,74.0397789 L470,30.9723413 L451.243334,30.9723413 Z M163.058215,67.4244045 C160.630299,70.3862821 156.974883,72.0826906 153.132912,72.0305476 C149.507741,72.0305476 146.579923,70.931956 144.349459,68.7347728 C142.118994,66.5375896 141.017069,63.6256601 141.043686,59.9989842 C141.043686,55.3769579 142.361204,51.5702718 144.99624,48.5789261 C147.496966,45.6394543 151.202981,43.986347 155.073257,44.0839658 C158.274397,43.9610921 161.387909,45.1395265 163.697012,47.347974 C165.953202,49.5995895 167.162888,52.6851065 167.034724,55.8613971 C167.040047,60.5046011 165.714544,64.3589369 163.058215,67.4244045 Z M204.060974,51.6205688 C204.997786,48.7782112 206.718732,46.2548289 209.027618,44.3380978 C211.120164,42.6185256 213.755275,41.687744 216.469599,41.7094196 C219.200384,41.5875809 221.86731,42.5536684 223.87964,44.3936892 C225.805173,46.3175095 226.909373,48.9065483 226.961834,51.6205688 L204.060974,51.6205688 Z M319.220038,67.4244045 C316.788627,70.3906863 313.126308,72.087568 309.278766,72.0305476 C305.642948,72.0305476 302.71513,70.931956 300.495312,68.7347728 C298.275494,66.5375896 297.170908,63.6256601 297.181478,59.9989842 C297.181478,55.3769579 298.512381,51.5702718 301.174033,48.5789261 C303.677394,45.6556801 307.375618,44.0151064 311.23508,44.1157323 C314.433793,43.9931919 317.544706,45.1717338 319.85085,47.3797405 C322.115812,49.6272979 323.334383,52.7133289 323.212517,55.8931636 C323.212517,60.5151899 321.881691,64.3589369 319.220038,67.4244045 Z M380.121313,67.8691355 C377.637718,70.9561098 373.850893,72.7174233 369.876612,72.6341111 C366.918489,72.7672301 364.041537,71.6509617 361.955534,69.5607019 C359.975264,67.5117624 358.982467,64.7560182 358.977144,61.2934692 C358.855636,56.9656317 360.300774,52.7382931 363.049473,49.3810303 C365.769682,46.1090804 369.062146,44.4731054 372.926866,44.4731054 C376.376368,44.4731054 379.099238,45.4869864 381.095478,47.5147482 C383.091717,49.54251 384.092499,52.3061959 384.097822,55.8058057 C384.097822,60.7084361 382.761672,64.7295461 380.089373,67.8691355 L380.121313,67.8691355 Z M443.39412,68.6632981 C440.875434,71.6635656 437.126614,73.3686792 433.197329,73.3012077 C430.030993,73.4254315 426.960412,72.2073282 424.749243,69.9498416 C422.565536,67.5722134 421.417185,64.4313839 421.55526,61.214053 C421.55526,56.6290876 422.886086,52.8303432 425.547739,49.8178197 C427.998265,46.8917061 431.644379,45.2200363 435.473042,45.267268 C439.066273,45.267268 441.956828,46.3473292 444.144706,48.5074514 C446.378411,50.7795112 447.566455,53.8700626 447.426524,57.0446993 C447.426524,61.6931977 446.071743,65.5581224 443.36218,68.6394733 L443.39412,68.6632981 Z" id="Shape" fill="#FFA8BB" fill-rule="nonzero"></path>
                    <g id="Group-3" transform="translate(12.000000, 10.000000)" fill="#26241D" fill-rule="nonzero">
                        <path d="M58.9135949,55.3708984 L62.9738562,29.777027 L43.0706147,29.777027 L39.5756055,52.1018993 C39.5039538,52.4766382 39.4084182,53.0188137 39.2969601,53.696533 C37.2854058,66.7725296 33.4029468,73.3105279 27.6495831,73.3105279 C25.1921962,73.3105279 23.3186378,72.6009159 22.0289077,71.1816919 C20.7391777,69.7624678 20.0943127,67.708048 20.0943127,65.0184325 C20.0943127,64.380579 20.2296547,63.0251403 20.4844162,60.9521165 C20.7391777,58.8790926 21.1053973,56.2878128 21.5512299,53.1862502 L25.2452716,29.777027 L5.42960429,29.777027 L1.95847897,51.4480994 C1.18357943,56.1363226 0.660787619,59.6205973 0.390103534,61.9009235 C0.154910281,63.7711489 0.0246711249,65.6531161 4.26325641e-14,67.5379538 C4.26325641e-14,74.0068513 2.38838898,79.1256256 7.16516695,82.8942766 C11.9419449,86.6629277 18.4993996,88.5525686 26.8375309,88.5631995 C31.2369495,88.6278983 35.6174489,87.9734792 39.8064831,86.6257195 C43.4295067,85.4541587 46.7471375,83.4905695 49.5192649,80.8770649 C53.7015994,76.8107489 56.7799674,68.7020364 58.754369,56.5509274 L58.9135949,55.3708984 Z" id="Path"></path>
                        <path d="M451.243334,30.9723413 L449.957755,38.9139673 C447.685135,35.855156 444.758985,33.3354525 441.389896,31.5361967 C438.152149,29.9171402 434.569118,29.0998036 430.94557,29.1537089 C422.820629,28.9992317 415.053359,32.4727673 409.777447,38.6201271 C406.521708,42.2536812 404.135735,46.5734571 402.798594,51.255254 C402.0928,45.4024005 399.363188,39.9756102 395.077139,35.904091 C389.647368,30.8055671 382.402349,28.2563052 373.342084,28.2563052 C363.536555,28.2563052 355.490379,31.3270672 349.203556,37.4685913 C346.676828,39.9219224 344.591816,42.7880296 343.039168,45.9423062 L350.28951,-1.42108547e-14 L330.638528,-1.42108547e-14 L325.919418,29.7096228 C325.735764,30.9723413 325.58405,32.2112349 325.47226,33.4183621 C325.360471,34.6254892 325.304576,35.8008499 325.304576,36.9126775 L325.304576,38.5010027 C322.954002,35.4334827 319.9803,32.8926292 316.577017,31.0438159 C313.360429,29.4293915 309.799191,28.6120272 306.196572,28.6613281 C299.054088,28.5251169 292.153569,31.2360303 287.032673,36.1899895 L288.629664,29.2172419 C287.503785,29.0345845 286.681335,28.9154602 286.154327,28.8598688 C285.687745,28.8062127 285.218643,28.7770529 284.748975,28.7725109 C281.108113,28.6921038 277.521878,29.6631049 274.424424,31.5679632 C271.32303,33.5720146 268.858362,36.4116579 267.317811,39.7557796 L268.723164,30.1781787 L249.51934,30.1781787 L245.614696,54.6939781 C245.082365,47.2182608 242.449991,41.1111504 237.717572,36.3726469 C232.394267,31.0517575 225.348872,28.3913128 216.581388,28.3913128 C206.919589,28.3913128 199.049082,31.4064835 192.969868,37.4368248 C190.433832,39.9254541 188.367562,42.8466483 186.86936,46.0614306 L194.159626,-1.42108547e-14 L174.508645,-1.42108547e-14 L169.79752,29.7096228 C169.605881,30.9723413 169.454166,32.2112349 169.342377,33.4183621 C169.230588,34.6254892 169.174693,35.8008499 169.174693,36.9126775 L169.174693,38.5010027 C166.826046,35.431675 163.851923,32.8904613 160.447134,31.0438159 C157.231305,29.4273045 153.669545,28.6098203 150.066688,28.6613281 C141.903808,28.5089573 134.110056,32.038717 128.866625,38.2627539 C126.775046,40.6484447 125.042869,43.3235646 123.724312,46.2043799 C123.724312,40.5922975 122.106027,36.2191088 118.869458,33.0848138 C115.632888,29.9505187 111.084124,28.3780768 105.223164,28.367488 C101.714184,28.3364038 98.2557642,29.2004181 95.1780873,30.8770418 C91.6101846,32.979776 88.4687566,35.727076 85.915536,38.9775003 L87.3129037,30.1781787 L68.1490045,30.1781787 L59.1339869,86.5637231 L78.8728031,86.5637231 L82.9131918,60.2689995 C83.7755673,54.794572 85.1889048,50.810523 87.1532045,48.3168524 C89.1059561,45.8274221 92.1504393,44.4333166 95.3218165,44.5763466 C97.8663565,44.5763466 99.793393,45.2090294 101.102926,46.4743952 C102.412459,47.7371137 103.067226,49.6033958 103.067226,52.0335334 C103.058894,52.7421978 103.013585,53.4499546 102.931481,54.1539475 C102.835662,54.9481101 102.715888,55.8137473 102.564173,56.6714429 L97.8690181,86.5637231 L117.911263,86.5637231 L120.849727,68.1709173 C121.491841,73.0795196 123.521466,77.7060777 126.702701,81.512849 C130.62576,86.2923144 136.550918,88.9984051 142.752467,88.8429697 C146.493461,88.8681242 150.190087,88.036617 153.556115,86.4128322 C157.08317,84.6655007 160.224063,82.235541 162.794711,79.2653688 L161.596968,86.5637231 L180.465423,86.5637231 L183.978805,64.3271704 C184.569692,71.5275779 187.07963,77.2561374 191.50862,81.512849 C196.618993,86.410185 203.805456,88.858853 213.068007,88.858853 C217.864892,88.9229449 222.635623,88.1460275 227.161458,86.5637231 C231.327272,85.075181 235.134792,82.7381488 238.340399,79.7021582 L227.528766,68.8538972 C225.433096,70.8333659 223.057745,72.4975229 220.478048,73.7935885 C218.293048,74.8159621 215.9059,75.3396415 213.49121,75.3263223 C209.972505,75.3263223 207.294882,74.3971521 205.458342,72.5388116 C203.621802,70.6804711 202.706193,67.9617878 202.711516,64.3827617 L202.711516,63.0962183 L244.233298,63.0962183 L240.536262,86.5637231 L260.299033,86.5637231 L264.339422,60.8249133 C265.164534,55.7952169 266.689661,52.0891247 268.914803,49.706637 C271.139945,47.3241492 274.182214,46.1090804 278.04161,46.0614306 C278.640482,46.0614306 279.263309,46.1011388 279.89412,46.1567301 C277.607983,51.311744 276.474623,56.8990184 276.572378,62.5323629 C276.572378,70.2780954 278.659113,76.5969825 282.832585,81.4890241 C286.746492,86.2686978 292.662222,88.9803845 298.858396,88.8350281 C302.59056,88.8578698 306.278293,88.0292366 309.638089,86.4128322 C313.163198,84.6660622 316.30158,82.2359451 318.8687,79.2653688 L317.726851,86.5637231 L336.587322,86.5637231 L339.980929,65.121333 C340.523883,71.2508832 343.28448,76.9763269 347.750293,81.2348921 C353.073599,86.3016494 360.174888,88.8350281 369.054161,88.8350281 C379.083268,88.8350281 387.281159,85.7827965 393.647832,79.6783334 C397.347453,76.1828577 400.094828,71.8109127 401.63279,66.9717318 C402.143529,72.1635882 404.241995,77.0750122 407.645463,81.044293 C411.840228,85.8092686 417.267337,88.1917564 423.926792,88.1917564 C427.588216,88.2362576 431.2109,87.4428313 434.514847,85.8728016 C437.862052,84.2093079 440.802745,81.8375352 443.130616,78.9238789 L442.403985,83.7762124 C441.722602,88.731787 440.186829,92.4378791 437.796664,94.8944887 C435.4065,97.3510984 432.111374,98.5714615 427.911286,98.5555783 C425.180431,98.5555783 423.032477,97.9361315 421.45944,96.7131211 C419.850566,95.4176787 418.853219,93.5171889 418.70463,91.4637063 L397.80001,91.4637063 C398.774175,98.2776214 401.757887,103.442325 406.751148,106.957819 C411.744408,110.473312 418.603487,112.231058 427.328385,112.231058 C432.882752,112.318772 438.402208,111.342741 443.585759,109.35619 C448.154787,107.608897 452.215693,104.759857 455.403497,101.065132 C458.469721,97.35904 460.88384,89.5788937 462.645854,77.7246934 C462.869433,76.1363682 463.053087,74.9371827 463.204801,74.0397789 L470,30.9723413 L451.243334,30.9723413 Z M163.058215,67.4244045 C160.630299,70.3862821 156.974883,72.0826906 153.132912,72.0305476 C149.507741,72.0305476 146.579923,70.931956 144.349459,68.7347728 C142.118994,66.5375896 141.017069,63.6256601 141.043686,59.9989842 C141.043686,55.3769579 142.361204,51.5702718 144.99624,48.5789261 C147.496966,45.6394543 151.202981,43.986347 155.073257,44.0839658 C158.274397,43.9610921 161.387909,45.1395265 163.697012,47.347974 C165.953202,49.5995895 167.162888,52.6851065 167.034724,55.8613971 C167.040047,60.5046011 165.714544,64.3589369 163.058215,67.4244045 Z M204.060974,51.6205688 C204.997786,48.7782112 206.718732,46.2548289 209.027618,44.3380978 C211.120164,42.6185256 213.755275,41.687744 216.469599,41.7094196 C219.200384,41.5875809 221.86731,42.5536684 223.87964,44.3936892 C225.805173,46.3175095 226.909373,48.9065483 226.961834,51.6205688 L204.060974,51.6205688 Z M319.220038,67.4244045 C316.788627,70.3906863 313.126308,72.087568 309.278766,72.0305476 C305.642948,72.0305476 302.71513,70.931956 300.495312,68.7347728 C298.275494,66.5375896 297.170908,63.6256601 297.181478,59.9989842 C297.181478,55.3769579 298.512381,51.5702718 301.174033,48.5789261 C303.677394,45.6556801 307.375618,44.0151064 311.23508,44.1157323 C314.433793,43.9931919 317.544706,45.1717338 319.85085,47.3797405 C322.115812,49.6272979 323.334383,52.7133289 323.212517,55.8931636 C323.212517,60.5151899 321.881691,64.3589369 319.220038,67.4244045 Z M380.121313,67.8691355 C377.637718,70.9561098 373.850893,72.7174233 369.876612,72.6341111 C366.918489,72.7672301 364.041537,71.6509617 361.955534,69.5607019 C359.975264,67.5117624 358.982467,64.7560182 358.977144,61.2934692 C358.855636,56.9656317 360.300774,52.7382931 363.049473,49.3810303 C365.769682,46.1090804 369.062146,44.4731054 372.926866,44.4731054 C376.376368,44.4731054 379.099238,45.4869864 381.095478,47.5147482 C383.091717,49.54251 384.092499,52.3061959 384.097822,55.8058057 C384.097822,60.7084361 382.761672,64.7295461 380.089373,67.8691355 L380.121313,67.8691355 Z M443.39412,68.6632981 C440.875434,71.6635656 437.126614,73.3686792 433.197329,73.3012077 C430.030993,73.4254315 426.960412,72.2073282 424.749243,69.9498416 C422.565536,67.5722134 421.417185,64.4313839 421.55526,61.214053 C421.55526,56.6290876 422.886086,52.8303432 425.547739,49.8178197 C427.998265,46.8917061 431.644379,45.2200363 435.473042,45.267268 C439.066273,45.267268 441.956828,46.3473292 444.144706,48.5074514 C446.378411,50.7795112 447.566455,53.8700626 447.426524,57.0446993 C447.426524,61.6931977 446.071743,65.5581224 443.36218,68.6394733 L443.39412,68.6632981 Z" id="Shape"></path>
                    </g>
                </g>
            </g>
        </g>
    </g>
</svg>