<?xml version="1.0" encoding="UTF-8"?>
<svg width="785px" height="785px" viewBox="0 0 785 785" version="1.1" xmlns="http://www.w3.org/2000/svg" xmlns:xlink="http://www.w3.org/1999/xlink">
    <!-- Generator: Sketch 55.1 (78136) - https://sketchapp.com -->
    <title>stacked</title>
    <desc>Created with Sketch.</desc>
    <defs>
        <linearGradient x1="51.297059%" y1="90.281745%" x2="47.8819565%" y2="31.352603%" id="linearGradient-1">
            <stop stop-color="#26241D" offset="0%"></stop>
            <stop stop-color="#4A4737" offset="100%"></stop>
        </linearGradient>
        <linearGradient x1="52.701787%" y1="84.6385865%" x2="43.1994832%" y2="29.9420768%" id="linearGradient-2">
            <stop stop-color="#FFCA90" offset="0%"></stop>
            <stop stop-color="#FFDD91" offset="100%"></stop>
        </linearGradient>
        <linearGradient x1="50%" y1="14.3981591%" x2="50%" y2="71.1912478%" id="linearGradient-3">
            <stop stop-color="#FCFBFA" offset="0%"></stop>
            <stop stop-color="#E2E2E2" offset="100%"></stop>
        </linearGradient>
        <linearGradient x1="56.87057%" y1="66.1013872%" x2="48.3408821%" y2="44.2785159%" id="linearGradient-4">
            <stop stop-color="#26241D" offset="0%"></stop>
            <stop stop-color="#4A4737" offset="100%"></stop>
        </linearGradient>
        <linearGradient x1="47.0775348%" y1="17.3539406%" x2="56.7660702%" y2="82.0726653%" id="linearGradient-5">
            <stop stop-color="#26241D" offset="0%"></stop>
            <stop stop-color="#4A4737" offset="100%"></stop>
        </linearGradient>
        <linearGradient x1="75.4508197%" y1="100.707443%" x2="41.4071038%" y2="27.3700272%" id="linearGradient-6">
            <stop stop-color="#26241D" offset="0%"></stop>
            <stop stop-color="#4A4737" offset="100%"></stop>
        </linearGradient>
        <linearGradient x1="86.0472373%" y1="115.87475%" x2="47.0670976%" y2="42.8229844%" id="linearGradient-7">
            <stop stop-color="#26241D" offset="0%"></stop>
            <stop stop-color="#4A4737" offset="100%"></stop>
        </linearGradient>
        <linearGradient x1="59.5590475%" y1="80.9027999%" x2="45.6165595%" y2="24.3345518%" id="linearGradient-8">
            <stop stop-color="#26241D" offset="0%"></stop>
            <stop stop-color="#4A4737" offset="100%"></stop>
        </linearGradient>
        <linearGradient x1="50.0124318%" y1="83.5259105%" x2="50.0124318%" y2="-3.60338158%" id="linearGradient-9">
            <stop stop-color="#FFA8BB" offset="0%"></stop>
            <stop stop-color="#FFB79A" offset="100%"></stop>
        </linearGradient>
        <linearGradient x1="18.0189829%" y1="41.6804218%" x2="81.9571483%" y2="58.325826%" id="linearGradient-10">
            <stop stop-color="#00E5FF" stop-opacity="0" offset="0%"></stop>
            <stop stop-color="#00E5FF" stop-opacity="0.06" offset="5%"></stop>
            <stop stop-color="#00E5FF" stop-opacity="0.2" offset="13%"></stop>
            <stop stop-color="#00E5FF" stop-opacity="0.44" offset="25%"></stop>
            <stop stop-color="#00E5FF" stop-opacity="0.77" offset="39%"></stop>
            <stop stop-color="#00E5FF" offset="48%"></stop>
            <stop stop-color="#FFA8BB" offset="82%"></stop>
        </linearGradient>
        <linearGradient x1="21.8115537%" y1="58.6989063%" x2="78.1698042%" y2="41.2956594%" id="linearGradient-11">
            <stop stop-color="#00E5FF" stop-opacity="0" offset="0%"></stop>
            <stop stop-color="#00E5FF" stop-opacity="0.06" offset="5%"></stop>
            <stop stop-color="#00E5FF" stop-opacity="0.2" offset="13%"></stop>
            <stop stop-color="#00E5FF" stop-opacity="0.44" offset="25%"></stop>
            <stop stop-color="#00E5FF" stop-opacity="0.77" offset="39%"></stop>
            <stop stop-color="#00E5FF" offset="48%"></stop>
            <stop stop-color="#FFA8BB" offset="82%"></stop>
        </linearGradient>
        <linearGradient x1="0.760472563%" y1="51.4928255%" x2="99.2523394%" y2="48.5110762%" id="linearGradient-12">
            <stop stop-color="#00E5FF" stop-opacity="0" offset="0%"></stop>
            <stop stop-color="#00E5FF" stop-opacity="0.06" offset="5%"></stop>
            <stop stop-color="#00E5FF" stop-opacity="0.2" offset="13%"></stop>
            <stop stop-color="#00E5FF" stop-opacity="0.44" offset="25%"></stop>
            <stop stop-color="#00E5FF" stop-opacity="0.77" offset="39%"></stop>
            <stop stop-color="#00E5FF" offset="48%"></stop>
            <stop stop-color="#FFA8BB" offset="82%"></stop>
        </linearGradient>
        <linearGradient x1="18.0477469%" y1="58.3161657%" x2="81.9698698%" y2="41.6705657%" id="linearGradient-13">
            <stop stop-color="#00E5FF" stop-opacity="0" offset="0%"></stop>
            <stop stop-color="#00E5FF" stop-opacity="0.06" offset="3%"></stop>
            <stop stop-color="#00E5FF" stop-opacity="0.2" offset="10%"></stop>
            <stop stop-color="#00E5FF" stop-opacity="0.44" offset="19%"></stop>
            <stop stop-color="#00E5FF" stop-opacity="0.77" offset="30%"></stop>
            <stop stop-color="#00E5FF" offset="37%"></stop>
            <stop stop-color="#FFA8BB" offset="72%"></stop>
        </linearGradient>
        <linearGradient x1="21.8403037%" y1="41.289996%" x2="78.2056059%" y2="58.699993%" id="linearGradient-14">
            <stop stop-color="#00E5FF" stop-opacity="0" offset="0%"></stop>
            <stop stop-color="#00E5FF" stop-opacity="0.06" offset="3%"></stop>
            <stop stop-color="#00E5FF" stop-opacity="0.2" offset="10%"></stop>
            <stop stop-color="#00E5FF" stop-opacity="0.44" offset="19%"></stop>
            <stop stop-color="#00E5FF" stop-opacity="0.77" offset="30%"></stop>
            <stop stop-color="#00E5FF" offset="37%"></stop>
            <stop stop-color="#FFA8BB" offset="72%"></stop>
        </linearGradient>
        <linearGradient x1="0.777044631%" y1="48.5025267%" x2="99.2596105%" y2="51.4843545%" id="linearGradient-15">
            <stop stop-color="#00E5FF" stop-opacity="0" offset="0%"></stop>
            <stop stop-color="#00E5FF" stop-opacity="0.06" offset="3%"></stop>
            <stop stop-color="#00E5FF" stop-opacity="0.2" offset="10%"></stop>
            <stop stop-color="#00E5FF" stop-opacity="0.44" offset="19%"></stop>
            <stop stop-color="#00E5FF" stop-opacity="0.77" offset="30%"></stop>
            <stop stop-color="#00E5FF" offset="37%"></stop>
            <stop stop-color="#FFA8BB" offset="72%"></stop>
        </linearGradient>
        <linearGradient x1="50.0158078%" y1="99.8910069%" x2="50.0158078%" y2="0.0260709182%" id="linearGradient-16">
            <stop stop-color="#62C5E3" offset="0%"></stop>
            <stop stop-color="#62C5E3" offset="37%"></stop>
            <stop stop-color="#F4A6BB" offset="72%"></stop>
        </linearGradient>
        <linearGradient x1="50.0314672%" y1="100.051375%" x2="50.0314672%" y2="0%" id="linearGradient-17">
            <stop stop-color="#62C5E3" offset="0%"></stop>
            <stop stop-color="#62C5E3" offset="37%"></stop>
            <stop stop-color="#F4A6BB" offset="72%"></stop>
        </linearGradient>
        <linearGradient x1="49.9841922%" y1="99.8910079%" x2="49.9841922%" y2="0.0269866343%" id="linearGradient-18">
            <stop stop-color="#62C5E3" offset="0%"></stop>
            <stop stop-color="#62C5E3" offset="37%"></stop>
            <stop stop-color="#F4A6BB" offset="72%"></stop>
        </linearGradient>
        <linearGradient x1="50%" y1="99.8910079%" x2="50%" y2="0.0269866343%" id="linearGradient-19">
            <stop stop-color="#62C5E3" offset="0%"></stop>
            <stop stop-color="#62C5E3" offset="37%"></stop>
            <stop stop-color="#F4A6BB" offset="72%"></stop>
        </linearGradient>
        <linearGradient x1="50.0121468%" y1="100%" x2="50.0121468%" y2="0%" id="linearGradient-20">
            <stop stop-color="#62C5E3" offset="0%"></stop>
            <stop stop-color="#62C5E3" offset="37%"></stop>
            <stop stop-color="#F4A6BB" offset="72%"></stop>
        </linearGradient>
        <linearGradient x1="49.7237569%" y1="100%" x2="49.7237569%" y2="0.0299762714%" id="linearGradient-21">
            <stop stop-color="#62C5E3" offset="0%"></stop>
            <stop stop-color="#62C5E3" offset="37%"></stop>
            <stop stop-color="#F4A6BB" offset="72%"></stop>
        </linearGradient>
        <linearGradient x1="11.2275917%" y1="60.4208472%" x2="191.381028%" y2="-31.0940099%" id="linearGradient-22">
            <stop stop-color="#26241D" offset="0%"></stop>
            <stop stop-color="#4B4737" offset="100%"></stop>
        </linearGradient>
        <linearGradient x1="-105.337049%" y1="112.126615%" x2="173.657468%" y2="-3.94914088%" id="linearGradient-23">
            <stop stop-color="#26241D" offset="0%"></stop>
            <stop stop-color="#4B4737" offset="100%"></stop>
        </linearGradient>
        <linearGradient x1="-95.185878%" y1="114.374924%" x2="85.1919352%" y2="22.8609414%" id="linearGradient-24">
            <stop stop-color="#26241D" offset="0%"></stop>
            <stop stop-color="#4B4737" offset="100%"></stop>
        </linearGradient>
        <linearGradient x1="-149.055426%" y1="141.879203%" x2="30.7615773%" y2="50.4642866%" id="linearGradient-25">
            <stop stop-color="#26241D" offset="0%"></stop>
            <stop stop-color="#4B4737" offset="100%"></stop>
        </linearGradient>
        <linearGradient x1="-362.568997%" y1="232.597305%" x2="-78.2929191%" y2="107.035928%" id="linearGradient-26">
            <stop stop-color="#26241D" offset="0%"></stop>
            <stop stop-color="#4B4737" offset="100%"></stop>
        </linearGradient>
        <linearGradient x1="-376.240484%" y1="265.268588%" x2="-127.175875%" y2="135.566573%" id="linearGradient-27">
            <stop stop-color="#26241D" offset="0%"></stop>
            <stop stop-color="#4B4737" offset="100%"></stop>
        </linearGradient>
    </defs>
    <g id="stacked" stroke="none" stroke-width="1" fill="none" fill-rule="evenodd">
        <g id="Group-2" transform="translate(81.000000, 61.000000)">
            <g id="emblem" fill-rule="nonzero">
                <path d="M499.220091,163.944602 L499.220091,163.728947 C491.842991,121.375831 475.546187,81.060427 451.402841,45.4375487 C445.55773,36.7757358 439.276955,28.4139076 432.584561,20.3840757 L415.554017,0 L395.898324,17.8712274 C388.418058,24.678421 381.154201,31.9356771 374.304348,39.5586088 C358.243631,57.3673128 344.31552,76.9767055 332.800631,97.991709 C328.717064,97.8229356 324.652316,97.7479252 320.644022,97.7479252 C299.766327,97.745046 278.94172,99.8434846 258.487243,104.011293 C255.024679,99.1824991 251.420979,94.4380914 247.723187,89.8624571 C233.843714,72.6694795 218.16063,57.0034136 200.940942,43.130979 C195.097866,38.4428291 189.019562,33.8859474 182.865984,29.6291073 L159.907683,13.7644081 L146.226793,38.0490245 C142.331409,44.9781101 138.699481,52.1134742 135.3216,59.3050961 C116.472518,99.7662445 106.759836,143.855275 106.86836,188.463626 C106.86836,190.835829 106.86836,193.151776 106.953042,195.027035 C107.056543,199.874582 107.272953,204.806516 107.621091,209.73845 C88.8177722,250.142075 79.1341655,294.163125 79.251462,338.700077 C79.2417305,360.691919 81.585322,382.622159 86.2435253,404.118521 L87.9371705,411.928978 L93.817883,417.34848 C150.812433,469.998781 225.689851,499.205406 303.406477,499.100719 C306.624403,499.100719 309.992875,499.04418 314.010578,498.903535 C333.851006,498.244409 353.581842,495.685401 372.930613,491.261851 C389.481305,487.456722 405.686235,482.28824 421.378275,475.809709 C470.987369,455.296005 514.391096,422.280067 547.329024,380.002678 L551.892457,374.14249 L552.560506,366.763342 C553.426146,357.330785 553.859649,347.888851 553.859649,338.700077 C553.991115,276.253443 534.922614,215.265276 499.220091,163.944602 L499.220091,163.944602 Z" id="Outline" fill="url(#linearGradient-1)"></path>
                <path d="M474.348541,165.965521 C474.059756,164.053485 473.745859,162.144574 473.406851,160.238787 C464.885895,111.85408 443.78986,66.5317018 412.215824,28.7769784 C405.278706,35.087945 398.664903,41.7238327 392.374412,48.6846414 C374.024262,69.0006098 358.726312,91.8540859 346.956696,116.533781 C338.001222,115.690236 328.932746,115.240345 319.760684,115.240345 C294.938457,115.224924 270.221522,118.451695 246.242933,124.838013 C240.350428,115.49342 233.910699,106.501943 226.957119,97.9101811 C214.208827,82.1288487 199.800569,67.7504808 183.97838,55.020602 C178.604468,50.7091495 173.070469,46.5851515 167.376382,42.648608 C163.779126,49.0220595 160.439265,55.5173563 157.356799,62.1344985 C140.092305,99.2660327 131.177398,139.700294 131.234314,180.615086 C131.234314,182.639594 131.234314,184.65473 131.309649,186.669865 C131.454041,193.393231 131.833856,200.057237 132.449094,206.661883 C104.38401,263.798135 96.4818291,328.680325 110.018034,390.835884 C162.359418,439.138538 231.131033,465.930782 302.50892,465.827338 C305.776585,465.827338 309.025416,465.752056 312.255413,465.648956 C330.485377,465.044323 348.614707,462.696589 366.393181,458.63816 C381.580612,455.150579 396.450787,450.413569 410.850373,444.475976 C456.428003,425.660871 496.300446,395.362248 526.546426,356.559837 C527.318612,348.06815 527.74269,339.482736 527.74269,330.794222 C527.831461,271.625318 509.145004,213.939548 474.348541,165.965521 Z" id="Path" fill="url(#linearGradient-2)"></path>
                <path d="M223.020109,463.438783 C223.020109,463.438783 276.093237,474.820144 304.285396,474.820144 C307.662435,474.820144 311.030067,474.744957 314.388292,474.632178 C333.270607,474.00552 352.048611,471.563212 370.462187,467.339084 C386.207848,463.712129 401.625163,458.786178 416.555473,452.611923 C460.434155,434.425305 499.256853,405.90123 529.709789,369.474418 C531.998776,366.748906 534.234457,363.982668 536.416833,361.175704 C537.21641,352.350686 537.649123,343.412887 537.649123,334.371707 C537.649123,333.2909 537.649123,332.210094 537.649123,331.138686 C537.46897,314.592072 535.895621,298.089941 532.945726,281.806924 C525.661307,287.168515 516.849088,290.057161 507.801368,290.049247 C507.349842,290.049247 506.917129,290.049247 506.47501,290.049247 C485.375573,289.400764 473.711149,262.888114 463.203761,253.997307 C456.205107,251.619533 451.097218,249.17597 443.298987,249.157174 L443.186105,249.157174 C441.728052,249.157174 440.288813,249.222962 438.849573,249.307547 C437.485588,249.17597 436.10279,249.100719 434.701178,249.100719 C424.602564,249.083183 414.830355,252.673209 407.14868,259.22277 C400.56652,263.239441 394.698263,268.321104 389.78374,274.260076 C382.172578,273.121195 374.424438,273.260962 366.859385,274.673602 C352.793956,257.393509 331.269491,247.925313 309.014728,249.228855 C286.759964,250.532398 266.490323,262.448627 254.542273,281.252424 L254.372951,281.252424 C247.601121,281.252901 240.866086,282.247205 234.383516,284.203495 C227.159098,277.145359 217.808746,272.418006 206.934493,272.295828 C196.130532,268.254755 184.147544,268.76805 173.72942,273.718179 C163.311295,278.668308 155.35038,287.631276 151.669583,298.554724 C144.883955,302.468613 139.306206,308.171387 135.546339,315.03937 C131.294743,314.233885 126.976986,313.827985 122.649625,313.826987 C121.342081,313.826987 120.034537,313.826987 118.7364,313.949166 C111.852784,314.328881 105.066056,315.745205 98.605862,318.150213 C98.3111158,323.507253 98.1637427,328.908152 98.1637427,334.35291 C98.1637427,345.027667 98.7434869,355.694561 99.8945926,366.307185 C100.176796,368.825934 100.477814,371.325886 100.835272,373.825838 C101.87629,381.563785 103.218326,389.198351 104.861379,396.729535 C109.545963,401.065291 114.374783,405.244409 119.347841,409.266888 L119.968689,410.272508 C128.293701,417.565602 146.157202,430.742041 146.157202,430.742041 C172.844274,445.732355 198.901091,458.250912 223.020109,463.438783 Z" id="Path" fill="url(#linearGradient-3)" opacity="0.77"></path>
                <path d="M423.84984,310.16003 C422.410245,308.640659 420.796368,307.297456 419.041881,306.158446 C407.262388,314.052797 394.039334,319.528239 380.136856,322.268356 C378.380824,322.616729 376.606011,322.92744 374.812417,323.209905 C369.630079,323.944594 364.401615,324.303315 359.16777,324.283271 C345.524951,324.299255 332.003499,321.714311 319.32369,316.666137 L319.32369,289.568345 L311.811254,289.568345 L311.811254,319.132996 C283.061934,336.823261 247.726822,340.051043 216.262465,327.861159 C216.18734,328.802708 216.140351,329.810166 216.140351,330.789378 C216.126487,341.167169 220.051179,351.161498 227.117934,358.743979 C230.442187,360.448183 233.841564,362.039402 237.287894,363.52705 C289.256809,385.842819 348.776207,381.613454 397.086788,352.171964 C400.786663,349.912246 404.402023,347.464217 407.923477,344.978527 C413.01769,341.309144 417.91393,337.371059 422.591507,333.180913 C426.610752,326.136376 427.077203,317.602778 423.84984,310.16003 Z" id="Path" fill="url(#linearGradient-4)"></path>
                <path d="M348.526316,267.596892 C339.530033,257.100458 326.156307,251.287011 312.264014,251.833972 C298.371721,252.380934 285.506357,259.227455 277.380117,270.398029 C279.493996,289.591378 293.783601,305.287123 312.844776,309.352518 C332.931636,305.067335 347.583113,287.921729 348.526316,267.596892 Z" id="Path" fill="url(#linearGradient-5)"></path>
                <g id="Group" opacity="0.72" transform="translate(153.099415, 75.539568)" fill="#FFFFFF">
                    <path d="M224.300223,54.1382776 C227.564584,53.8392227 230.885391,53.6803498 234.187382,53.6803498 C256.01973,53.6491726 277.345579,60.213414 295.335369,72.502116 C294.301604,45.4256273 282.980526,19.7435223 263.651304,0.626146142 C245.197714,13.9104476 231.428371,32.6348858 224.300223,54.1382776 L224.300223,54.1382776 Z" id="Path"></path>
                    <path d="M2.82221477,109.799866 C18.3368453,87.6478395 41.6676193,72.0996244 68.1847089,66.2406545 C54.9652615,49.7027348 37.1420971,37.3918354 16.9332886,30.8400339 C6.20893887,47.8819547 0.535849847,67.5811672 0.564217229,87.6791508 C0.549202008,95.1102379 1.30579852,102.523058 2.82221477,109.799866 L2.82221477,109.799866 Z" id="Path"></path>
                    <path d="M91.646721,124.780646 C94.2434574,132.644479 100.517313,138.769283 108.477328,141.211398 C116.437344,143.653513 125.095186,142.109721 131.703356,137.069932 C131.945373,135.649539 132.068092,134.211615 132.070244,132.771018 C132.071101,120.53408 123.329036,110.018551 111.232892,107.706482 C102.070313,109.448045 94.5753244,115.98177 91.646721,124.780646 Z" id="Path"></path>
                    <path d="M167.028078,125.902102 C166.786452,127.306831 166.663727,128.729201 166.66119,130.154288 C166.664106,132.040663 166.87547,133.921019 167.291484,135.761567 C171.264329,138.471091 175.92863,140.006984 180.744041,140.191318 C174.432451,137.442087 169.492518,132.295692 167.028078,125.902102 Z" id="Path"></path>
                    <path d="M207.498637,114.687544 C207.496253,112.80114 207.284883,110.920726 206.868343,109.080265 C199.635028,104.164424 190.378213,103.250633 182.312522,106.656226 C174.246832,110.061819 168.48505,117.316942 167.028078,125.902102 C169.494626,132.292168 174.434286,137.434913 180.744041,140.181972 C181.092115,140.181972 181.440188,140.181972 181.797668,140.181972 C195.975096,140.176842 207.472701,128.771636 207.498637,114.687544 Z" id="Path"></path>
                </g>
                <path d="M372.644272,214.937586 C370.06358,216.017316 367.520289,217.152894 364.995699,218.353628 C361.311667,220.10974 357.696205,221.993062 354.149311,224.003594 C351.634072,225.418412 349.165583,226.907694 346.725146,228.443517 C348.12827,233.285402 351.895899,237.092514 356.738261,238.561567 C361.580624,240.03062 366.84081,238.962322 370.718103,235.722385 C371.335904,235.190921 371.914034,234.615407 372.447915,234.000403 C374.773031,231.716836 377.169834,229.498426 379.638322,227.345171 C390.438487,217.881908 402.372812,209.784538 415.169591,203.23741 C400.550792,205.313971 386.259396,209.246025 372.644272,214.937586 L372.644272,214.937586 Z" id="Path" fill="url(#linearGradient-6)"></path>
                <path d="M239.33002,231.917801 C235.705704,230.770954 232.037344,229.735691 228.324937,228.812014 C226.937504,228.467959 225.550071,228.142503 224.153199,227.835643 C220.566637,227.03595 216.942321,226.350941 213.280253,225.780616 C207.856364,224.92513 202.353822,224.305212 196.772628,223.920863 C194.525211,227.492713 193.931216,231.839524 195.139799,235.869776 C200.170424,236.622976 205.125543,237.608646 210.005155,238.770991 C213.62947,239.645075 217.20974,240.618346 220.745965,241.690803 C222.35048,242.180538 223.94241,242.69817 225.521756,243.243697 C228.598648,244.285159 231.62835,245.40721 234.610859,246.60985 C238.581246,248.203039 242.479273,249.932609 246.304939,251.798561 C251.527937,249.325838 254.854141,244.126682 254.865497,238.417638 C254.865497,238.138675 254.865497,237.87831 254.818305,237.599347 C249.765657,235.491627 244.602896,233.597778 239.33002,231.917801 Z" id="Path" fill="url(#linearGradient-7)"></path>
                <path d="M316.24786,419.964029 C302.409336,419.973561 288.833794,416.200594 277.00253,409.056051 L275.664514,408.240121 L274.722249,407.020914 C260.831384,389.486037 255.471505,366.721358 260.088876,344.869496 L260.899224,340.996169 L264.385604,339.120466 C296.99873,321.234023 336.21199,319.841477 370.022914,335.36906 L373.716592,337.066572 L374.771929,340.977412 C380.36638,361.778812 376.744379,383.968904 364.821612,401.937759 L364.048955,403.110073 L362.937083,403.972896 C349.63759,414.402945 333.17957,420.039573 316.24786,419.964029 L316.24786,419.964029 Z" id="Path" fill="url(#linearGradient-8)"></path>
                <path d="M357.227497,394.031462 C367.810526,378.099569 371.022496,358.420392 366.050169,339.976495 C334.670353,325.583841 298.281665,326.88127 268.018371,343.471792 C263.907764,362.850946 268.666546,383.04498 281.006782,398.588503 C304.888108,413.008363 335.254543,411.192832 357.227497,394.031462 L357.227497,394.031462 Z" id="Path" fill="#202020"></path>
                <path d="M357.227497,394.031462 C367.810526,378.099569 371.022496,358.420392 366.050169,339.976495 C334.670353,325.583841 298.281665,326.88127 268.018371,343.471792 C263.907764,362.850946 268.666546,383.04498 281.006782,398.588503 C304.888108,413.008363 335.254543,411.192832 357.227497,394.031462 L357.227497,394.031462 Z" id="Path" fill="url(#linearGradient-9)"></path>
                <path d="M30.8988731,335.993844 L69.5696152,336.041961 C72.8424269,336.046034 75.49455,338.698155 75.4986241,341.970967 L75.5031209,345.583449 C75.5072022,348.86203 72.8526959,351.523153 69.5741153,351.527234 C69.5691898,351.52724 69.5642644,351.52724 69.559339,351.527234 L30.8885969,351.479117 C27.6157852,351.475045 24.9636621,348.822923 24.959588,345.550111 L24.9550912,341.937629 C24.9510099,338.659048 27.6055162,335.997925 30.8840968,335.993844 C30.8890223,335.993838 30.8939477,335.993838 30.8988731,335.993844 Z" id="Rectangle" fill="url(#linearGradient-10)" transform="translate(50.229106, 343.760539) rotate(-40.160000) translate(-50.229106, -343.760539) "></path>
                <path d="M30.8910681,260.196185 L69.5510819,260.147376 C72.8296625,260.143237 75.4908328,262.797696 75.4949721,266.076277 C75.4949784,266.081273 75.4949784,266.08627 75.4949721,266.091266 L75.4904071,269.707036 C75.4862752,272.979764 72.8342349,275.631804 69.5615066,275.635936 L30.9014928,275.684745 C27.6229123,275.688885 24.961742,273.034426 24.9576027,269.755845 C24.9575964,269.750848 24.9575964,269.745852 24.9576027,269.740855 L24.9621677,266.125086 C24.9662996,262.852358 27.6183399,260.200317 30.8910681,260.196185 Z" id="Rectangle" fill="url(#linearGradient-11)" transform="translate(50.226287, 267.916061) rotate(45.000000) translate(-50.226287, -267.916061) "></path>
                <path d="M7.59608867,294.908968 L63.1042033,294.890828 C66.382785,294.885873 69.0414702,297.542822 69.0425416,300.821405 C69.0425421,300.822699 69.0425421,300.823994 69.0386582,300.825288 L69.0374799,304.4222 C69.0325204,307.699265 66.3762003,310.355583 63.0991355,310.360539 L7.59102093,310.378679 C4.31243919,310.383634 1.65375396,307.726686 1.65268255,304.448103 C1.65268212,304.446808 1.65268212,304.445513 1.65656596,304.444219 L1.65774428,300.847308 C1.66270377,297.570243 4.31902389,294.913925 7.59608867,294.908968 Z" id="Rectangle" fill="url(#linearGradient-12)" transform="translate(35.347612, 302.634754) rotate(7.510000) translate(-35.347612, -302.634754) "></path>
                <path d="M561.745891,312.077466 L591.752807,312.040129 C594.297733,312.036962 596.363371,314.097466 596.366537,316.642392 C596.366542,316.646215 596.366542,316.650038 596.366537,316.653862 L596.363047,319.457972 C596.359884,321.99842 594.301232,324.057071 591.760784,324.060232 L561.753868,324.097569 C559.208942,324.100736 557.143305,322.040233 557.140138,319.495306 C557.140133,319.491483 557.140133,319.48766 557.140138,319.483837 L557.143629,316.679727 C557.146791,314.139279 559.205443,312.080627 561.745891,312.077466 Z" id="Rectangle" fill="url(#linearGradient-13)" transform="translate(576.753338, 318.068849) rotate(-139.840000) translate(-576.753338, -318.068849) "></path>
                <path d="M561.746995,253.164746 L591.745586,253.20262 C594.285969,253.205827 596.344557,255.264415 596.347764,257.804799 L596.351308,260.61146 C596.354521,263.156386 594.294055,265.222061 591.749129,265.225274 C591.745251,265.225279 591.741372,265.225279 591.737494,265.225274 L561.738903,265.1874 C559.19852,265.184193 557.139932,263.125605 557.136725,260.585222 L557.133181,257.77856 C557.129968,255.233634 559.190434,253.167959 561.73536,253.164746 C561.739238,253.164741 561.743117,253.164741 561.746995,253.164746 Z" id="Rectangle" fill="url(#linearGradient-14)" transform="translate(576.742245, 259.195010) rotate(135.000000) translate(-576.742245, -259.195010) "></path>
                <path d="M567.619879,280.572114 L610.700497,280.586192 C613.244246,280.59004 615.306156,282.651949 615.310006,285.195698 L615.310921,287.987722 C615.314769,290.532649 613.252373,292.596396 610.707445,292.59723 C610.70644,292.59723 610.705434,292.59723 610.70443,292.594216 L567.623813,292.580137 C565.080063,292.57629 563.018153,290.514381 563.014303,287.970632 L563.013389,285.178608 C563.009541,282.633681 565.071936,280.569933 567.616864,280.5691 C567.61787,280.569099 567.618875,280.569099 567.619879,280.572114 Z" id="Rectangle" fill="url(#linearGradient-15)" transform="translate(589.162155, 286.583165) rotate(172.490000) translate(-589.162155, -286.583165) "></path>
            </g>
            <g id="text" transform="translate(71.000000, 540.000000)">
                <g id="pupper-text" transform="translate(9.000000, 11.000000)">
                    <path d="M21.9408485,1.60193939 L43.9961212,1.60193939 L42.8232727,7.32315152 C48.2750751,2.57886309 55.3414067,0.110767561 62.5614545,0.429090909 C79.3818182,0.429090909 90.4809697,14.9037576 90.4809697,32.7539394 C90.4809697,58.1847273 74.118303,76.3209697 52.9212121,76.3209697 C40.6492121,76.3209697 32.6109091,69.4269091 30.4082424,65.3362424 L22.0838788,105.384727 L0,105.384727 L21.9408485,1.60193939 Z M68.425697,34.928 C68.425697,25.5738182 63.5912727,19.4521212 54.1226667,19.4521212 C43.3095758,19.4521212 35.414303,28.806303 35.414303,40.7922424 C35.414303,50.1464242 40.2201212,56.2967273 49.7173333,56.2967273 C60.5304242,56.2967273 68.425697,46.9139394 68.425697,34.928 Z" id="Shape" fill="url(#linearGradient-16)" fill-rule="nonzero"></path>
                    <path d="M93.0841212,42.1081212 L101.665939,1.60193939 L123.749818,1.60193939 L115.168,41.8220606 C113.251394,50.7185455 117.056,56.1250909 124.379152,56.1250909 C132.96097,56.1250909 138.396121,50.4038788 140.884848,38.3035152 L148.751515,1.60193939 L170.835394,1.60193939 L155.359515,74.6904242 L133.275636,74.6904242 L134.734545,67.5389091 C130.111116,73.2353988 123.070793,76.4162675 115.740121,76.1207273 C98.0615758,76.1779394 89.7086061,58.1847273 93.0841212,42.1081212 Z" id="Path" fill="url(#linearGradient-17)" fill-rule="nonzero"></path>
                    <path d="M175.812848,1.60193939 L197.896727,1.60193939 L196.723879,7.32315152 C202.172675,2.57368891 209.241143,0.104847128 216.462061,0.429090909 C233.282424,0.429090909 244.381576,14.9037576 244.381576,32.7539394 C244.381576,58.1847273 228.018909,76.3209697 206.821818,76.3209697 C194.521212,76.3209697 186.482909,69.4269091 184.308848,65.3362424 L175.955879,105.384727 L153.900606,105.384727 L175.812848,1.60193939 Z M222.297697,34.928 C222.297697,25.5738182 217.491879,19.4521212 208.137697,19.4521212 C197.296,19.4521212 189.400727,28.806303 189.400727,40.7922424 C189.400727,50.1464242 194.235152,56.2967273 203.703758,56.2967273 C214.545455,56.2967273 222.297697,46.9139394 222.297697,34.928 Z" id="Shape" fill="url(#linearGradient-18)" fill-rule="nonzero"></path>
                    <path d="M254.73697,1.60193939 L276.820848,1.60193939 L275.648,7.32315152 C281.096797,2.57368891 288.165265,0.104847128 295.386182,0.429090909 C312.177939,0.429090909 323.305697,14.9037576 323.305697,32.7539394 C323.305697,58.1847273 306.914424,76.3209697 285.717333,76.3209697 C273.445333,76.3209697 265.40703,69.4269091 263.204364,65.3362424 L254.88,105.384727 L232.796121,105.384727 L254.73697,1.60193939 Z M301.221818,34.928 C301.221818,25.5738182 296.387394,19.4521212 286.918788,19.4521212 C276.105697,19.4521212 268.210424,28.806303 268.210424,40.7922424 C268.210424,50.1464242 273.044848,56.2967273 282.513455,56.2967273 C293.326545,56.2967273 301.221818,46.9139394 301.221818,34.928 Z" id="Shape" fill="url(#linearGradient-19)" fill-rule="nonzero"></path>
                    <path d="M327.911273,41.5073939 C327.911273,17.1636364 343.272727,0 369.561697,0 C391.788606,0 407.722182,17.5355152 402.887758,43.424 L348.536242,43.424 C349.566061,52.0058182 357.118061,56.2967273 364.927515,56.2967273 C371.402412,56.4503902 377.511897,53.3040592 381.147152,47.9437576 L397.366788,60.5304242 C390.501333,70.0276364 380.203152,76.3209697 363.468606,76.3209697 C339.754182,76.3209697 327.911273,59.5006061 327.911273,41.5073939 Z M349.537455,28.9493333 L382.291394,28.9493333 C381.404606,21.6261818 375.111273,17.9932121 367.988364,17.9932121 C360.865455,17.9932121 352.455273,21.6261818 349.537455,28.9493333 L349.537455,28.9493333 Z" id="Shape" fill="url(#linearGradient-20)" fill-rule="nonzero"></path>
                    <path d="M415.588848,1.60193939 L437.672727,1.60193939 L435.498667,11.6998788 C439.608307,4.59971586 447.327397,0.376270782 455.522909,0.743757576 C457.840916,0.695102077 460.153657,0.984194773 462.388364,1.60193939 L457.69697,23.9718788 C454.815773,22.8426301 451.751951,22.2511962 448.657455,22.2269091 C438.702545,22.2269091 431.980121,29.5214545 429.634424,40.0484848 L422.339879,74.6904242 L400.256,74.6904242 L415.588848,1.60193939 Z" id="Path" fill="url(#linearGradient-21)" fill-rule="nonzero"></path>
                    <path d="M29.1781818,6.77963636 L51.2620606,6.77963636 L50.0892121,12.5008485 C55.5656476,7.8106749 62.6248456,5.38599382 69.8273939,5.72121212 C86.6477576,5.72121212 97.7469091,20.0242424 97.7469091,37.9030303 C97.7469091,63.3338182 81.3842424,81.4700606 60.1871515,81.4700606 C47.8865455,81.4700606 39.8482424,74.6046061 37.6741818,70.5139394 L29.3212121,110.562424 L7.26593939,110.562424 L29.1781818,6.77963636 Z M75.6630303,40.0484848 C75.6630303,30.694303 70.8572121,24.544 61.5030303,24.544 C50.6899394,24.6012121 42.9090909,33.9553939 42.9090909,45.9413333 C42.9090909,55.2955152 47.7149091,61.4458182 57.0690909,61.4458182 C67.7677576,61.4458182 75.6630303,52.0916364 75.6630303,40.0484848 Z" id="Shape" fill="url(#linearGradient-22)" fill-rule="nonzero"></path>
                    <path d="M100.350061,47.2572121 L108.931879,6.77963636 L131.015758,6.77963636 L122.433939,46.9711515 C120.545939,55.8962424 124.350545,61.2741818 131.645091,61.2741818 C140.226909,61.2741818 145.690667,55.4099394 148.179394,43.424 L156.046061,6.77963636 L178.101333,6.77963636 L162.625455,79.8681212 L140.541576,79.8681212 L142.000485,72.688 C137.374222,78.3808132 130.335846,81.5608025 123.006061,81.2698182 C105.298909,81.3270303 96.9745455,63.3338182 100.350061,47.2572121 Z" id="Path" fill="url(#linearGradient-23)" fill-rule="nonzero"></path>
                    <path d="M183.078788,6.77963636 L205.162667,6.77963636 L203.989818,12.5008485 C209.463328,7.80556155 216.524618,5.3801618 223.728,5.72121212 C240.519758,5.72121212 251.733333,20.0242424 251.733333,37.9030303 C251.733333,63.3338182 235.342061,81.4700606 214.14497,81.4700606 C201.87297,81.4700606 193.834667,74.6046061 191.632,70.5139394 L183.307636,110.562424 L161.137939,110.562424 L183.078788,6.77963636 Z M229.563636,40.0484848 C229.563636,30.694303 224.729212,24.544 215.260606,24.544 C204.447515,24.544 196.552242,33.8981818 196.552242,45.8841212 C196.552242,55.238303 201.386667,61.3888671 210.855273,61.3888671 C221.668364,61.4458182 229.563636,52.0916364 229.563636,40.0484848 Z" id="Shape" fill="url(#linearGradient-24)" fill-rule="nonzero"></path>
                    <path d="M262.002909,6.77963636 L284.058182,6.77963636 L282.913939,12.5008485 C288.378675,7.80992984 295.429437,5.38463138 302.623515,5.72121212 C319.443879,5.72121212 330.571636,20.1958788 330.571636,38.0174545 C330.571636,63.4482424 314.180364,81.5844848 292.983273,81.5844848 C280.711273,81.5844848 272.67297,74.7190303 270.470303,70.6283636 L262.145939,110.676848 L240.062061,110.676848 L262.002909,6.77963636 Z M308.487758,40.0484848 C308.487758,30.694303 303.653333,24.544 294.184727,24.544 C283.371636,24.544 275.476364,33.8981818 275.476364,45.8841212 C275.476364,55.238303 280.310788,61.3888671 289.779394,61.3888671 C300.592485,61.4458182 308.487758,52.0916364 308.487758,40.0484848 Z" id="Shape" fill="url(#linearGradient-25)" fill-rule="nonzero"></path>
                    <path d="M335.177212,46.6850909 C335.177212,22.3985455 350.653091,5.14909091 376.827636,5.14909091 C399.054545,5.14909091 414.988121,22.7132121 410.153697,48.5730909 L355.802182,48.5730909 C356.832,57.1549091 364.384,61.4458182 372.164848,61.4458182 C378.641921,61.6050206 384.75847,58.4713661 388.413091,53.1214545 L404.604121,65.7939394 C397.738667,75.2911515 387.440485,81.5844848 370.677333,81.5844848 C346.991515,81.4700606 335.177212,64.649697 335.177212,46.6850909 Z M356.803394,34.0984242 L389.557333,34.0984242 C388.670545,26.8038788 382.377212,23.142303 375.254303,23.142303 C368.131394,23.142303 359.721212,26.8038788 356.803394,34.0984242 Z" id="Shape" fill="url(#linearGradient-26)" fill-rule="nonzero"></path>
                    <path d="M422.826182,6.77963636 L444.910061,6.77963636 L442.707394,16.8489697 C446.831043,9.76317285 454.54067,5.54490536 462.731636,5.89284848 C465.061266,5.83836255 467.385693,6.13735535 469.625697,6.77963636 L464.934303,29.1209697 C462.040086,28.0023466 458.968852,27.411352 455.866182,27.376 C445.939879,27.376 439.217455,34.6991515 436.871758,45.2261818 L429.548606,79.8681212 L407.350303,79.8681212 L422.826182,6.77963636 Z" id="Path" fill="url(#linearGradient-27)" fill-rule="nonzero"></path>
                </g>
            </g>
        </g>
    </g>
</svg>