<?xml version="1.0" encoding="UTF-8"?>
<svg width="1080px" height="1920px" viewBox="0 0 1080 1920" version="1.1" xmlns="http://www.w3.org/2000/svg" xmlns:xlink="http://www.w3.org/1999/xlink">
    <!-- Generator: Sketch 55.1 (78136) - https://sketchapp.com -->
    <title>Story</title>
    <desc>Created with Sketch.</desc>
    <defs>
        <linearGradient x1="51.2970988%" y1="90.281745%" x2="47.8818915%" y2="31.352603%" id="linearGradient-1">
            <stop stop-color="#26241D" offset="0%"></stop>
            <stop stop-color="#4A4737" offset="100%"></stop>
        </linearGradient>
        <linearGradient x1="52.7018699%" y1="84.6385865%" x2="43.1992745%" y2="29.9420768%" id="linearGradient-2">
            <stop stop-color="#FFCA90" offset="0%"></stop>
            <stop stop-color="#FFDD91" offset="100%"></stop>
        </linearGradient>
        <linearGradient x1="50%" y1="14.3981591%" x2="50%" y2="71.1912478%" id="linearGradient-3">
            <stop stop-color="#FCFBFA" offset="0%"></stop>
            <stop stop-color="#E2E2E2" offset="100%"></stop>
        </linearGradient>
        <linearGradient x1="56.87057%" y1="66.1008931%" x2="48.3408821%" y2="44.2786914%" id="linearGradient-4">
            <stop stop-color="#26241D" offset="0%"></stop>
            <stop stop-color="#4A4737" offset="100%"></stop>
        </linearGradient>
        <linearGradient x1="47.0775348%" y1="17.3549423%" x2="56.7660702%" y2="82.0716812%" id="linearGradient-5">
            <stop stop-color="#26241D" offset="0%"></stop>
            <stop stop-color="#4A4737" offset="100%"></stop>
        </linearGradient>
        <linearGradient x1="75.4508197%" y1="100.705887%" x2="41.4071038%" y2="27.3707216%" id="linearGradient-6">
            <stop stop-color="#26241D" offset="0%"></stop>
            <stop stop-color="#4A4737" offset="100%"></stop>
        </linearGradient>
        <linearGradient x1="86.0472373%" y1="115.872729%" x2="47.0670976%" y2="42.8232046%" id="linearGradient-7">
            <stop stop-color="#26241D" offset="0%"></stop>
            <stop stop-color="#4A4737" offset="100%"></stop>
        </linearGradient>
        <linearGradient x1="59.5590475%" y1="80.9018517%" x2="45.6165595%" y2="24.3353393%" id="linearGradient-8">
            <stop stop-color="#26241D" offset="0%"></stop>
            <stop stop-color="#4A4737" offset="100%"></stop>
        </linearGradient>
        <linearGradient x1="50.0124318%" y1="83.5259105%" x2="50.0124318%" y2="-3.60338158%" id="linearGradient-9">
            <stop stop-color="#FFA8BB" offset="0%"></stop>
            <stop stop-color="#FFB79A" offset="100%"></stop>
        </linearGradient>
        <linearGradient x1="18.0189829%" y1="41.6800943%" x2="81.9571483%" y2="58.3261538%" id="linearGradient-10">
            <stop stop-color="#00E5FF" stop-opacity="0" offset="0%"></stop>
            <stop stop-color="#00E5FF" stop-opacity="0.06" offset="5%"></stop>
            <stop stop-color="#00E5FF" stop-opacity="0.2" offset="13%"></stop>
            <stop stop-color="#00E5FF" stop-opacity="0.44" offset="25%"></stop>
            <stop stop-color="#00E5FF" stop-opacity="0.77" offset="39%"></stop>
            <stop stop-color="#00E5FF" offset="48%"></stop>
            <stop stop-color="#FFA8BB" offset="82%"></stop>
        </linearGradient>
        <linearGradient x1="21.8115537%" y1="58.6992991%" x2="78.1698042%" y2="41.2952664%" id="linearGradient-11">
            <stop stop-color="#00E5FF" stop-opacity="0" offset="0%"></stop>
            <stop stop-color="#00E5FF" stop-opacity="0.06" offset="5%"></stop>
            <stop stop-color="#00E5FF" stop-opacity="0.2" offset="13%"></stop>
            <stop stop-color="#00E5FF" stop-opacity="0.44" offset="25%"></stop>
            <stop stop-color="#00E5FF" stop-opacity="0.77" offset="39%"></stop>
            <stop stop-color="#00E5FF" offset="48%"></stop>
            <stop stop-color="#FFA8BB" offset="82%"></stop>
        </linearGradient>
        <linearGradient x1="0.760472563%" y1="51.4928057%" x2="99.2523394%" y2="48.511096%" id="linearGradient-12">
            <stop stop-color="#00E5FF" stop-opacity="0" offset="0%"></stop>
            <stop stop-color="#00E5FF" stop-opacity="0.06" offset="5%"></stop>
            <stop stop-color="#00E5FF" stop-opacity="0.2" offset="13%"></stop>
            <stop stop-color="#00E5FF" stop-opacity="0.44" offset="25%"></stop>
            <stop stop-color="#00E5FF" stop-opacity="0.77" offset="39%"></stop>
            <stop stop-color="#00E5FF" offset="48%"></stop>
            <stop stop-color="#FFA8BB" offset="82%"></stop>
        </linearGradient>
        <linearGradient x1="18.0477469%" y1="58.316493%" x2="81.9698698%" y2="41.6702379%" id="linearGradient-13">
            <stop stop-color="#00E5FF" stop-opacity="0" offset="0%"></stop>
            <stop stop-color="#00E5FF" stop-opacity="0.06" offset="3%"></stop>
            <stop stop-color="#00E5FF" stop-opacity="0.2" offset="10%"></stop>
            <stop stop-color="#00E5FF" stop-opacity="0.44" offset="19%"></stop>
            <stop stop-color="#00E5FF" stop-opacity="0.77" offset="30%"></stop>
            <stop stop-color="#00E5FF" offset="37%"></stop>
            <stop stop-color="#FFA8BB" offset="72%"></stop>
        </linearGradient>
        <linearGradient x1="21.8403037%" y1="41.2896029%" x2="78.2056059%" y2="58.7003857%" id="linearGradient-14">
            <stop stop-color="#00E5FF" stop-opacity="0" offset="0%"></stop>
            <stop stop-color="#00E5FF" stop-opacity="0.06" offset="3%"></stop>
            <stop stop-color="#00E5FF" stop-opacity="0.2" offset="10%"></stop>
            <stop stop-color="#00E5FF" stop-opacity="0.44" offset="19%"></stop>
            <stop stop-color="#00E5FF" stop-opacity="0.77" offset="30%"></stop>
            <stop stop-color="#00E5FF" offset="37%"></stop>
            <stop stop-color="#FFA8BB" offset="72%"></stop>
        </linearGradient>
        <linearGradient x1="0.777044631%" y1="48.5025465%" x2="99.2596105%" y2="51.4843349%" id="linearGradient-15">
            <stop stop-color="#00E5FF" stop-opacity="0" offset="0%"></stop>
            <stop stop-color="#00E5FF" stop-opacity="0.06" offset="3%"></stop>
            <stop stop-color="#00E5FF" stop-opacity="0.2" offset="10%"></stop>
            <stop stop-color="#00E5FF" stop-opacity="0.44" offset="19%"></stop>
            <stop stop-color="#00E5FF" stop-opacity="0.77" offset="30%"></stop>
            <stop stop-color="#00E5FF" offset="37%"></stop>
            <stop stop-color="#FFA8BB" offset="72%"></stop>
        </linearGradient>
        <linearGradient x1="50.0158078%" y1="99.8910069%" x2="50.0158078%" y2="0.0260709182%" id="linearGradient-16">
            <stop stop-color="#62C5E3" offset="0%"></stop>
            <stop stop-color="#62C5E3" offset="37%"></stop>
            <stop stop-color="#F4A6BB" offset="72%"></stop>
        </linearGradient>
        <linearGradient x1="50.0314672%" y1="100.051375%" x2="50.0314672%" y2="0%" id="linearGradient-17">
            <stop stop-color="#62C5E3" offset="0%"></stop>
            <stop stop-color="#62C5E3" offset="37%"></stop>
            <stop stop-color="#F4A6BB" offset="72%"></stop>
        </linearGradient>
        <linearGradient x1="49.9841922%" y1="99.8910079%" x2="49.9841922%" y2="0.0269866343%" id="linearGradient-18">
            <stop stop-color="#62C5E3" offset="0%"></stop>
            <stop stop-color="#62C5E3" offset="37%"></stop>
            <stop stop-color="#F4A6BB" offset="72%"></stop>
        </linearGradient>
        <linearGradient x1="50%" y1="99.8910079%" x2="50%" y2="0.0269866343%" id="linearGradient-19">
            <stop stop-color="#62C5E3" offset="0%"></stop>
            <stop stop-color="#62C5E3" offset="37%"></stop>
            <stop stop-color="#F4A6BB" offset="72%"></stop>
        </linearGradient>
        <linearGradient x1="50.0121468%" y1="100%" x2="50.0121468%" y2="0%" id="linearGradient-20">
            <stop stop-color="#62C5E3" offset="0%"></stop>
            <stop stop-color="#62C5E3" offset="37%"></stop>
            <stop stop-color="#F4A6BB" offset="72%"></stop>
        </linearGradient>
        <linearGradient x1="49.7237569%" y1="100%" x2="49.7237569%" y2="0.0299762714%" id="linearGradient-21">
            <stop stop-color="#62C5E3" offset="0%"></stop>
            <stop stop-color="#62C5E3" offset="37%"></stop>
            <stop stop-color="#F4A6BB" offset="72%"></stop>
        </linearGradient>
        <linearGradient x1="11.2275917%" y1="60.4208472%" x2="191.381028%" y2="-31.0940099%" id="linearGradient-22">
            <stop stop-color="#26241D" offset="0%"></stop>
            <stop stop-color="#4B4737" offset="100%"></stop>
        </linearGradient>
        <linearGradient x1="-105.337049%" y1="112.126615%" x2="173.657468%" y2="-3.94914088%" id="linearGradient-23">
            <stop stop-color="#26241D" offset="0%"></stop>
            <stop stop-color="#4B4737" offset="100%"></stop>
        </linearGradient>
        <linearGradient x1="-95.185878%" y1="114.374924%" x2="85.1919352%" y2="22.8609414%" id="linearGradient-24">
            <stop stop-color="#26241D" offset="0%"></stop>
            <stop stop-color="#4B4737" offset="100%"></stop>
        </linearGradient>
        <linearGradient x1="-149.055426%" y1="141.879203%" x2="30.7615773%" y2="50.4642866%" id="linearGradient-25">
            <stop stop-color="#26241D" offset="0%"></stop>
            <stop stop-color="#4B4737" offset="100%"></stop>
        </linearGradient>
        <linearGradient x1="-362.568997%" y1="232.597305%" x2="-78.2929191%" y2="107.035928%" id="linearGradient-26">
            <stop stop-color="#26241D" offset="0%"></stop>
            <stop stop-color="#4B4737" offset="100%"></stop>
        </linearGradient>
        <linearGradient x1="-376.240484%" y1="265.268588%" x2="-127.175875%" y2="135.566573%" id="linearGradient-27">
            <stop stop-color="#26241D" offset="0%"></stop>
            <stop stop-color="#4B4737" offset="100%"></stop>
        </linearGradient>
    </defs>
    <g id="Story" stroke="none" stroke-width="1" fill="none" fill-rule="evenodd">
        <rect fill="#FCEE9D" x="0" y="0" width="1080" height="1920"></rect>
        <g id="Group-2" transform="translate(130.000000, 497.000000)">
            <g id="underdog-emblem" fill-rule="nonzero">
                <path d="M671.029602,220.363714 L671.029602,220.073844 C661.113631,163.14553 639.208187,108.956175 606.755767,61.0742097 C598.899027,49.4315618 590.456687,38.192134 581.461066,27.3989542 L558.569361,0 L532.149046,24.0213462 C522.094402,33.1711349 512.330647,42.9258684 503.123376,53.1721194 C481.53527,77.1094257 462.813719,103.467101 447.335913,131.714108 C441.846963,131.487253 436.383307,131.386429 430.995536,131.386429 C402.93266,131.382559 374.941143,134.203144 347.447138,139.805243 C342.792913,133.31469 337.948978,126.937565 332.978569,120.787294 C314.322395,97.6776069 293.241886,76.6202959 270.095942,57.973868 C262.241937,51.6723606 254.071749,45.5472954 245.800382,39.8255267 L214.940846,18.5012257 L196.551598,51.143034 C191.315595,60.4566619 186.433718,70.0475562 181.893319,79.7140685 C156.557216,134.099323 143.501857,193.360942 143.647731,253.320597 C143.647731,256.50916 143.647731,259.622105 143.761557,262.142708 C143.900678,268.658466 144.191567,275.287652 144.659519,281.916838 C119.384928,336.224774 106.368651,395.395017 106.526316,455.258703 C106.513235,484.818713 109.663387,514.29592 115.924738,543.189937 L118.201262,553.688249 L126.105856,560.972791 C202.715414,631.741916 303.362332,670.999569 407.82559,670.858856 C412.150984,670.858856 416.678735,670.782859 422.079154,670.593814 C448.74778,669.707859 475.269099,666.268207 501.276863,660.322357 C523.523573,655.207749 545.305523,648.26061 566.398071,639.552588 C633.080425,611.979397 691.421797,567.601511 735.695506,510.774983 L741.829471,502.898099 L742.727433,492.979526 C743.890989,480.300894 744.473684,467.609658 744.473684,455.258703 C744.650394,371.321983 719.019357,289.345639 671.029602,220.363714 L671.029602,220.363714 Z" id="Outline" fill="url(#linearGradient-1)"></path>
                <path d="M637.598363,223.080102 C637.210191,220.510068 636.788265,217.944233 636.332585,215.382598 C624.879093,150.347009 596.522734,89.4276038 554.082309,38.6801503 C544.757742,47.1629428 535.867759,56.0824731 527.412359,65.4387413 C502.746897,92.7461499 482.184069,123.464312 466.36387,156.63716 C454.326318,155.503321 442.136873,154.898607 429.808192,154.898607 C396.443251,154.877879 363.219838,159.215095 330.988878,167.799171 C323.068432,155.238773 314.412432,143.153013 305.065737,131.604523 C287.930047,110.392278 268.563102,91.0658075 247.295614,73.955129 C240.072239,68.159954 232.633682,62.616743 224.979942,57.3254962 C220.144669,65.8922768 215.655375,74.622834 211.512061,83.5171679 C188.305891,133.426971 176.322867,187.776086 176.39937,242.771099 C176.39937,245.492312 176.39937,248.200926 176.500632,250.90954 C176.694718,259.946654 177.205249,268.903979 178.032224,277.781515 C140.308377,354.580364 129.686614,441.790801 147.881384,525.336277 C218.236361,590.261576 310.676129,626.273975 406.619133,626.134932 C411.011384,626.134932 415.378319,626.033743 419.719939,625.895163 C444.223851,625.082454 468.592496,621.926783 492.489535,616.471704 C512.90381,611.783924 532.891642,605.416743 552.24693,597.435814 C613.510368,572.14577 667.105144,531.420323 707.760456,479.264635 C708.798395,467.85066 709.368421,456.310703 709.368421,444.632165 C709.487742,365.101157 684.370233,287.563682 637.598363,223.080102 Z" id="Path" fill="url(#linearGradient-2)"></path>
                <path d="M299.773783,622.924391 C299.773783,622.924391 371.112338,638.222479 409.006994,638.222479 C413.54626,638.222479 418.072882,638.121419 422.58686,637.969827 C447.967634,637.127515 473.208198,633.844722 497.958913,628.166924 C519.123536,623.291805 539.84681,616.670661 559.915474,608.371627 C618.895261,583.926354 671.079017,545.58614 712.012509,496.623578 C715.089263,492.960122 718.094367,489.241925 721.027821,485.468986 C722.102578,473.606967 722.684211,461.593357 722.684211,449.440788 C722.684211,447.988038 722.684211,446.535288 722.684211,445.095171 C722.442057,422.854284 720.327231,400.673189 716.362112,378.786613 C706.570718,385.993315 694.725722,389.876047 682.564176,389.86541 C681.957255,389.86541 681.375622,389.86541 680.781345,389.86541 C652.420413,388.99376 636.74161,353.357173 622.618043,341.406726 C613.210761,338.210676 606.344962,334.926198 595.862924,334.900933 L595.711193,334.900933 C593.751343,334.900933 591.816781,334.989361 589.882219,335.103055 C588.04881,334.926198 586.190114,334.825051 584.306128,334.825051 C570.732018,334.80148 557.596647,339.626959 547.271278,348.430456 C538.423829,353.829404 530.535977,360.659847 523.930092,368.642628 C513.699504,367.111819 503.284796,367.299684 493.116186,369.198463 C474.210058,345.971682 445.277822,333.245146 415.363952,334.997283 C385.450082,336.74942 358.204525,352.766443 342.144484,378.041289 L341.916889,378.041289 C332.814493,378.041931 323.761557,379.37841 315.047972,382.007928 C305.33723,372.520839 292.768899,366.166637 278.152208,366.002413 C263.630001,360.570664 247.522998,361.260603 233.519415,367.914246 C219.515832,374.567888 208.815122,386.615329 203.867556,401.29792 C194.746615,406.558717 187.249251,414.224016 182.195404,423.455514 C176.480596,422.372833 170.676857,421.827248 164.860211,421.825907 C163.102668,421.825907 161.345124,421.825907 159.600225,421.990131 C150.347573,422.50052 141.225154,424.404251 132.541646,427.636907 C132.145461,434.837493 131.947368,442.097032 131.947368,449.415523 C131.947368,463.76384 132.726635,478.101588 134.273901,492.36639 C134.653226,495.751928 135.057841,499.112202 135.53832,502.472476 C136.937611,512.873323 138.741516,523.135211 140.950036,533.258141 C147.246846,539.085984 153.737533,544.703284 160.422098,550.11004 L161.256615,551.461729 C172.446729,561.264633 196.458057,578.975549 196.458057,578.975549 C232.329641,599.124558 267.354065,615.951192 299.773783,622.924391 Z" id="Path" fill="url(#linearGradient-3)" opacity="0.77"></path>
                <path d="M569.72024,416.897021 C567.7852,414.854781 565.615898,413.049334 563.257594,411.51835 C547.424119,422.129426 529.650274,429.48916 510.963176,433.172248 C508.602796,433.640508 506.217171,434.058146 503.806301,434.437817 C496.840431,435.425339 489.812561,435.907508 482.777457,435.880567 C464.439383,435.902051 446.264444,432.427537 429.220804,425.642108 L429.220804,389.219012 L419.12292,389.219012 L419.12292,428.957901 C380.479352,452.736009 332.983456,457.074584 290.690456,440.689732 C290.589477,441.955301 290.526316,443.309461 290.526316,444.625653 C290.50768,458.574808 295.783079,472.008539 305.281898,482.200418 C309.750212,484.491099 314.319505,486.629912 318.951909,488.629512 C388.80623,518.624923 468.809577,512.940085 533.746527,473.366741 C538.719735,470.329374 543.579342,467.038893 548.312725,463.697789 C555.160142,458.765641 561.741452,453.472323 568.028844,447.8402 C573.431336,438.37139 574.058318,426.901081 569.72024,416.897021 Z" id="Path" fill="url(#linearGradient-4)"></path>
                <path d="M468.473684,359.686407 C456.381279,345.577781 438.404907,337.763722 419.731499,338.498912 C401.058092,339.234103 383.765039,348.436753 372.842105,363.451515 C375.683488,389.249971 394.890945,410.347175 420.512134,415.811615 C447.512004,410.05175 467.205873,387.005737 468.473684,359.686407 Z" id="Path" fill="url(#linearGradient-5)"></path>
                <g id="Group" opacity="0.72" transform="translate(205.789474, 101.535394)" fill="#FFFFFF">
                    <path d="M301.494455,72.7691658 C305.882266,72.3671956 310.345947,72.1536489 314.784338,72.1536489 C344.130416,72.1117425 372.795681,80.9349706 396.976762,97.4526477 C395.587221,61.0581857 380.369928,26.5379638 354.388441,0.841625083 C329.583941,18.6975226 311.075798,43.8656994 301.494455,72.7691658 L301.494455,72.7691658 Z" id="Path"></path>
                    <path d="M3.79349648,147.585867 C24.6475778,117.810548 56.007774,96.9116447 91.650875,89.0363969 C73.8818774,66.8071965 49.9247669,50.2596829 22.7609789,41.4531757 C8.34578147,64.3598218 0.720265704,90.8382272 0.758395885,117.852635 C0.738213088,127.841021 1.75519671,137.804853 3.79349648,147.585867 L3.79349648,147.585867 Z" id="Path"></path>
                    <path d="M123.187476,167.722061 C126.677894,178.292117 135.110934,186.524681 145.810435,189.807213 C156.509936,193.089746 168.147425,191.014681 177.029836,184.240524 C177.355145,182.331323 177.520098,180.398558 177.52299,178.462202 C177.524142,162.014103 165.773445,147.879809 149.514341,144.772076 C137.198408,147.112972 127.123975,155.895183 123.187476,167.722061 Z" id="Path"></path>
                    <path d="M224.511767,169.22945 C224.186984,171.117595 224.022022,173.029453 224.018612,174.944963 C224.022532,177.480505 224.306638,180.007958 224.865826,182.481904 C230.205949,186.123871 236.475496,188.188319 242.94816,188.436088 C234.464399,184.74075 227.824359,177.823299 224.511767,169.22945 Z" id="Path"></path>
                    <path d="M278.910506,154.155568 C278.907302,151.619985 278.623186,149.092455 278.063292,146.618626 C268.340589,140.011071 255.897987,138.782812 245.056442,143.36039 C234.214897,147.937967 226.470164,157.689834 224.511767,169.22945 C227.827193,177.818562 234.466866,184.731107 242.94816,188.423526 C243.416024,188.423526 243.883889,188.423526 244.364398,188.423526 C263.42107,188.416631 278.875643,173.086491 278.910506,154.155568 Z" id="Path"></path>
                </g>
                <path d="M500.891976,288.90518 C497.423123,290.356483 494.004544,291.882853 490.611102,293.496802 C485.659189,295.857254 480.799444,298.388694 476.031867,301.09112 C472.650992,302.992827 469.332959,304.994624 466.052632,307.058978 C467.938649,313.567125 473.002929,318.684399 479.511819,320.659005 C486.020708,322.63361 493.091219,321.197674 498.302905,316.842761 C499.133325,316.128401 499.910423,315.354832 500.628041,314.528183 C503.75336,311.458761 506.975036,308.476917 510.293069,305.582652 C524.810174,292.862747 540.851767,281.978786 558.052632,273.178561 C538.402687,275.96974 519.192824,281.254952 500.891976,288.90518 L500.891976,288.90518 Z" id="Path" fill="url(#linearGradient-6)"></path>
                <path d="M321.696845,311.728885 C316.8252,310.187367 311.894351,308.795834 306.904298,307.554287 C305.039372,307.091831 303.174445,306.654373 301.296832,306.241913 C296.475934,305.167017 291.604289,304.246272 286.681898,303.479679 C279.391346,302.329789 271.995073,301.496536 264.493078,300.979919 C261.4722,305.780968 260.673777,311.623671 262.298301,317.040874 C269.060245,318.053277 275.720697,319.37815 282.279656,320.940499 C287.151301,322.115386 291.963742,323.423594 296.716979,324.865122 C298.873697,325.523392 301.013499,326.219158 303.136386,326.952421 C307.272209,328.352286 311.3446,329.860475 315.353557,331.476986 C320.690377,333.618446 325.929932,335.943223 331.072224,338.451315 C338.092747,335.12764 342.563683,328.139272 342.578947,320.465545 C342.578947,320.090581 342.578947,319.740615 342.515514,319.365651 C335.723968,316.53259 328.784411,313.987001 321.696845,311.728885 Z" id="Path" fill="url(#linearGradient-7)"></path>
                <path d="M425.086409,564.488443 C406.485277,564.501256 388.237632,559.429878 372.334569,549.826646 L370.536067,548.729925 L369.269517,547.091146 C350.598029,523.521901 343.393517,492.923094 349.599983,463.551236 L350.689217,458.344962 L355.375454,455.823763 C399.212579,431.781965 451.921312,429.910194 497.368462,450.781366 L502.333342,453.063051 L503.751878,458.31975 C511.271693,486.279643 506.403159,516.106128 490.377102,540.258698 L489.338531,541.834447 L487.844001,542.994199 C469.96741,557.013594 447.845266,564.589984 425.086409,564.488443 L425.086409,564.488443 Z" id="Path" fill="url(#linearGradient-8)"></path>
                <path d="M480.169427,529.631566 C494.394668,508.216948 498.712057,481.765473 492.028474,456.974381 C449.849111,437.628708 400.937044,439.372628 360.25846,461.672534 C354.733163,487.720736 361.129708,514.86425 377.716908,535.756846 C409.817132,555.139088 450.634353,552.698769 480.169427,529.631566 L480.169427,529.631566 Z" id="Path" fill="#202020"></path>
                <path d="M480.169427,529.631566 C494.394668,508.216948 498.712057,481.765473 492.028474,456.974381 C449.849111,437.628708 400.937044,439.372628 360.25846,461.672534 C354.733163,487.720736 361.129708,514.86425 377.716908,535.756846 C409.817132,555.139088 450.634353,552.698769 480.169427,529.631566 L480.169427,529.631566 Z" id="Path" fill="url(#linearGradient-9)"></path>
                <path d="M41.5322322,451.620896 L93.5131531,451.685968 C97.9117648,451.691474 101.476172,455.255879 101.481681,459.654491 L101.487764,464.511894 C101.493282,468.918306 97.9256531,472.494883 93.5192407,472.500401 C93.5125807,472.500409 93.5059207,472.50041 93.4992607,472.500401 L41.5183398,472.435329 C37.119728,472.429823 33.555321,468.865418 33.5498123,464.466806 L33.543729,459.609403 C33.5382105,455.202991 37.1058398,451.626414 41.5122522,451.620896 C41.5189122,451.620887 41.5255722,451.620887 41.5322322,451.620896 Z" id="Rectangle" fill="url(#linearGradient-10)" transform="translate(67.515746, 462.060648) rotate(-40.160000) translate(-67.515746, -462.060648) "></path>
                <path d="M41.5217047,349.738978 L93.4881177,349.672971 C97.8945299,349.667374 101.47117,353.234939 101.476767,357.641352 C101.476776,357.648108 101.476776,357.654864 101.476767,357.66162 L101.470592,362.523468 C101.465005,366.921967 97.9007097,370.486262 93.5022107,370.491849 L41.5357978,370.557857 C37.1293855,370.563454 33.5527454,366.995888 33.5471483,362.589476 C33.5471398,362.58272 33.5471398,362.575964 33.5471483,362.569207 L33.5533239,357.707359 C33.5589108,353.30886 37.1232058,349.744565 41.5217047,349.738978 Z" id="Rectangle" fill="url(#linearGradient-11)" transform="translate(67.511958, 360.115414) rotate(45.000000) translate(-67.511958, -360.115414) "></path>
                <path d="M10.2094343,396.397603 L84.8228176,396.373072 C89.2292314,396.366372 92.8025114,399.937303 92.8039602,404.343719 C92.8039607,404.34547 92.8039607,404.34722 92.7987092,404.34897 L92.7971152,409.185317 C92.7904091,413.589679 89.2203271,417.159758 84.8159644,417.166461 L10.2025812,417.190992 C5.79616732,417.197692 2.2228873,413.62676 2.22143857,409.220345 C2.221438,409.218594 2.221438,409.216843 2.22668959,409.215094 L2.22828357,404.378747 C2.23498965,399.974384 5.80507167,396.404305 10.2094343,396.397603 Z" id="Rectangle" fill="url(#linearGradient-12)" transform="translate(47.512699, 406.782032) rotate(7.510000) translate(-47.512699, -406.782032) "></path>
                <path d="M755.073442,419.474417 L795.408513,419.423923 C798.828894,419.419641 801.605132,422.188937 801.609413,425.609318 C801.60942,425.614487 801.60942,425.619657 801.609413,425.624827 L801.604691,429.395279 C801.600415,432.809604 798.833623,435.576395 795.419297,435.58067 L755.084226,435.631163 C751.663845,435.635445 748.887607,432.866149 748.883326,429.445769 C748.883319,429.440599 748.883319,429.435429 748.883326,429.43026 L748.888048,425.659807 C748.892324,422.245482 751.659116,419.478691 755.073442,419.474417 Z" id="Rectangle" fill="url(#linearGradient-13)" transform="translate(775.246369, 427.527543) rotate(-139.840000) translate(-775.246369, -427.527543) "></path>
                <path d="M755.075022,340.287435 L795.398835,340.338654 C798.813073,340.34299 801.579778,343.109696 801.584115,346.523934 L801.588909,350.297837 C801.593253,353.718218 798.824009,356.494506 795.403628,356.49885 C795.398384,356.498857 795.39314,356.498857 795.387895,356.49885 L755.064082,356.447631 C751.649844,356.443294 748.883139,353.676589 748.878802,350.262351 L748.874008,346.488448 C748.869664,343.068067 751.638908,340.291779 755.059289,340.287435 C755.064533,340.287428 755.069777,340.287428 755.075022,340.287435 Z" id="Rectangle" fill="url(#linearGradient-14)" transform="translate(775.231459, 348.393142) rotate(135.000000) translate(-775.231459, -348.393142) "></path>
                <path d="M762.968852,377.126801 L820.877334,377.14584 C824.296124,377.151042 827.067322,379.922238 827.072527,383.341028 L827.073765,387.095135 C827.078968,390.515517 824.307113,393.2892 820.88673,393.290327 C820.885371,393.290327 820.884012,393.290327 820.882654,393.286251 L762.974172,393.267212 C759.555382,393.262009 756.784185,390.490814 756.778979,387.072024 L756.777742,383.317916 C756.772539,379.897534 759.544393,377.123852 762.964777,377.122725 C762.966136,377.122724 762.967495,377.122724 762.968852,377.126801 Z" id="Rectangle" fill="url(#linearGradient-15)" transform="translate(791.925753, 385.206526) rotate(172.490000) translate(-791.925753, -385.206526) "></path>
            </g>
            <g id="text" transform="translate(97.356179, 716.230015)">
                <g id="pupper-text" transform="translate(12.096000, 14.784000)">
                    <path d="M29.4885004,2.15300655 L59.1307869,2.15300655 L57.5544785,9.84231564 C64.8817009,3.465992 74.3788506,0.148871603 84.0825949,0.576698182 C106.689164,0.576698182 121.606423,20.0306502 121.606423,44.0212945 C121.606423,78.2002735 99.6149993,102.575383 71.1261091,102.575383 C54.6325411,102.575383 43.8290618,93.3097658 40.8686778,87.8119098 L29.6807331,141.637073 L0,141.637073 L29.4885004,2.15300655 Z M91.9641367,46.943232 C91.9641367,34.3712116 85.4666705,26.1436509 72.740864,26.1436509 C58.2080698,26.1436509 47.5968233,38.7156713 47.5968233,54.8247738 C47.5968233,67.3967942 54.0558429,75.6628015 66.820096,75.6628015 C81.3528902,75.6628015 91.9641367,63.0523345 91.9641367,46.943232 Z" id="Shape" fill="url(#linearGradient-16)" fill-rule="nonzero"></path>
                    <path d="M125.105059,56.5933149 L136.639023,2.15300655 L166.319756,2.15300655 L154.785792,56.2088495 C152.209873,68.1657251 157.323264,75.4321222 167.16558,75.4321222 C178.699543,75.4321222 186.004387,67.7428131 189.349236,51.4799244 L199.922036,2.15300655 L229.602769,2.15300655 L208.803188,100.38393 L179.122455,100.38393 L181.083229,90.7722938 C174.86934,98.428376 165.407146,102.703464 155.554723,102.306257 C131.794758,102.383151 120.568367,78.2002735 125.105059,56.5933149 Z" id="Path" fill="url(#linearGradient-17)" fill-rule="nonzero"></path>
                    <path d="M236.292468,2.15300655 L265.973201,2.15300655 L264.396893,9.84231564 C271.720076,3.4590379 281.220097,0.14091454 290.925009,0.576698182 C313.531578,0.576698182 328.448838,20.0306502 328.448838,44.0212945 C328.448838,78.2002735 306.457414,102.575383 277.968524,102.575383 C261.436509,102.575383 250.63303,93.3097658 247.711092,87.8119098 L236.484701,141.637073 L206.842415,141.637073 L236.292468,2.15300655 Z M298.768105,46.943232 C298.768105,34.3712116 292.309085,26.1436509 279.737065,26.1436509 C265.165824,26.1436509 254.554577,38.7156713 254.554577,54.8247738 C254.554577,67.3967942 261.052044,75.6628015 273.77785,75.6628015 C288.349091,75.6628015 298.768105,63.0523345 298.768105,46.943232 Z" id="Shape" fill="url(#linearGradient-18)" fill-rule="nonzero"></path>
                    <path d="M342.366487,2.15300655 L372.04722,2.15300655 L370.470912,9.84231564 C377.794095,3.4590379 387.294116,0.14091454 396.999028,0.576698182 C419.567151,0.576698182 434.522857,20.0306502 434.522857,44.0212945 C434.522857,78.2002735 412.492986,102.575383 384.004096,102.575383 C367.510528,102.575383 356.707049,93.3097658 353.746665,87.8119098 L342.55872,141.637073 L312.877987,141.637073 L342.366487,2.15300655 Z M404.842124,46.943232 C404.842124,34.3712116 398.344657,26.1436509 385.618851,26.1436509 C371.086057,26.1436509 360.47481,38.7156713 360.47481,54.8247738 C360.47481,67.3967942 366.972276,75.6628015 379.698083,75.6628015 C394.230877,75.6628015 404.842124,63.0523345 404.842124,46.943232 Z" id="Shape" fill="url(#linearGradient-19)" fill-rule="nonzero"></path>
                    <path d="M440.712751,55.7859375 C440.712751,23.0679273 461.358545,0 496.690921,0 C526.563887,0 547.978612,23.5677324 541.481146,58.361856 L468.43271,58.361856 C469.816785,69.8958196 479.966673,75.6628015 490.46258,75.6628015 C499.164842,75.8693244 507.37599,71.6406556 512.261772,64.4364102 L534.060963,81.3528902 C524.833792,94.1171433 510.993036,102.575383 488.501807,102.575383 C456.62962,102.575383 440.712751,79.9688145 440.712751,55.7859375 Z M469.778339,38.907904 L513.799633,38.907904 C512.607791,29.0655884 504.149551,24.1828771 494.576361,24.1828771 C485.003171,24.1828771 473.699887,29.0655884 469.778339,38.907904 L469.778339,38.907904 Z" id="Shape" fill="url(#linearGradient-20)" fill-rule="nonzero"></path>
                    <path d="M558.551412,2.15300655 L588.232145,2.15300655 L585.310208,15.7246371 C590.833565,6.18201811 601.208022,0.505707931 612.22279,0.999610182 C615.338191,0.934217191 618.446515,1.32275777 621.449961,2.15300655 L615.144727,32.2182051 C611.272399,30.7004949 607.154622,29.9056077 602.995619,29.8729658 C589.616221,29.8729658 580.581283,39.6768349 577.428666,53.8251636 L567.624797,100.38393 L537.944064,100.38393 L558.551412,2.15300655 Z" id="Path" fill="url(#linearGradient-21)" fill-rule="nonzero"></path>
                    <path d="M39.2154764,9.11183127 L68.8962095,9.11183127 L67.3199011,16.8011404 C74.6802303,10.4975471 84.1677925,7.23877569 93.8480175,7.68930909 C116.454586,7.68930909 131.371846,26.9125818 131.371846,50.9416727 C131.371846,85.1206516 109.380422,109.495761 80.8915316,109.495761 C64.3595171,109.495761 53.5560378,100.268591 50.6341004,94.7707345 L39.4077091,148.595898 L9.76542255,148.595898 L39.2154764,9.11183127 Z M101.691113,53.8251636 C101.691113,41.2531433 95.2320931,32.987136 82.6600727,32.987136 C68.1272785,33.0640291 57.6698182,45.6360495 57.6698182,61.745152 C57.6698182,74.3171724 64.1288378,82.5831796 76.7008582,82.5831796 C91.0798662,82.5831796 101.691113,70.0111593 101.691113,53.8251636 Z" id="Shape" fill="url(#linearGradient-22)" fill-rule="nonzero"></path>
                    <path d="M134.870481,63.5136931 L146.404445,9.11183127 L176.085178,9.11183127 L164.551215,63.1292276 C162.013743,75.1245498 167.127133,82.3525004 176.931002,82.3525004 C188.464966,82.3525004 195.808256,74.4709585 199.153105,58.361856 L209.725905,9.11183127 L239.368192,9.11183127 L218.568611,107.342755 L188.887878,107.342755 L190.848652,97.692672 C184.630955,105.343813 175.171377,109.617719 165.320145,109.226636 C141.521734,109.303529 130.333789,85.1206516 134.870481,63.5136931 Z" id="Path" fill="url(#linearGradient-23)" fill-rule="nonzero"></path>
                    <path d="M246.057891,9.11183127 L275.738624,9.11183127 L274.162316,16.8011404 C281.518712,10.4906747 291.009087,7.23093746 300.690432,7.68930909 C323.258554,7.68930909 338.3296,26.9125818 338.3296,50.9416727 C338.3296,85.1206516 316.299729,109.495761 287.810839,109.495761 C271.317271,109.495761 260.513792,100.268591 257.553408,94.7707345 L246.365463,148.595898 L216.569391,148.595898 L246.057891,9.11183127 Z M308.533527,53.8251636 C308.533527,41.2531433 302.036061,32.987136 289.310255,32.987136 C274.77746,32.987136 264.166214,45.5591564 264.166214,61.6682589 C264.166214,74.2402793 270.66368,82.5066374 283.389487,82.5066374 C297.922281,82.5831796 308.533527,70.0111593 308.533527,53.8251636 Z" id="Shape" fill="url(#linearGradient-24)" fill-rule="nonzero"></path>
                    <path d="M352.13191,9.11183127 L381.774196,9.11183127 L380.236335,16.8011404 C387.580939,10.4965457 397.057163,7.23694457 406.726004,7.68930909 C429.332573,7.68930909 444.288279,27.1432611 444.288279,51.0954589 C444.288279,85.2744378 422.258409,109.649548 393.769519,109.649548 C377.275951,109.649548 366.472471,100.422377 363.512087,94.9245207 L352.324143,148.749684 L322.643409,148.749684 L352.13191,9.11183127 Z M414.607546,53.8251636 C414.607546,41.2531433 408.11008,32.987136 395.384273,32.987136 C380.851479,32.987136 370.240233,45.5591564 370.240233,61.6682589 C370.240233,74.2402793 376.737699,82.5066374 389.463505,82.5066374 C403.9963,82.5831796 414.607546,70.0111593 414.607546,53.8251636 Z" id="Shape" fill="url(#linearGradient-25)" fill-rule="nonzero"></path>
                    <path d="M450.478173,62.7447622 C450.478173,30.1036451 471.277754,6.92037818 506.456343,6.92037818 C536.329309,6.92037818 557.744035,30.5265571 551.246569,65.2822342 L478.198132,65.2822342 C479.582208,76.8161978 489.732096,82.5831796 500.189556,82.5831796 C508.894741,82.7971477 517.115383,78.5855161 522.027194,71.3952349 L543.787939,88.4270545 C534.560768,101.191308 520.720012,109.649548 498.190336,109.649548 C466.356596,109.495761 450.478173,86.8891927 450.478173,62.7447622 Z M479.543761,45.8282822 L523.565056,45.8282822 C522.373213,36.0244131 513.914973,31.1032553 504.341783,31.1032553 C494.768593,31.1032553 483.465309,36.0244131 479.543761,45.8282822 Z" id="Shape" fill="url(#linearGradient-26)" fill-rule="nonzero"></path>
                    <path d="M568.278388,9.11183127 L597.959121,9.11183127 L594.998737,22.6450153 C600.540921,13.1217043 610.90266,7.4523528 621.911319,7.91998836 C625.042341,7.84675926 628.166372,8.2486056 631.176937,9.11183127 L624.871703,39.1385833 C620.981876,37.6351539 616.854136,36.8408571 612.684148,36.793344 C599.343197,36.793344 590.308259,46.6356596 587.155642,60.7839884 L577.313327,107.342755 L547.478807,107.342755 L568.278388,9.11183127 Z" id="Path" fill="url(#linearGradient-27)" fill-rule="nonzero"></path>
                </g>
            </g>
        </g>
    </g>
</svg>