<?xml version="1.0" encoding="UTF-8"?>
<svg width="632px" height="149px" viewBox="0 0 632 149" version="1.1" xmlns="http://www.w3.org/2000/svg" xmlns:xlink="http://www.w3.org/1999/xlink">
    <!-- Generator: Sketch 55.1 (78136) - https://sketchapp.com -->
    <title>text</title>
    <desc>Created with Sketch.</desc>
    <defs>
        <linearGradient x1="50.0158078%" y1="99.8910069%" x2="50.0158078%" y2="0.0260709182%" id="linearGradient-1">
            <stop stop-color="#62C5E3" offset="0%"></stop>
            <stop stop-color="#62C5E3" offset="37%"></stop>
            <stop stop-color="#F4A6BB" offset="72%"></stop>
        </linearGradient>
        <linearGradient x1="50.0314672%" y1="100.051375%" x2="50.0314672%" y2="0%" id="linearGradient-2">
            <stop stop-color="#62C5E3" offset="0%"></stop>
            <stop stop-color="#62C5E3" offset="37%"></stop>
            <stop stop-color="#F4A6BB" offset="72%"></stop>
        </linearGradient>
        <linearGradient x1="49.9841922%" y1="99.8910079%" x2="49.9841922%" y2="0.0269866343%" id="linearGradient-3">
            <stop stop-color="#62C5E3" offset="0%"></stop>
            <stop stop-color="#62C5E3" offset="37%"></stop>
            <stop stop-color="#F4A6BB" offset="72%"></stop>
        </linearGradient>
        <linearGradient x1="50%" y1="99.8910079%" x2="50%" y2="0.0269866343%" id="linearGradient-4">
            <stop stop-color="#62C5E3" offset="0%"></stop>
            <stop stop-color="#62C5E3" offset="37%"></stop>
            <stop stop-color="#F4A6BB" offset="72%"></stop>
        </linearGradient>
        <linearGradient x1="50.0121468%" y1="100%" x2="50.0121468%" y2="0%" id="linearGradient-5">
            <stop stop-color="#62C5E3" offset="0%"></stop>
            <stop stop-color="#62C5E3" offset="37%"></stop>
            <stop stop-color="#F4A6BB" offset="72%"></stop>
        </linearGradient>
        <linearGradient x1="49.7237569%" y1="100%" x2="49.7237569%" y2="0.0299762714%" id="linearGradient-6">
            <stop stop-color="#62C5E3" offset="0%"></stop>
            <stop stop-color="#62C5E3" offset="37%"></stop>
            <stop stop-color="#F4A6BB" offset="72%"></stop>
        </linearGradient>
        <linearGradient x1="11.2275917%" y1="60.4208472%" x2="191.381028%" y2="-31.0940099%" id="linearGradient-7">
            <stop stop-color="#26241D" offset="0%"></stop>
            <stop stop-color="#4B4737" offset="100%"></stop>
        </linearGradient>
        <linearGradient x1="-105.337049%" y1="112.126615%" x2="173.657468%" y2="-3.94914088%" id="linearGradient-8">
            <stop stop-color="#26241D" offset="0%"></stop>
            <stop stop-color="#4B4737" offset="100%"></stop>
        </linearGradient>
        <linearGradient x1="-95.185878%" y1="114.374924%" x2="85.1919352%" y2="22.8609414%" id="linearGradient-9">
            <stop stop-color="#26241D" offset="0%"></stop>
            <stop stop-color="#4B4737" offset="100%"></stop>
        </linearGradient>
        <linearGradient x1="-149.055426%" y1="141.879203%" x2="30.7615773%" y2="50.4642866%" id="linearGradient-10">
            <stop stop-color="#26241D" offset="0%"></stop>
            <stop stop-color="#4B4737" offset="100%"></stop>
        </linearGradient>
        <linearGradient x1="-362.568997%" y1="232.597305%" x2="-78.2929191%" y2="107.035928%" id="linearGradient-11">
            <stop stop-color="#26241D" offset="0%"></stop>
            <stop stop-color="#4B4737" offset="100%"></stop>
        </linearGradient>
        <linearGradient x1="-376.240484%" y1="265.268588%" x2="-127.175875%" y2="135.566573%" id="linearGradient-12">
            <stop stop-color="#26241D" offset="0%"></stop>
            <stop stop-color="#4B4737" offset="100%"></stop>
        </linearGradient>
    </defs>
    <g id="Page-1" stroke="none" stroke-width="1" fill="none" fill-rule="evenodd">
        <g id="Story" transform="translate(-239.000000, -1228.000000)">
            <g id="Group-2" transform="translate(130.000000, 497.000000)">
                <g id="text" transform="translate(97.356179, 716.230015)">
                    <g id="pupper-text" transform="translate(12.096000, 14.784000)">
                        <path d="M29.4885004,2.15300655 L59.1307869,2.15300655 L57.5544785,9.84231564 C64.8817009,3.465992 74.3788506,0.148871603 84.0825949,0.576698182 C106.689164,0.576698182 121.606423,20.0306502 121.606423,44.0212945 C121.606423,78.2002735 99.6149993,102.575383 71.1261091,102.575383 C54.6325411,102.575383 43.8290618,93.3097658 40.8686778,87.8119098 L29.6807331,141.637073 L0,141.637073 L29.4885004,2.15300655 Z M91.9641367,46.943232 C91.9641367,34.3712116 85.4666705,26.1436509 72.740864,26.1436509 C58.2080698,26.1436509 47.5968233,38.7156713 47.5968233,54.8247738 C47.5968233,67.3967942 54.0558429,75.6628015 66.820096,75.6628015 C81.3528902,75.6628015 91.9641367,63.0523345 91.9641367,46.943232 Z" id="Shape" fill="url(#linearGradient-1)" fill-rule="nonzero"></path>
                        <path d="M125.105059,56.5933149 L136.639023,2.15300655 L166.319756,2.15300655 L154.785792,56.2088495 C152.209873,68.1657251 157.323264,75.4321222 167.16558,75.4321222 C178.699543,75.4321222 186.004387,67.7428131 189.349236,51.4799244 L199.922036,2.15300655 L229.602769,2.15300655 L208.803188,100.38393 L179.122455,100.38393 L181.083229,90.7722938 C174.86934,98.428376 165.407146,102.703464 155.554723,102.306257 C131.794758,102.383151 120.568367,78.2002735 125.105059,56.5933149 Z" id="Path" fill="url(#linearGradient-2)" fill-rule="nonzero"></path>
                        <path d="M236.292468,2.15300655 L265.973201,2.15300655 L264.396893,9.84231564 C271.720076,3.4590379 281.220097,0.14091454 290.925009,0.576698182 C313.531578,0.576698182 328.448838,20.0306502 328.448838,44.0212945 C328.448838,78.2002735 306.457414,102.575383 277.968524,102.575383 C261.436509,102.575383 250.63303,93.3097658 247.711092,87.8119098 L236.484701,141.637073 L206.842415,141.637073 L236.292468,2.15300655 Z M298.768105,46.943232 C298.768105,34.3712116 292.309085,26.1436509 279.737065,26.1436509 C265.165824,26.1436509 254.554577,38.7156713 254.554577,54.8247738 C254.554577,67.3967942 261.052044,75.6628015 273.77785,75.6628015 C288.349091,75.6628015 298.768105,63.0523345 298.768105,46.943232 Z" id="Shape" fill="url(#linearGradient-3)" fill-rule="nonzero"></path>
                        <path d="M342.366487,2.15300655 L372.04722,2.15300655 L370.470912,9.84231564 C377.794095,3.4590379 387.294116,0.14091454 396.999028,0.576698182 C419.567151,0.576698182 434.522857,20.0306502 434.522857,44.0212945 C434.522857,78.2002735 412.492986,102.575383 384.004096,102.575383 C367.510528,102.575383 356.707049,93.3097658 353.746665,87.8119098 L342.55872,141.637073 L312.877987,141.637073 L342.366487,2.15300655 Z M404.842124,46.943232 C404.842124,34.3712116 398.344657,26.1436509 385.618851,26.1436509 C371.086057,26.1436509 360.47481,38.7156713 360.47481,54.8247738 C360.47481,67.3967942 366.972276,75.6628015 379.698083,75.6628015 C394.230877,75.6628015 404.842124,63.0523345 404.842124,46.943232 Z" id="Shape" fill="url(#linearGradient-4)" fill-rule="nonzero"></path>
                        <path d="M440.712751,55.7859375 C440.712751,23.0679273 461.358545,0 496.690921,0 C526.563887,0 547.978612,23.5677324 541.481146,58.361856 L468.43271,58.361856 C469.816785,69.8958196 479.966673,75.6628015 490.46258,75.6628015 C499.164842,75.8693244 507.37599,71.6406556 512.261772,64.4364102 L534.060963,81.3528902 C524.833792,94.1171433 510.993036,102.575383 488.501807,102.575383 C456.62962,102.575383 440.712751,79.9688145 440.712751,55.7859375 Z M469.778339,38.907904 L513.799633,38.907904 C512.607791,29.0655884 504.149551,24.1828771 494.576361,24.1828771 C485.003171,24.1828771 473.699887,29.0655884 469.778339,38.907904 L469.778339,38.907904 Z" id="Shape" fill="url(#linearGradient-5)" fill-rule="nonzero"></path>
                        <path d="M558.551412,2.15300655 L588.232145,2.15300655 L585.310208,15.7246371 C590.833565,6.18201811 601.208022,0.505707931 612.22279,0.999610182 C615.338191,0.934217191 618.446515,1.32275777 621.449961,2.15300655 L615.144727,32.2182051 C611.272399,30.7004949 607.154622,29.9056077 602.995619,29.8729658 C589.616221,29.8729658 580.581283,39.6768349 577.428666,53.8251636 L567.624797,100.38393 L537.944064,100.38393 L558.551412,2.15300655 Z" id="Path" fill="url(#linearGradient-6)" fill-rule="nonzero"></path>
                        <path d="M39.2154764,9.11183127 L68.8962095,9.11183127 L67.3199011,16.8011404 C74.6802303,10.4975471 84.1677925,7.23877569 93.8480175,7.68930909 C116.454586,7.68930909 131.371846,26.9125818 131.371846,50.9416727 C131.371846,85.1206516 109.380422,109.495761 80.8915316,109.495761 C64.3595171,109.495761 53.5560378,100.268591 50.6341004,94.7707345 L39.4077091,148.595898 L9.76542255,148.595898 L39.2154764,9.11183127 Z M101.691113,53.8251636 C101.691113,41.2531433 95.2320931,32.987136 82.6600727,32.987136 C68.1272785,33.0640291 57.6698182,45.6360495 57.6698182,61.745152 C57.6698182,74.3171724 64.1288378,82.5831796 76.7008582,82.5831796 C91.0798662,82.5831796 101.691113,70.0111593 101.691113,53.8251636 Z" id="Shape" fill="url(#linearGradient-7)" fill-rule="nonzero"></path>
                        <path d="M134.870481,63.5136931 L146.404445,9.11183127 L176.085178,9.11183127 L164.551215,63.1292276 C162.013743,75.1245498 167.127133,82.3525004 176.931002,82.3525004 C188.464966,82.3525004 195.808256,74.4709585 199.153105,58.361856 L209.725905,9.11183127 L239.368192,9.11183127 L218.568611,107.342755 L188.887878,107.342755 L190.848652,97.692672 C184.630955,105.343813 175.171377,109.617719 165.320145,109.226636 C141.521734,109.303529 130.333789,85.1206516 134.870481,63.5136931 Z" id="Path" fill="url(#linearGradient-8)" fill-rule="nonzero"></path>
                        <path d="M246.057891,9.11183127 L275.738624,9.11183127 L274.162316,16.8011404 C281.518712,10.4906747 291.009087,7.23093746 300.690432,7.68930909 C323.258554,7.68930909 338.3296,26.9125818 338.3296,50.9416727 C338.3296,85.1206516 316.299729,109.495761 287.810839,109.495761 C271.317271,109.495761 260.513792,100.268591 257.553408,94.7707345 L246.365463,148.595898 L216.569391,148.595898 L246.057891,9.11183127 Z M308.533527,53.8251636 C308.533527,41.2531433 302.036061,32.987136 289.310255,32.987136 C274.77746,32.987136 264.166214,45.5591564 264.166214,61.6682589 C264.166214,74.2402793 270.66368,82.5066374 283.389487,82.5066374 C297.922281,82.5831796 308.533527,70.0111593 308.533527,53.8251636 Z" id="Shape" fill="url(#linearGradient-9)" fill-rule="nonzero"></path>
                        <path d="M352.13191,9.11183127 L381.774196,9.11183127 L380.236335,16.8011404 C387.580939,10.4965457 397.057163,7.23694457 406.726004,7.68930909 C429.332573,7.68930909 444.288279,27.1432611 444.288279,51.0954589 C444.288279,85.2744378 422.258409,109.649548 393.769519,109.649548 C377.275951,109.649548 366.472471,100.422377 363.512087,94.9245207 L352.324143,148.749684 L322.643409,148.749684 L352.13191,9.11183127 Z M414.607546,53.8251636 C414.607546,41.2531433 408.11008,32.987136 395.384273,32.987136 C380.851479,32.987136 370.240233,45.5591564 370.240233,61.6682589 C370.240233,74.2402793 376.737699,82.5066374 389.463505,82.5066374 C403.9963,82.5831796 414.607546,70.0111593 414.607546,53.8251636 Z" id="Shape" fill="url(#linearGradient-10)" fill-rule="nonzero"></path>
                        <path d="M450.478173,62.7447622 C450.478173,30.1036451 471.277754,6.92037818 506.456343,6.92037818 C536.329309,6.92037818 557.744035,30.5265571 551.246569,65.2822342 L478.198132,65.2822342 C479.582208,76.8161978 489.732096,82.5831796 500.189556,82.5831796 C508.894741,82.7971477 517.115383,78.5855161 522.027194,71.3952349 L543.787939,88.4270545 C534.560768,101.191308 520.720012,109.649548 498.190336,109.649548 C466.356596,109.495761 450.478173,86.8891927 450.478173,62.7447622 Z M479.543761,45.8282822 L523.565056,45.8282822 C522.373213,36.0244131 513.914973,31.1032553 504.341783,31.1032553 C494.768593,31.1032553 483.465309,36.0244131 479.543761,45.8282822 Z" id="Shape" fill="url(#linearGradient-11)" fill-rule="nonzero"></path>
                        <path d="M568.278388,9.11183127 L597.959121,9.11183127 L594.998737,22.6450153 C600.540921,13.1217043 610.90266,7.4523528 621.911319,7.91998836 C625.042341,7.84675926 628.166372,8.2486056 631.176937,9.11183127 L624.871703,39.1385833 C620.981876,37.6351539 616.854136,36.8408571 612.684148,36.793344 C599.343197,36.793344 590.308259,46.6356596 587.155642,60.7839884 L577.313327,107.342755 L547.478807,107.342755 L568.278388,9.11183127 Z" id="Path" fill="url(#linearGradient-12)" fill-rule="nonzero"></path>
                    </g>
                </g>
            </g>
        </g>
    </g>
</svg>