<?xml version="1.0" encoding="UTF-8"?>
<svg width="1415px" height="382px" viewBox="0 0 1415 382" version="1.1" xmlns="http://www.w3.org/2000/svg" xmlns:xlink="http://www.w3.org/1999/xlink">
    <!-- Generator: Sketch 55.1 (78136) - https://sketchapp.com -->
    <title>text</title>
    <desc>Created with Sketch.</desc>
    <g id="Symbols" stroke="none" stroke-width="1" fill="none" fill-rule="evenodd">
        <g id="long-white-text" transform="translate(-659.000000, -111.000000)">
            <g id="Group-2">
                <g id="text-light" transform="translate(659.000000, 111.000000)">
                    <g id="Group-4">
                        <g id="Group-3" transform="translate(57.755102, 57.744361)" fill="#00E5FF" fill-rule="nonzero">
                            <path d="M170.128034,159.867857 L181.853075,85.9727698 L124.377387,85.9727698 L114.284657,150.429544 C114.077744,151.511497 113.801861,153.076876 113.479997,155.033599 C107.671121,192.786852 96.4595301,211.663479 79.8452248,211.663479 C72.7488933,211.663479 67.3385152,209.614674 63.6140907,205.517065 C59.8896661,201.419456 58.0274539,195.487898 58.0274539,187.722392 C58.0274539,185.880769 58.4182886,181.967322 59.1539774,175.982051 C59.8896661,169.996779 60.9472188,162.515189 62.2346742,153.560301 L72.9021617,85.9727698 L15.6793675,85.9727698 L5.65560763,148.541881 C3.41788754,162.077804 1.90819282,172.137664 1.12652347,178.721463 C0.447342954,184.121212 0.0712441669,189.554861 4.26325641e-14,194.996799 C4.26325641e-14,213.673916 6.89708247,228.452934 20.6912474,239.333851 C34.4854124,250.214769 53.4217355,255.670574 77.5002167,255.701268 C90.2046604,255.888067 102.85447,253.998617 114.951375,250.107341 C125.41378,246.724789 134.994285,241.055479 142.99951,233.509721 C155.077068,221.76938 163.966641,198.357759 169.668229,163.274858 L170.128034,159.867857 Z" id="Path"></path>
                            <path d="M1303.08024,89.4239027 L1299.3678,112.353108 C1292.80503,103.521654 1284.35503,96.2467199 1274.62592,91.0518763 C1265.2761,86.377307 1254.92919,84.0174782 1244.46527,84.1731145 C1221.00243,83.7271051 1198.57245,93.7559597 1183.33691,111.504728 C1173.93514,121.995591 1167.04503,134.467726 1163.18369,147.985094 C1161.14553,131.08663 1153.26308,115.418303 1140.88602,103.662939 C1125.20617,88.9423893 1104.28434,81.5821143 1078.12051,81.5821143 C1049.80454,81.5821143 1026.56916,90.4480739 1008.41435,108.179993 C1001.11778,115.263295 995.096775,123.538371 990.613108,132.645456 L1011.55032,-1.42108547e-14 L954.803097,-1.42108547e-14 L941.175463,85.7781589 C940.645115,89.4239027 940.207001,93.0008588 939.884181,96.486098 C939.56136,99.9713373 939.39995,103.36486 939.39995,106.574949 L939.39995,111.16079 C932.612066,102.304191 924.024743,94.9681926 914.196897,89.6302655 C904.908178,84.9690702 894.624196,82.6091613 884.220713,82.7515038 C863.594968,82.3582322 843.667959,90.1852303 828.880065,104.488391 L833.491786,84.3565482 C830.240523,83.8291764 827.865487,83.4852384 826.343619,83.3247339 C824.996243,83.169817 823.641593,83.0856265 822.285305,83.0725127 C811.771388,82.8403598 801.415219,85.6438516 792.470531,91.1435931 C783.514463,96.9297263 776.397107,105.128396 771.948374,114.783604 L776.006688,87.1309821 L720.550748,87.1309821 L709.275091,157.91344 C707.73785,136.329415 700.136198,118.696855 686.470132,105.015763 C671.09773,89.6531947 650.752356,81.9719108 625.43401,81.9719108 C597.5331,81.9719108 574.805003,90.6773659 557.24972,108.088276 C549.92627,115.273491 543.959387,123.707616 539.632947,132.989394 L560.685452,-1.42108547e-14 L503.938229,-1.42108547e-14 L490.333654,85.7781589 C489.780247,89.4239027 489.342134,93.0008588 489.019313,96.486098 C488.696493,99.9713373 488.535083,103.36486 488.535083,106.574949 L488.535083,111.16079 C481.752765,102.298972 473.164226,94.9619333 463.332029,89.6302655 C454.045504,84.9630447 443.760012,82.6027895 433.355845,82.7515038 C409.783444,82.3115759 387.276998,92.5027619 372.135254,110.472914 C366.095287,117.360923 361.093183,125.084578 357.285513,133.402119 C357.285513,117.198814 352.612303,104.572465 343.265883,95.5230714 C333.919462,86.4736782 320.783745,81.9336954 303.85873,81.9031232 C293.725653,81.8133765 283.738584,84.3079741 274.851007,89.1487522 C264.547778,95.2198044 255.476103,103.151858 248.103027,112.536542 L252.138283,87.1309821 L196.797635,87.1309821 L170.764472,249.928343 L227.765339,249.928343 L239.432993,174.009743 C241.923322,158.203877 246.004695,146.701059 251.677111,139.501288 C257.316179,132.31376 266.107901,128.288673 275.266062,128.701632 C282.61407,128.701632 288.17888,130.528326 291.960491,134.181712 C295.742102,137.827456 297.632907,143.215819 297.632907,150.232156 C297.608848,152.278225 297.478006,154.321674 297.240911,156.354254 C296.964208,158.647175 296.618328,161.146458 296.180215,163.622813 L282.621756,249.928343 L340.49885,249.928343 L348.984416,196.824303 C350.838683,210.996508 356.699744,224.35439 365.886372,235.345368 C377.215205,249.144727 394.325609,256.957801 412.234165,256.509025 C423.037238,256.581652 433.712191,254.180909 443.432455,249.492688 C453.617725,244.447761 462.687855,237.431938 470.111259,228.856403 L466.652468,249.928343 L521.139947,249.928343 L531.285733,185.726567 C532.992069,206.515714 540.240157,223.055314 553.029996,235.345368 C567.787502,249.485045 588.540244,256.554884 615.288224,256.554884 C629.140455,256.739931 642.917157,254.496801 655.986659,249.928343 C668.01651,245.630598 679.011696,238.883076 688.268703,230.11751 L657.047354,198.796214 C650.995573,204.511372 644.136141,209.316156 636.686608,213.05818 C630.376864,216.009996 623.483365,217.521972 616.51033,217.483517 C606.349172,217.483517 598.616854,214.8008 593.313375,209.435366 C588.009897,204.069932 585.365843,196.2205 585.381216,185.887072 L585.381216,182.17254 L705.285952,182.17254 L694.609819,249.928343 L751.679862,249.928343 L763.347515,175.614787 C765.730237,161.092957 770.134431,150.392661 776.560095,143.513899 C782.985759,136.635137 791.771087,133.126969 802.916078,132.989394 C804.645473,132.989394 806.444044,133.10404 808.265674,133.264544 C801.663868,148.148193 798.391002,164.279873 798.673295,180.544567 C798.673295,202.908185 804.699277,221.15219 816.75124,235.276581 C828.053644,249.076541 845.136824,256.905772 863.029856,256.486096 C873.807434,256.552045 884.456703,254.1596 894.158971,249.492688 C904.338624,244.449382 913.401501,237.433105 920.814716,228.856403 L917.517336,249.928343 L971.981756,249.928343 L981.781663,188.019488 C983.349579,205.716836 991.32151,222.24744 1004.21768,234.542846 C1019.59009,249.17168 1040.09687,256.486096 1065.73804,256.486096 C1094.69964,256.486096 1118.37314,247.673638 1136.75853,230.048722 C1147.44213,219.956521 1155.37588,207.333763 1159.81714,193.361993 C1161.29203,208.352014 1167.35188,222.532366 1177.18027,233.992545 C1189.29372,247.750069 1204.96588,254.628831 1224.19676,254.628831 C1234.77005,254.757315 1245.23148,252.46652 1254.77247,247.933502 C1264.43837,243.130633 1272.93038,236.282808 1279.6527,227.870447 L1277.55437,241.880192 C1275.5867,256.188017 1271.15176,266.888313 1264.24955,273.98108 C1257.34734,281.073848 1247.83183,284.597303 1235.703,284.551444 C1227.81696,284.551444 1221.61419,282.762966 1217.07165,279.231868 C1212.42561,275.491644 1209.54552,270.004515 1209.11643,264.075663 L1148.74901,264.075663 C1151.56216,283.748922 1160.17839,298.660549 1174.5977,308.810544 C1189.01702,318.960539 1208.82436,324.035537 1234.01972,324.035537 C1250.05937,324.288786 1265.99821,321.47077 1280.96704,315.735164 C1294.16127,310.69035 1305.88818,302.464551 1315.09377,291.797073 C1323.94827,281.096777 1330.91966,258.633798 1336.00792,224.408137 C1336.65357,219.822296 1337.18391,216.359986 1337.62203,213.768986 L1357.2449,89.4239027 L1303.08024,89.4239027 Z M470.872193,194.668957 C463.860966,203.220544 453.30502,208.118445 442.210349,207.967897 C431.741743,207.967897 423.286922,204.796023 416.845885,198.452276 C410.404849,192.108529 407.222762,183.701154 407.299624,173.23015 C407.299624,159.885352 411.104293,148.894619 418.713632,140.257952 C425.935116,131.771056 436.63718,126.998175 447.813589,127.280021 C457.057699,126.925259 466.048759,130.327656 472.716881,136.703925 C479.232207,143.20483 482.725484,152.11339 482.355377,161.284034 C482.370749,174.689976 478.543021,185.818284 470.872193,194.668957 Z M589.27812,149.039838 C591.983401,140.833332 596.953072,133.547777 603.620571,128.013756 C609.66333,123.048976 617.272885,120.361607 625.111189,120.424189 C632.997028,120.072414 640.698457,122.861719 646.509573,128.17426 C652.07004,133.728749 655.258699,141.203869 655.410194,149.039838 L589.27812,149.039838 Z M921.829295,194.668957 C914.807973,203.23326 904.232094,208.132527 893.121334,207.967897 C882.621983,207.967897 874.167162,204.796023 867.75687,198.452276 C861.346578,192.108529 858.156805,183.701154 858.18733,173.23015 C858.18733,159.885352 862.03065,148.894619 869.716851,140.257952 C876.945944,131.817903 887.625508,127.081209 898.770691,127.371738 C908.00779,127.017937 916.991345,130.420645 923.650924,136.795642 C930.191579,143.28483 933.710514,152.194874 933.358596,161.37575 C933.358596,174.720548 929.515496,185.818284 921.829295,194.668957 Z M1097.69726,195.952993 C1090.52525,204.865761 1079.58982,209.951057 1068.11307,209.710516 C1059.57074,210.09486 1051.26281,206.871949 1045.23894,200.836914 C1039.52041,194.921179 1036.65345,186.964744 1036.63808,176.96761 C1036.28719,164.4722 1040.4604,152.266952 1048.39797,142.573802 C1056.25326,133.126969 1065.7611,128.403553 1076.92146,128.403553 C1086.88278,128.403553 1094.74576,131.330848 1100.51041,137.185438 C1106.27506,143.040029 1109.16507,151.019393 1109.18045,161.123529 C1109.18045,175.278492 1105.32197,186.888313 1097.60503,195.952993 L1097.69726,195.952993 Z M1280.41363,198.245913 C1273.14028,206.90834 1262.31461,211.831375 1250.9678,211.63657 C1241.82419,211.995231 1232.95711,208.478301 1226.57179,201.960445 C1220.26578,195.095714 1216.94962,186.027454 1217.34835,176.738318 C1217.34835,163.500524 1221.19145,152.53272 1228.87765,143.834908 C1235.95417,135.38658 1246.48326,130.560105 1257.5395,130.696473 C1267.91587,130.696473 1276.26308,133.814845 1282.58114,140.051589 C1289.03153,146.611521 1292.46231,155.534617 1292.05823,164.700485 C1292.05823,178.121714 1288.14595,189.280594 1280.3214,198.177126 L1280.41363,198.245913 Z" id="Shape"></path>
                        </g>
                        <g id="Group-3"></g>
                        <path d="M170.128034,159.867857 L181.853075,85.9727698 L124.377387,85.9727698 L114.284657,150.429544 C114.077744,151.511497 113.801861,153.076876 113.479997,155.033599 C107.671121,192.786852 96.4595301,211.663479 79.8452248,211.663479 C72.7488933,211.663479 67.3385152,209.614674 63.6140907,205.517065 C59.8896661,201.419456 58.0274539,195.487898 58.0274539,187.722392 C58.0274539,185.880769 58.4182886,181.967322 59.1539774,175.982051 C59.8896661,169.996779 60.9472188,162.515189 62.2346742,153.560301 L72.9021617,85.9727698 L15.6793675,85.9727698 L5.65560763,148.541881 C3.41788754,162.077804 1.90819282,172.137664 1.12652347,178.721463 C0.447342954,184.121212 0.0712441669,189.554861 0,194.996799 C0,213.673916 6.89708247,228.452934 20.6912474,239.333851 C34.4854124,250.214769 53.4217355,255.670574 77.5002167,255.701268 C90.2046604,255.888067 102.85447,253.998617 114.951375,250.107341 C125.41378,246.724789 134.994285,241.055479 142.99951,233.509721 C155.077068,221.76938 163.966641,198.357759 169.668229,163.274858 L170.128034,159.867857 Z" id="Path" fill="#FFA8BB" fill-rule="nonzero"></path>
                        <path d="M1303.08024,89.4239027 L1299.3678,112.353108 C1292.80503,103.521654 1284.35503,96.2467199 1274.62592,91.0518763 C1265.2761,86.377307 1254.92919,84.0174782 1244.46527,84.1731145 C1221.00243,83.7271051 1198.57245,93.7559597 1183.33691,111.504728 C1173.93514,121.995591 1167.04503,134.467726 1163.18369,147.985094 C1161.14553,131.08663 1153.26308,115.418303 1140.88602,103.662939 C1125.20617,88.9423893 1104.28434,81.5821143 1078.12051,81.5821143 C1049.80454,81.5821143 1026.56916,90.4480739 1008.41435,108.179993 C1001.11778,115.263295 995.096775,123.538371 990.613108,132.645456 L1011.55032,0 L954.803097,0 L941.175463,85.7781589 C940.645115,89.4239027 940.207001,93.0008588 939.884181,96.486098 C939.56136,99.9713373 939.39995,103.36486 939.39995,106.574949 L939.39995,111.16079 C932.612066,102.304191 924.024743,94.9681926 914.196897,89.6302655 C904.908178,84.9690702 894.624196,82.6091613 884.220713,82.7515038 C863.594968,82.3582322 843.667959,90.1852303 828.880065,104.488391 L833.491786,84.3565482 C830.240523,83.8291764 827.865487,83.4852384 826.343619,83.3247339 C824.996243,83.169817 823.641593,83.0856265 822.285305,83.0725127 C811.771388,82.8403598 801.415219,85.6438516 792.470531,91.1435931 C783.514463,96.9297263 776.397107,105.128396 771.948374,114.783604 L776.006688,87.1309821 L720.550748,87.1309821 L709.275091,157.91344 C707.73785,136.329415 700.136198,118.696855 686.470132,105.015763 C671.09773,89.6531947 650.752356,81.9719108 625.43401,81.9719108 C597.5331,81.9719108 574.805003,90.6773659 557.24972,108.088276 C549.92627,115.273491 543.959387,123.707616 539.632947,132.989394 L560.685452,0 L503.938229,0 L490.333654,85.7781589 C489.780247,89.4239027 489.342134,93.0008588 489.019313,96.486098 C488.696493,99.9713373 488.535083,103.36486 488.535083,106.574949 L488.535083,111.16079 C481.752765,102.298972 473.164226,94.9619333 463.332029,89.6302655 C454.045504,84.9630447 443.760012,82.6027895 433.355845,82.7515038 C409.783444,82.3115759 387.276998,92.5027619 372.135254,110.472914 C366.095287,117.360923 361.093183,125.084578 357.285513,133.402119 C357.285513,117.198814 352.612303,104.572465 343.265883,95.5230714 C333.919462,86.4736782 320.783745,81.9336954 303.85873,81.9031232 C293.725653,81.8133765 283.738584,84.3079741 274.851007,89.1487522 C264.547778,95.2198044 255.476103,103.151858 248.103027,112.536542 L252.138283,87.1309821 L196.797635,87.1309821 L170.764472,249.928343 L227.765339,249.928343 L239.432993,174.009743 C241.923322,158.203877 246.004695,146.701059 251.677111,139.501288 C257.316179,132.31376 266.107901,128.288673 275.266062,128.701632 C282.61407,128.701632 288.17888,130.528326 291.960491,134.181712 C295.742102,137.827456 297.632907,143.215819 297.632907,150.232156 C297.608848,152.278225 297.478006,154.321674 297.240911,156.354254 C296.964208,158.647175 296.618328,161.146458 296.180215,163.622813 L282.621756,249.928343 L340.49885,249.928343 L348.984416,196.824303 C350.838683,210.996508 356.699744,224.35439 365.886372,235.345368 C377.215205,249.144727 394.325609,256.957801 412.234165,256.509025 C423.037238,256.581652 433.712191,254.180909 443.432455,249.492688 C453.617725,244.447761 462.687855,237.431938 470.111259,228.856403 L466.652468,249.928343 L521.139947,249.928343 L531.285733,185.726567 C532.992069,206.515714 540.240157,223.055314 553.029996,235.345368 C567.787502,249.485045 588.540244,256.554884 615.288224,256.554884 C629.140455,256.739931 642.917157,254.496801 655.986659,249.928343 C668.01651,245.630598 679.011696,238.883076 688.268703,230.11751 L657.047354,198.796214 C650.995573,204.511372 644.136141,209.316156 636.686608,213.05818 C630.376864,216.009996 623.483365,217.521972 616.51033,217.483517 C606.349172,217.483517 598.616854,214.8008 593.313375,209.435366 C588.009897,204.069932 585.365843,196.2205 585.381216,185.887072 L585.381216,182.17254 L705.285952,182.17254 L694.609819,249.928343 L751.679862,249.928343 L763.347515,175.614787 C765.730237,161.092957 770.134431,150.392661 776.560095,143.513899 C782.985759,136.635137 791.771087,133.126969 802.916078,132.989394 C804.645473,132.989394 806.444044,133.10404 808.265674,133.264544 C801.663868,148.148193 798.391002,164.279873 798.673295,180.544567 C798.673295,202.908185 804.699277,221.15219 816.75124,235.276581 C828.053644,249.076541 845.136824,256.905772 863.029856,256.486096 C873.807434,256.552045 884.456703,254.1596 894.158971,249.492688 C904.338624,244.449382 913.401501,237.433105 920.814716,228.856403 L917.517336,249.928343 L971.981756,249.928343 L981.781663,188.019488 C983.349579,205.716836 991.32151,222.24744 1004.21768,234.542846 C1019.59009,249.17168 1040.09687,256.486096 1065.73804,256.486096 C1094.69964,256.486096 1118.37314,247.673638 1136.75853,230.048722 C1147.44213,219.956521 1155.37588,207.333763 1159.81714,193.361993 C1161.29203,208.352014 1167.35188,222.532366 1177.18027,233.992545 C1189.29372,247.750069 1204.96588,254.628831 1224.19676,254.628831 C1234.77005,254.757315 1245.23148,252.46652 1254.77247,247.933502 C1264.43837,243.130633 1272.93038,236.282808 1279.6527,227.870447 L1277.55437,241.880192 C1275.5867,256.188017 1271.15176,266.888313 1264.24955,273.98108 C1257.34734,281.073848 1247.83183,284.597303 1235.703,284.551444 C1227.81696,284.551444 1221.61419,282.762966 1217.07165,279.231868 C1212.42561,275.491644 1209.54552,270.004515 1209.11643,264.075663 L1148.74901,264.075663 C1151.56216,283.748922 1160.17839,298.660549 1174.5977,308.810544 C1189.01702,318.960539 1208.82436,324.035537 1234.01972,324.035537 C1250.05937,324.288786 1265.99821,321.47077 1280.96704,315.735164 C1294.16127,310.69035 1305.88818,302.464551 1315.09377,291.797073 C1323.94827,281.096777 1330.91966,258.633798 1336.00792,224.408137 C1336.65357,219.822296 1337.18391,216.359986 1337.62203,213.768986 L1357.2449,89.4239027 L1303.08024,89.4239027 Z M470.872193,194.668957 C463.860966,203.220544 453.30502,208.118445 442.210349,207.967897 C431.741743,207.967897 423.286922,204.796023 416.845885,198.452276 C410.404849,192.108529 407.222762,183.701154 407.299624,173.23015 C407.299624,159.885352 411.104293,148.894619 418.713632,140.257952 C425.935116,131.771056 436.63718,126.998175 447.813589,127.280021 C457.057699,126.925259 466.048759,130.327656 472.716881,136.703925 C479.232207,143.20483 482.725484,152.11339 482.355377,161.284034 C482.370749,174.689976 478.543021,185.818284 470.872193,194.668957 Z M589.27812,149.039838 C591.983401,140.833332 596.953072,133.547777 603.620571,128.013756 C609.66333,123.048976 617.272885,120.361607 625.111189,120.424189 C632.997028,120.072414 640.698457,122.861719 646.509573,128.17426 C652.07004,133.728749 655.258699,141.203869 655.410194,149.039838 L589.27812,149.039838 Z M921.829295,194.668957 C914.807973,203.23326 904.232094,208.132527 893.121334,207.967897 C882.621983,207.967897 874.167162,204.796023 867.75687,198.452276 C861.346578,192.108529 858.156805,183.701154 858.18733,173.23015 C858.18733,159.885352 862.03065,148.894619 869.716851,140.257952 C876.945944,131.817903 887.625508,127.081209 898.770691,127.371738 C908.00779,127.017937 916.991345,130.420645 923.650924,136.795642 C930.191579,143.28483 933.710514,152.194874 933.358596,161.37575 C933.358596,174.720548 929.515496,185.818284 921.829295,194.668957 Z M1097.69726,195.952993 C1090.52525,204.865761 1079.58982,209.951057 1068.11307,209.710516 C1059.57074,210.09486 1051.26281,206.871949 1045.23894,200.836914 C1039.52041,194.921179 1036.65345,186.964744 1036.63808,176.96761 C1036.28719,164.4722 1040.4604,152.266952 1048.39797,142.573802 C1056.25326,133.126969 1065.7611,128.403553 1076.92146,128.403553 C1086.88278,128.403553 1094.74576,131.330848 1100.51041,137.185438 C1106.27506,143.040029 1109.16507,151.019393 1109.18045,161.123529 C1109.18045,175.278492 1105.32197,186.888313 1097.60503,195.952993 L1097.69726,195.952993 Z M1280.41363,198.245913 C1273.14028,206.90834 1262.31461,211.831375 1250.9678,211.63657 C1241.82419,211.995231 1232.95711,208.478301 1226.57179,201.960445 C1220.26578,195.095714 1216.94962,186.027454 1217.34835,176.738318 C1217.34835,163.500524 1221.19145,152.53272 1228.87765,143.834908 C1235.95417,135.38658 1246.48326,130.560105 1257.5395,130.696473 C1267.91587,130.696473 1276.26308,133.814845 1282.58114,140.051589 C1289.03153,146.611521 1292.46231,155.534617 1292.05823,164.700485 C1292.05823,178.121714 1288.14595,189.280594 1280.3214,198.177126 L1280.41363,198.245913 Z" id="Shape" fill="#FFA8BB" fill-rule="nonzero"></path>
                        <g id="Group-3" transform="translate(34.653061, 28.872180)" fill="#FFFFFF" fill-rule="nonzero">
                            <path d="M170.128034,159.867857 L181.853075,85.9727698 L124.377387,85.9727698 L114.284657,150.429544 C114.077744,151.511497 113.801861,153.076876 113.479997,155.033599 C107.671121,192.786852 96.4595301,211.663479 79.8452248,211.663479 C72.7488933,211.663479 67.3385152,209.614674 63.6140907,205.517065 C59.8896661,201.419456 58.0274539,195.487898 58.0274539,187.722392 C58.0274539,185.880769 58.4182886,181.967322 59.1539774,175.982051 C59.8896661,169.996779 60.9472188,162.515189 62.2346742,153.560301 L72.9021617,85.9727698 L15.6793675,85.9727698 L5.65560763,148.541881 C3.41788754,162.077804 1.90819282,172.137664 1.12652347,178.721463 C0.447342954,184.121212 0.0712441669,189.554861 4.26325641e-14,194.996799 C4.26325641e-14,213.673916 6.89708247,228.452934 20.6912474,239.333851 C34.4854124,250.214769 53.4217355,255.670574 77.5002167,255.701268 C90.2046604,255.888067 102.85447,253.998617 114.951375,250.107341 C125.41378,246.724789 134.994285,241.055479 142.99951,233.509721 C155.077068,221.76938 163.966641,198.357759 169.668229,163.274858 L170.128034,159.867857 Z" id="Path"></path>
                            <path d="M1303.08024,89.4239027 L1299.3678,112.353108 C1292.80503,103.521654 1284.35503,96.2467199 1274.62592,91.0518763 C1265.2761,86.377307 1254.92919,84.0174782 1244.46527,84.1731145 C1221.00243,83.7271051 1198.57245,93.7559597 1183.33691,111.504728 C1173.93514,121.995591 1167.04503,134.467726 1163.18369,147.985094 C1161.14553,131.08663 1153.26308,115.418303 1140.88602,103.662939 C1125.20617,88.9423893 1104.28434,81.5821143 1078.12051,81.5821143 C1049.80454,81.5821143 1026.56916,90.4480739 1008.41435,108.179993 C1001.11778,115.263295 995.096775,123.538371 990.613108,132.645456 L1011.55032,-1.42108547e-14 L954.803097,-1.42108547e-14 L941.175463,85.7781589 C940.645115,89.4239027 940.207001,93.0008588 939.884181,96.486098 C939.56136,99.9713373 939.39995,103.36486 939.39995,106.574949 L939.39995,111.16079 C932.612066,102.304191 924.024743,94.9681926 914.196897,89.6302655 C904.908178,84.9690702 894.624196,82.6091613 884.220713,82.7515038 C863.594968,82.3582322 843.667959,90.1852303 828.880065,104.488391 L833.491786,84.3565482 C830.240523,83.8291764 827.865487,83.4852384 826.343619,83.3247339 C824.996243,83.169817 823.641593,83.0856265 822.285305,83.0725127 C811.771388,82.8403598 801.415219,85.6438516 792.470531,91.1435931 C783.514463,96.9297263 776.397107,105.128396 771.948374,114.783604 L776.006688,87.1309821 L720.550748,87.1309821 L709.275091,157.91344 C707.73785,136.329415 700.136198,118.696855 686.470132,105.015763 C671.09773,89.6531947 650.752356,81.9719108 625.43401,81.9719108 C597.5331,81.9719108 574.805003,90.6773659 557.24972,108.088276 C549.92627,115.273491 543.959387,123.707616 539.632947,132.989394 L560.685452,-1.42108547e-14 L503.938229,-1.42108547e-14 L490.333654,85.7781589 C489.780247,89.4239027 489.342134,93.0008588 489.019313,96.486098 C488.696493,99.9713373 488.535083,103.36486 488.535083,106.574949 L488.535083,111.16079 C481.752765,102.298972 473.164226,94.9619333 463.332029,89.6302655 C454.045504,84.9630447 443.760012,82.6027895 433.355845,82.7515038 C409.783444,82.3115759 387.276998,92.5027619 372.135254,110.472914 C366.095287,117.360923 361.093183,125.084578 357.285513,133.402119 C357.285513,117.198814 352.612303,104.572465 343.265883,95.5230714 C333.919462,86.4736782 320.783745,81.9336954 303.85873,81.9031232 C293.725653,81.8133765 283.738584,84.3079741 274.851007,89.1487522 C264.547778,95.2198044 255.476103,103.151858 248.103027,112.536542 L252.138283,87.1309821 L196.797635,87.1309821 L170.764472,249.928343 L227.765339,249.928343 L239.432993,174.009743 C241.923322,158.203877 246.004695,146.701059 251.677111,139.501288 C257.316179,132.31376 266.107901,128.288673 275.266062,128.701632 C282.61407,128.701632 288.17888,130.528326 291.960491,134.181712 C295.742102,137.827456 297.632907,143.215819 297.632907,150.232156 C297.608848,152.278225 297.478006,154.321674 297.240911,156.354254 C296.964208,158.647175 296.618328,161.146458 296.180215,163.622813 L282.621756,249.928343 L340.49885,249.928343 L348.984416,196.824303 C350.838683,210.996508 356.699744,224.35439 365.886372,235.345368 C377.215205,249.144727 394.325609,256.957801 412.234165,256.509025 C423.037238,256.581652 433.712191,254.180909 443.432455,249.492688 C453.617725,244.447761 462.687855,237.431938 470.111259,228.856403 L466.652468,249.928343 L521.139947,249.928343 L531.285733,185.726567 C532.992069,206.515714 540.240157,223.055314 553.029996,235.345368 C567.787502,249.485045 588.540244,256.554884 615.288224,256.554884 C629.140455,256.739931 642.917157,254.496801 655.986659,249.928343 C668.01651,245.630598 679.011696,238.883076 688.268703,230.11751 L657.047354,198.796214 C650.995573,204.511372 644.136141,209.316156 636.686608,213.05818 C630.376864,216.009996 623.483365,217.521972 616.51033,217.483517 C606.349172,217.483517 598.616854,214.8008 593.313375,209.435366 C588.009897,204.069932 585.365843,196.2205 585.381216,185.887072 L585.381216,182.17254 L705.285952,182.17254 L694.609819,249.928343 L751.679862,249.928343 L763.347515,175.614787 C765.730237,161.092957 770.134431,150.392661 776.560095,143.513899 C782.985759,136.635137 791.771087,133.126969 802.916078,132.989394 C804.645473,132.989394 806.444044,133.10404 808.265674,133.264544 C801.663868,148.148193 798.391002,164.279873 798.673295,180.544567 C798.673295,202.908185 804.699277,221.15219 816.75124,235.276581 C828.053644,249.076541 845.136824,256.905772 863.029856,256.486096 C873.807434,256.552045 884.456703,254.1596 894.158971,249.492688 C904.338624,244.449382 913.401501,237.433105 920.814716,228.856403 L917.517336,249.928343 L971.981756,249.928343 L981.781663,188.019488 C983.349579,205.716836 991.32151,222.24744 1004.21768,234.542846 C1019.59009,249.17168 1040.09687,256.486096 1065.73804,256.486096 C1094.69964,256.486096 1118.37314,247.673638 1136.75853,230.048722 C1147.44213,219.956521 1155.37588,207.333763 1159.81714,193.361993 C1161.29203,208.352014 1167.35188,222.532366 1177.18027,233.992545 C1189.29372,247.750069 1204.96588,254.628831 1224.19676,254.628831 C1234.77005,254.757315 1245.23148,252.46652 1254.77247,247.933502 C1264.43837,243.130633 1272.93038,236.282808 1279.6527,227.870447 L1277.55437,241.880192 C1275.5867,256.188017 1271.15176,266.888313 1264.24955,273.98108 C1257.34734,281.073848 1247.83183,284.597303 1235.703,284.551444 C1227.81696,284.551444 1221.61419,282.762966 1217.07165,279.231868 C1212.42561,275.491644 1209.54552,270.004515 1209.11643,264.075663 L1148.74901,264.075663 C1151.56216,283.748922 1160.17839,298.660549 1174.5977,308.810544 C1189.01702,318.960539 1208.82436,324.035537 1234.01972,324.035537 C1250.05937,324.288786 1265.99821,321.47077 1280.96704,315.735164 C1294.16127,310.69035 1305.88818,302.464551 1315.09377,291.797073 C1323.94827,281.096777 1330.91966,258.633798 1336.00792,224.408137 C1336.65357,219.822296 1337.18391,216.359986 1337.62203,213.768986 L1357.2449,89.4239027 L1303.08024,89.4239027 Z M470.872193,194.668957 C463.860966,203.220544 453.30502,208.118445 442.210349,207.967897 C431.741743,207.967897 423.286922,204.796023 416.845885,198.452276 C410.404849,192.108529 407.222762,183.701154 407.299624,173.23015 C407.299624,159.885352 411.104293,148.894619 418.713632,140.257952 C425.935116,131.771056 436.63718,126.998175 447.813589,127.280021 C457.057699,126.925259 466.048759,130.327656 472.716881,136.703925 C479.232207,143.20483 482.725484,152.11339 482.355377,161.284034 C482.370749,174.689976 478.543021,185.818284 470.872193,194.668957 Z M589.27812,149.039838 C591.983401,140.833332 596.953072,133.547777 603.620571,128.013756 C609.66333,123.048976 617.272885,120.361607 625.111189,120.424189 C632.997028,120.072414 640.698457,122.861719 646.509573,128.17426 C652.07004,133.728749 655.258699,141.203869 655.410194,149.039838 L589.27812,149.039838 Z M921.829295,194.668957 C914.807973,203.23326 904.232094,208.132527 893.121334,207.967897 C882.621983,207.967897 874.167162,204.796023 867.75687,198.452276 C861.346578,192.108529 858.156805,183.701154 858.18733,173.23015 C858.18733,159.885352 862.03065,148.894619 869.716851,140.257952 C876.945944,131.817903 887.625508,127.081209 898.770691,127.371738 C908.00779,127.017937 916.991345,130.420645 923.650924,136.795642 C930.191579,143.28483 933.710514,152.194874 933.358596,161.37575 C933.358596,174.720548 929.515496,185.818284 921.829295,194.668957 Z M1097.69726,195.952993 C1090.52525,204.865761 1079.58982,209.951057 1068.11307,209.710516 C1059.57074,210.09486 1051.26281,206.871949 1045.23894,200.836914 C1039.52041,194.921179 1036.65345,186.964744 1036.63808,176.96761 C1036.28719,164.4722 1040.4604,152.266952 1048.39797,142.573802 C1056.25326,133.126969 1065.7611,128.403553 1076.92146,128.403553 C1086.88278,128.403553 1094.74576,131.330848 1100.51041,137.185438 C1106.27506,143.040029 1109.16507,151.019393 1109.18045,161.123529 C1109.18045,175.278492 1105.32197,186.888313 1097.60503,195.952993 L1097.69726,195.952993 Z M1280.41363,198.245913 C1273.14028,206.90834 1262.31461,211.831375 1250.9678,211.63657 C1241.82419,211.995231 1232.95711,208.478301 1226.57179,201.960445 C1220.26578,195.095714 1216.94962,186.027454 1217.34835,176.738318 C1217.34835,163.500524 1221.19145,152.53272 1228.87765,143.834908 C1235.95417,135.38658 1246.48326,130.560105 1257.5395,130.696473 C1267.91587,130.696473 1276.26308,133.814845 1282.58114,140.051589 C1289.03153,146.611521 1292.46231,155.534617 1292.05823,164.700485 C1292.05823,178.121714 1288.14595,189.280594 1280.3214,198.177126 L1280.41363,198.245913 Z" id="Shape"></path>
                        </g>
                    </g>
                </g>
            </g>
        </g>
    </g>
</svg>